<svg width="259" height="257" viewBox="0 0 259 257" fill="none" xmlns="http://www.w3.org/2000/svg">
<path fill-rule="evenodd" clip-rule="evenodd" d="M115.539 0.189847L0.189835 12.461L12.461 127.81L41.5494 124.716C43.568 105.34 51.1485 89.2878 64.291 76.5586C78.4425 62.9378 97.4404 55.4851 121.285 54.2006L115.539 0.189847ZM125.084 89.9122C118.493 91.2538 113.023 94.8104 108.676 100.582C105.5 104.702 103.342 110.596 102.203 118.263L127.81 115.539L125.084 89.9122ZM140.617 121.529L138.569 90.0258C143.53 91.0932 147.725 93.3424 151.156 96.7734C156.234 101.754 159.359 110.006 160.531 121.529H140.617ZM219.548 120.527C217.929 110.104 215.102 101.063 211.068 93.4043C204.33 80.6113 194.516 70.8457 181.625 64.1074C170.186 58.1281 155.057 54.8017 136.236 54.1282L133.36 9.88386L249.116 2.36038L256.64 118.116L219.548 120.527ZM132.32 150.094H221.176V143.355C221.176 139.452 221.054 135.689 220.81 132.065L246.812 129.411L258.589 244.812L143.188 256.589L139.092 216.447C158.743 215.725 174.141 212.406 185.287 206.49C197.982 199.654 208.822 188.424 217.807 172.799L159.066 167.379C155.355 172.066 151.889 175.338 148.666 177.193C144.468 179.526 140.085 180.929 135.515 181.405L132.32 150.094ZM41.024 133.263L10.1607 131.118L2.11839 246.839L117.839 254.882L120.517 216.348C104.656 215.535 91.8225 212.737 82.0156 207.955C70.1992 202.096 60.3847 192.867 52.5722 180.27C44.8574 167.574 41 152.682 41 135.592C41 134.811 41.008 134.035 41.024 133.263ZM123.016 180.392C117.724 178.871 113.188 175.901 109.408 171.48C105.307 166.793 102.719 159.664 101.645 150.094H125.122L123.016 180.392Z" fill="#0022D8"/>
</svg>
