<svg width="341" height="365" viewBox="0 0 341 365" fill="none" xmlns="http://www.w3.org/2000/svg">
<path fill-rule="evenodd" clip-rule="evenodd" d="M157.349 0L42 12.2712L54.2712 127.62L83.3596 124.526C85.3782 105.15 92.9587 89.0979 106.101 76.3687C120.253 62.7479 139.251 55.2953 163.095 54.0108L157.349 0ZM166.894 89.7223C160.303 91.0639 154.833 94.6205 150.486 100.392C147.31 104.513 145.152 110.406 144.013 118.073L169.62 115.349L166.894 89.7223ZM182.427 121.339L180.379 89.836C185.34 90.9034 189.535 93.1526 192.966 96.5836C198.045 101.564 201.17 109.816 202.341 121.339H182.427ZM261.358 120.337C259.739 109.914 256.912 100.873 252.878 93.2145C246.14 80.4215 236.326 70.6559 223.435 63.9176C211.996 57.9383 196.867 54.6119 178.046 53.9384L175.171 9.69401L290.926 2.17053L298.45 117.926L261.358 120.337ZM174.13 149.904H262.986V143.166C262.986 139.262 262.864 135.499 262.62 131.875L288.622 129.221L300.399 244.622L184.998 256.399L180.902 216.257C200.553 215.535 215.952 212.216 227.097 206.3C239.793 199.464 250.632 188.234 259.617 172.609L200.877 167.189C197.166 171.877 193.699 175.148 190.476 177.004C186.278 179.336 181.895 180.74 177.326 181.215L174.13 149.904ZM82.8342 133.073L51.9709 130.929L43.9286 246.649L159.649 254.692L162.327 216.158C146.467 215.345 133.633 212.547 123.826 207.765C112.009 201.906 102.195 192.677 94.3824 180.08C86.6676 167.384 82.8101 152.492 82.8101 135.402C82.8101 134.621 82.8181 133.845 82.8342 133.073ZM164.826 180.202C159.534 178.681 154.998 175.711 151.218 171.291C147.117 166.603 144.529 159.474 143.455 149.904H166.932L164.826 180.202Z" fill="white"/>
<path fill-rule="evenodd" clip-rule="evenodd" d="M49.2019 280.281H71.4206L86.8894 329.734L102.124 280.281H123.686L98.1862 349H75.1706L49.2019 280.281ZM58.3675 328.844H20.1175C20.4612 331.906 21.2894 334.188 22.6019 335.688C24.4456 337.844 26.8519 338.922 29.8206 338.922C31.6956 338.922 33.4769 338.453 35.1644 337.516C36.1956 336.922 37.305 335.875 38.4925 334.375L57.2894 336.109C54.4144 341.109 50.9456 344.703 46.8831 346.891C44.4692 348.172 41.4318 349.072 37.7711 349.592C37.5223 348.896 37.1679 348.305 36.7078 347.82C36.2286 347.315 35.6531 346.964 34.9812 346.766C34.4812 346.62 33.7547 346.547 32.8016 346.547H28.575V350.12C22.3715 350.046 17.4586 349.126 13.8362 347.359C10.055 345.484 6.91437 342.531 4.41437 338.5C1.94562 334.438 0.711243 329.672 0.711243 324.203C0.711243 316.422 3.19562 310.125 8.16437 305.312C13.1644 300.5 20.055 298.094 28.8362 298.094C35.9612 298.094 41.5862 299.172 45.7112 301.328C49.8362 303.484 52.9769 306.609 55.1331 310.703C57.2894 314.797 58.3675 320.125 58.3675 326.688V328.844ZM35.4051 349.867C33.9815 349.999 32.4756 350.08 30.8875 350.111V348.484H31.9266C32.8693 348.484 33.5021 348.521 33.825 348.594C34.2573 348.688 34.6141 348.867 34.8953 349.133C35.0976 349.324 35.2675 349.569 35.4051 349.867ZM38.9612 319.703C38.5862 316.016 37.5862 313.375 35.9612 311.781C34.3675 310.188 32.2581 309.391 29.6331 309.391C26.6019 309.391 24.18 310.594 22.3675 313C21.2112 314.5 20.4769 316.734 20.1644 319.703H38.9612ZM146.907 280.281H127.829V293.266H146.907V280.281ZM146.907 299.219H127.829V349H146.907V299.219ZM147.662 299.219H167.537L177.194 330.766L187.178 299.219H206.444L185.303 349H168.381L147.662 299.219ZM226.043 280.281H206.965V293.266H226.043V280.281ZM226.043 299.219H206.965V349H214.529V346.547H216.724V349H223.436V346.547H225.632V349H226.043V299.219ZM284.877 280.281V349H284.624V346.773L282.421 348.055V349H272.201V346.547H270.005V349H267.017V341.641C264.517 344.766 262.236 346.875 260.174 347.969C259.958 348.082 259.74 348.19 259.521 348.294C259.332 347.917 259.071 347.585 258.738 347.297C258.014 346.667 256.933 346.352 255.496 346.352C254.615 346.352 253.863 346.484 253.238 346.75C252.618 347.016 252.141 347.404 251.808 347.914C251.48 348.419 251.316 348.964 251.316 349.547C251.316 349.745 251.333 349.937 251.366 350.122C251.24 350.124 251.113 350.125 250.986 350.125C249.501 350.125 248.092 350.001 246.759 349.754V349.703H246.496C241.869 348.78 238.178 346.343 235.424 342.391C231.861 337.234 230.08 330.969 230.08 323.594C230.08 315.344 232.049 309.031 235.986 304.656C239.955 300.281 244.986 298.094 251.08 298.094C254.049 298.094 256.736 298.594 259.142 299.594C261.58 300.594 263.736 302.094 265.611 304.094V280.281H284.877ZM253.739 349.957C254.986 349.801 256.186 349.535 257.338 349.161C257.231 348.951 257.096 348.783 256.933 348.656C256.61 348.396 256.123 348.266 255.472 348.266C254.8 348.266 254.274 348.404 253.894 348.68C253.649 348.857 253.527 349.094 253.527 349.391C253.527 349.604 253.598 349.792 253.739 349.957ZM265.752 323.969C265.752 320.062 264.924 317.156 263.267 315.25C261.611 313.312 259.517 312.344 256.986 312.344C254.767 312.344 252.908 313.266 251.408 315.109C249.908 316.953 249.158 320.047 249.158 324.391C249.158 328.453 249.924 331.438 251.455 333.344C253.017 335.219 254.939 336.156 257.221 336.156C259.658 336.156 261.689 335.203 263.314 333.297C264.939 331.391 265.752 328.281 265.752 323.969ZM306.304 333.438L287.367 335.219C288.461 340 290.929 343.688 294.773 346.281C297.793 348.303 302.399 349.537 308.59 349.983C309.143 349.671 309.896 349.516 310.847 349.516C311.982 349.516 312.826 349.701 313.378 350.07C313.425 350.102 313.471 350.135 313.516 350.169C313.751 350.171 313.988 350.172 314.226 350.172C320.664 350.172 325.742 349.375 329.461 347.781C333.211 346.156 335.945 343.984 337.664 341.266C339.414 338.547 340.289 335.75 340.289 332.875C340.289 330.031 339.461 327.422 337.804 325.047C336.179 322.672 333.82 320.844 330.726 319.562C327.633 318.281 322.914 317.281 316.57 316.562C312.383 316.062 309.664 315.5 308.414 314.875C307.164 314.25 306.539 313.328 306.539 312.109C306.539 311.016 307.023 310.094 307.992 309.344C308.992 308.562 310.57 308.172 312.726 308.172C314.851 308.172 316.664 308.672 318.164 309.672C319.258 310.422 320.039 311.594 320.508 313.188L338.601 311.406C337.351 308.156 335.773 305.578 333.867 303.672C331.992 301.766 329.633 300.359 326.789 299.453C323.976 298.547 319.601 298.094 313.664 298.094C308.039 298.094 303.554 298.688 300.211 299.875C296.867 301.031 294.242 302.797 292.336 305.172C290.429 307.547 289.476 310.375 289.476 313.656C289.476 316.656 290.351 319.328 292.101 321.672C293.883 324.016 296.054 325.688 298.617 326.688C301.211 327.656 305.82 328.719 312.445 329.875C316.883 330.656 319.617 331.312 320.648 331.844C322.086 332.594 322.804 333.656 322.804 335.031C322.804 336.25 322.258 337.266 321.164 338.078C319.758 339.172 317.773 339.719 315.211 339.719C312.867 339.719 310.992 339.234 309.586 338.266C308.179 337.297 307.086 335.688 306.304 333.438ZM76.1978 346.547V348.578H78.3931V346.547H76.1978ZM140.527 346.547V348.578H142.722V346.547H140.527ZM211.036 346.547V348.578H213.231V346.547H211.036Z" fill="white"/>
<path d="M11.9999 342H330V365H11.9999V342Z" fill="white"/>
<mask id="path-4-outside-1_41_88" maskUnits="userSpaceOnUse" x="27.575" y="345.352" width="288" height="17" fill="black">
<rect fill="white" x="27.575" y="345.352" width="288" height="17"/>
<path d="M28.575 346.547H32.8016C33.7547 346.547 34.4813 346.62 34.9813 346.766C35.6531 346.964 36.2287 347.315 36.7078 347.82C37.187 348.326 37.5516 348.945 37.8016 349.68C38.0516 350.409 38.1766 351.31 38.1766 352.383C38.1766 353.326 38.0594 354.138 37.825 354.82C37.5386 355.654 37.1297 356.328 36.5984 356.844C36.1974 357.234 35.6557 357.539 34.9734 357.758C34.463 357.919 33.7807 358 32.9266 358H28.575V346.547ZM30.8875 348.484V356.07H32.6141C33.2599 356.07 33.7261 356.034 34.0125 355.961C34.3875 355.867 34.6974 355.708 34.9422 355.484C35.1922 355.26 35.3953 354.893 35.5516 354.383C35.7078 353.867 35.7859 353.167 35.7859 352.281C35.7859 351.396 35.7078 350.716 35.5516 350.242C35.3953 349.768 35.1766 349.398 34.8953 349.133C34.6141 348.867 34.2573 348.688 33.825 348.594C33.5021 348.521 32.8693 348.484 31.9266 348.484H30.8875Z"/>
<path d="M43.9744 355.359L46.1619 355.727C45.8806 356.529 45.4353 357.141 44.826 357.562C44.2218 357.979 43.464 358.188 42.5525 358.188C41.1098 358.188 40.0421 357.716 39.3494 356.773C38.8025 356.018 38.5291 355.065 38.5291 353.914C38.5291 352.539 38.8884 351.464 39.6072 350.688C40.3259 349.906 41.2348 349.516 42.3338 349.516C43.5681 349.516 44.5421 349.924 45.2556 350.742C45.9692 351.555 46.3103 352.802 46.2791 354.484H40.7791C40.7947 355.135 40.9718 355.643 41.3103 356.008C41.6489 356.367 42.0707 356.547 42.5759 356.547C42.9197 356.547 43.2088 356.453 43.4431 356.266C43.6775 356.078 43.8546 355.776 43.9744 355.359ZM44.0994 353.141C44.0838 352.505 43.9197 352.023 43.6072 351.695C43.2947 351.362 42.9145 351.195 42.4666 351.195C41.9874 351.195 41.5916 351.37 41.2791 351.719C40.9666 352.068 40.8129 352.542 40.8181 353.141H44.0994Z"/>
<path d="M46.3425 355.633L48.5456 355.297C48.6394 355.724 48.8295 356.049 49.1159 356.273C49.4024 356.492 49.8034 356.602 50.3191 356.602C50.8868 356.602 51.3139 356.497 51.6003 356.289C51.793 356.143 51.8894 355.948 51.8894 355.703C51.8894 355.536 51.8373 355.398 51.7331 355.289C51.6238 355.185 51.379 355.089 50.9988 355C49.2279 354.609 48.1055 354.253 47.6316 353.93C46.9753 353.482 46.6472 352.859 46.6472 352.062C46.6472 351.344 46.9311 350.74 47.4988 350.25C48.0665 349.76 48.9467 349.516 50.1394 349.516C51.2748 349.516 52.1186 349.701 52.6706 350.07C53.2227 350.44 53.6029 350.987 53.8113 351.711L51.7409 352.094C51.6524 351.771 51.4831 351.523 51.2331 351.352C50.9883 351.18 50.6368 351.094 50.1784 351.094C49.6003 351.094 49.1863 351.174 48.9363 351.336C48.7696 351.451 48.6863 351.599 48.6863 351.781C48.6863 351.938 48.7592 352.07 48.905 352.18C49.1029 352.326 49.7852 352.531 50.9519 352.797C52.1238 353.062 52.9415 353.388 53.405 353.773C53.8633 354.164 54.0925 354.708 54.0925 355.406C54.0925 356.167 53.7748 356.82 53.1394 357.367C52.504 357.914 51.5639 358.188 50.3191 358.188C49.1889 358.188 48.293 357.958 47.6316 357.5C46.9753 357.042 46.5456 356.419 46.3425 355.633Z"/>
<path d="M55.0622 348.578V346.547H57.2575V348.578H55.0622ZM55.0622 358V349.703H57.2575V358H55.0622Z"/>
<path d="M58.3522 358.547L60.86 358.852C60.9017 359.143 60.998 359.344 61.1491 359.453C61.3574 359.609 61.6855 359.688 62.1334 359.688C62.7064 359.688 63.1361 359.602 63.4225 359.43C63.6152 359.315 63.7611 359.13 63.86 358.875C63.9277 358.693 63.9616 358.357 63.9616 357.867V356.656C63.3053 357.552 62.4772 358 61.4772 358C60.3626 358 59.4798 357.529 58.8288 356.586C58.3183 355.841 58.0631 354.914 58.0631 353.805C58.0631 352.414 58.3965 351.352 59.0631 350.617C59.735 349.883 60.5683 349.516 61.5631 349.516C62.5892 349.516 63.4355 349.966 64.1022 350.867V349.703H66.1569V357.148C66.1569 358.128 66.0762 358.859 65.9147 359.344C65.7532 359.828 65.5267 360.208 65.235 360.484C64.9433 360.76 64.5527 360.977 64.0631 361.133C63.5788 361.289 62.9642 361.367 62.2194 361.367C60.8131 361.367 59.8157 361.125 59.2272 360.641C58.6387 360.161 58.3444 359.552 58.3444 358.812C58.3444 358.74 58.347 358.651 58.3522 358.547ZM60.3131 353.68C60.3131 354.56 60.4824 355.206 60.8209 355.617C61.1647 356.023 61.5866 356.227 62.0866 356.227C62.623 356.227 63.0762 356.018 63.4459 355.602C63.8157 355.18 64.0006 354.557 64.0006 353.734C64.0006 352.875 63.8236 352.237 63.4694 351.82C63.1152 351.404 62.6673 351.195 62.1256 351.195C61.5996 351.195 61.1647 351.401 60.8209 351.812C60.4824 352.219 60.3131 352.841 60.3131 353.68Z"/>
<path d="M74.9235 358H72.7281V353.766C72.7281 352.87 72.6813 352.292 72.5875 352.031C72.4938 351.766 72.3401 351.56 72.1266 351.414C71.9182 351.268 71.6656 351.195 71.3688 351.195C70.9886 351.195 70.6474 351.299 70.3453 351.508C70.0432 351.716 69.8349 351.992 69.7203 352.336C69.611 352.68 69.5563 353.315 69.5563 354.242V358H67.361V349.703H69.4V350.922C70.124 349.984 71.0354 349.516 72.1344 349.516C72.6188 349.516 73.0615 349.604 73.4625 349.781C73.8636 349.953 74.1656 350.174 74.3688 350.445C74.5771 350.716 74.7203 351.023 74.7985 351.367C74.8818 351.711 74.9235 352.203 74.9235 352.844V358Z"/>
<path d="M76.1978 348.578V346.547H78.3931V348.578H76.1978ZM76.1978 358V349.703H78.3931V358H76.1978Z"/>
<path d="M87.2378 358H85.0425V353.766C85.0425 352.87 84.9956 352.292 84.9019 352.031C84.8081 351.766 84.6545 351.56 84.4409 351.414C84.2326 351.268 83.98 351.195 83.6831 351.195C83.3029 351.195 82.9618 351.299 82.6597 351.508C82.3576 351.716 82.1493 351.992 82.0347 352.336C81.9253 352.68 81.8706 353.315 81.8706 354.242V358H79.6753V349.703H81.7144V350.922C82.4383 349.984 83.3498 349.516 84.4488 349.516C84.9331 349.516 85.3758 349.604 85.7769 349.781C86.1779 349.953 86.48 350.174 86.6831 350.445C86.8915 350.716 87.0347 351.023 87.1128 351.367C87.1962 351.711 87.2378 352.203 87.2378 352.844V358Z"/>
<path d="M88.3091 358.547L90.8169 358.852C90.8586 359.143 90.9549 359.344 91.1059 359.453C91.3143 359.609 91.6424 359.688 92.0903 359.688C92.6632 359.688 93.0929 359.602 93.3794 359.43C93.5721 359.315 93.7179 359.13 93.8169 358.875C93.8846 358.693 93.9184 358.357 93.9184 357.867V356.656C93.2622 357.552 92.4341 358 91.4341 358C90.3195 358 89.4367 357.529 88.7856 356.586C88.2752 355.841 88.02 354.914 88.02 353.805C88.02 352.414 88.3533 351.352 89.02 350.617C89.6919 349.883 90.5252 349.516 91.52 349.516C92.5461 349.516 93.3924 349.966 94.0591 350.867V349.703H96.1138V357.148C96.1138 358.128 96.033 358.859 95.8716 359.344C95.7101 359.828 95.4836 360.208 95.1919 360.484C94.9002 360.76 94.5096 360.977 94.02 361.133C93.5356 361.289 92.9211 361.367 92.1763 361.367C90.77 361.367 89.7726 361.125 89.1841 360.641C88.5955 360.161 88.3013 359.552 88.3013 358.812C88.3013 358.74 88.3039 358.651 88.3091 358.547ZM90.27 353.68C90.27 354.56 90.4393 355.206 90.7778 355.617C91.1216 356.023 91.5434 356.227 92.0434 356.227C92.5799 356.227 93.033 356.018 93.4028 355.602C93.7726 355.18 93.9575 354.557 93.9575 353.734C93.9575 352.875 93.7804 352.237 93.4263 351.82C93.0721 351.404 92.6242 351.195 92.0825 351.195C91.5565 351.195 91.1216 351.401 90.7778 351.812C90.4393 352.219 90.27 352.841 90.27 353.68Z"/>
<path d="M100.842 358V346.547H109.334V348.484H103.155V351.023H108.905V352.953H103.155V356.07H109.553V358H100.842Z"/>
<path d="M109.484 358L112.476 353.727L109.609 349.703H112.288L113.757 351.984L115.304 349.703H117.882L115.07 353.633L118.14 358H115.445L113.757 355.43L112.054 358H109.484Z"/>
<path d="M118.422 349.703H120.469V350.922C120.735 350.505 121.094 350.167 121.547 349.906C122 349.646 122.503 349.516 123.055 349.516C124.019 349.516 124.836 349.893 125.508 350.648C126.18 351.404 126.516 352.456 126.516 353.805C126.516 355.19 126.177 356.268 125.5 357.039C124.823 357.805 124.003 358.188 123.039 358.188C122.581 358.188 122.164 358.096 121.789 357.914C121.42 357.732 121.029 357.419 120.618 356.977V361.156H118.422V349.703ZM120.594 353.711C120.594 354.643 120.779 355.333 121.149 355.781C121.519 356.224 121.969 356.445 122.5 356.445C123.011 356.445 123.435 356.242 123.774 355.836C124.112 355.424 124.282 354.753 124.282 353.82C124.282 352.951 124.107 352.305 123.758 351.883C123.409 351.461 122.977 351.25 122.461 351.25C121.925 351.25 121.479 351.458 121.125 351.875C120.771 352.286 120.594 352.898 120.594 353.711Z"/>
<path d="M132.111 355.359L134.298 355.727C134.017 356.529 133.572 357.141 132.962 357.562C132.358 357.979 131.6 358.188 130.689 358.188C129.246 358.188 128.178 357.716 127.486 356.773C126.939 356.018 126.665 355.065 126.665 353.914C126.665 352.539 127.025 351.464 127.743 350.688C128.462 349.906 129.371 349.516 130.47 349.516C131.704 349.516 132.678 349.924 133.392 350.742C134.105 351.555 134.447 352.802 134.415 354.484H128.915C128.931 355.135 129.108 355.643 129.447 356.008C129.785 356.367 130.207 356.547 130.712 356.547C131.056 356.547 131.345 356.453 131.579 356.266C131.814 356.078 131.991 355.776 132.111 355.359ZM132.236 353.141C132.22 352.505 132.056 352.023 131.743 351.695C131.431 351.362 131.051 351.195 130.603 351.195C130.124 351.195 129.728 351.37 129.415 351.719C129.103 352.068 128.949 352.542 128.954 353.141H132.236Z"/>
<path d="M137.354 358H135.158V349.703H137.198V350.883C137.546 350.326 137.859 349.958 138.135 349.781C138.416 349.604 138.734 349.516 139.088 349.516C139.588 349.516 140.07 349.654 140.533 349.93L139.854 351.844C139.484 351.604 139.14 351.484 138.823 351.484C138.515 351.484 138.255 351.57 138.041 351.742C137.828 351.909 137.658 352.214 137.533 352.656C137.414 353.099 137.354 354.026 137.354 355.438V358Z"/>
<path d="M140.527 348.578V346.547H142.722V348.578H140.527ZM140.527 358V349.703H142.722V358H140.527Z"/>
<path d="M148.824 355.359L151.012 355.727C150.731 356.529 150.285 357.141 149.676 357.562C149.072 357.979 148.314 358.188 147.403 358.188C145.96 358.188 144.892 357.716 144.199 356.773C143.653 356.018 143.379 355.065 143.379 353.914C143.379 352.539 143.738 351.464 144.457 350.688C145.176 349.906 146.085 349.516 147.184 349.516C148.418 349.516 149.392 349.924 150.106 350.742C150.819 351.555 151.16 352.802 151.129 354.484H145.629C145.645 355.135 145.822 355.643 146.16 356.008C146.499 356.367 146.921 356.547 147.426 356.547C147.77 356.547 148.059 356.453 148.293 356.266C148.528 356.078 148.705 355.776 148.824 355.359ZM148.949 353.141C148.934 352.505 148.77 352.023 148.457 351.695C148.145 351.362 147.764 351.195 147.317 351.195C146.837 351.195 146.442 351.37 146.129 351.719C145.817 352.068 145.663 352.542 145.668 353.141H148.949Z"/>
<path d="M159.513 358H157.318V353.766C157.318 352.87 157.271 352.292 157.177 352.031C157.083 351.766 156.929 351.56 156.716 351.414C156.508 351.268 156.255 351.195 155.958 351.195C155.578 351.195 155.237 351.299 154.935 351.508C154.633 351.716 154.424 351.992 154.31 352.336C154.2 352.68 154.146 353.315 154.146 354.242V358H151.95V349.703H153.989V350.922C154.713 349.984 155.625 349.516 156.724 349.516C157.208 349.516 157.651 349.604 158.052 349.781C158.453 349.953 158.755 350.174 158.958 350.445C159.166 350.716 159.31 351.023 159.388 351.367C159.471 351.711 159.513 352.203 159.513 352.844V358Z"/>
<path d="M168.022 352.156L165.858 352.547C165.785 352.115 165.618 351.789 165.358 351.57C165.102 351.352 164.769 351.242 164.358 351.242C163.811 351.242 163.373 351.432 163.045 351.812C162.722 352.188 162.561 352.818 162.561 353.703C162.561 354.688 162.725 355.383 163.053 355.789C163.386 356.195 163.831 356.398 164.389 356.398C164.805 356.398 165.147 356.281 165.412 356.047C165.678 355.807 165.865 355.398 165.975 354.82L168.131 355.188C167.907 356.177 167.477 356.924 166.842 357.43C166.206 357.935 165.355 358.188 164.287 358.188C163.074 358.188 162.105 357.805 161.381 357.039C160.662 356.273 160.303 355.214 160.303 353.859C160.303 352.49 160.665 351.424 161.389 350.664C162.113 349.898 163.092 349.516 164.326 349.516C165.337 349.516 166.139 349.734 166.733 350.172C167.331 350.604 167.761 351.266 168.022 352.156Z"/>
<path d="M173.538 355.359L175.726 355.727C175.444 356.529 174.999 357.141 174.39 357.562C173.786 357.979 173.028 358.188 172.116 358.188C170.674 358.188 169.606 357.716 168.913 356.773C168.366 356.018 168.093 355.065 168.093 353.914C168.093 352.539 168.452 351.464 169.171 350.688C169.89 349.906 170.799 349.516 171.898 349.516C173.132 349.516 174.106 349.924 174.819 350.742C175.533 351.555 175.874 352.802 175.843 354.484H170.343C170.358 355.135 170.536 355.643 170.874 356.008C171.213 356.367 171.634 356.547 172.14 356.547C172.483 356.547 172.773 356.453 173.007 356.266C173.241 356.078 173.418 355.776 173.538 355.359ZM173.663 353.141C173.648 352.505 173.483 352.023 173.171 351.695C172.858 351.362 172.478 351.195 172.03 351.195C171.551 351.195 171.155 351.37 170.843 351.719C170.53 352.068 170.377 352.542 170.382 353.141H173.663Z"/>
<path d="M175.906 355.633L178.109 355.297C178.203 355.724 178.393 356.049 178.68 356.273C178.966 356.492 179.367 356.602 179.883 356.602C180.451 356.602 180.878 356.497 181.164 356.289C181.357 356.143 181.453 355.948 181.453 355.703C181.453 355.536 181.401 355.398 181.297 355.289C181.188 355.185 180.943 355.089 180.563 355C178.792 354.609 177.669 354.253 177.195 353.93C176.539 353.482 176.211 352.859 176.211 352.062C176.211 351.344 176.495 350.74 177.063 350.25C177.63 349.76 178.51 349.516 179.703 349.516C180.839 349.516 181.682 349.701 182.234 350.07C182.786 350.44 183.167 350.987 183.375 351.711L181.305 352.094C181.216 351.771 181.047 351.523 180.797 351.352C180.552 351.18 180.201 351.094 179.742 351.094C179.164 351.094 178.75 351.174 178.5 351.336C178.333 351.451 178.25 351.599 178.25 351.781C178.25 351.938 178.323 352.07 178.469 352.18C178.667 352.326 179.349 352.531 180.516 352.797C181.688 353.062 182.505 353.388 182.969 353.773C183.427 354.164 183.656 354.708 183.656 355.406C183.656 356.167 183.339 356.82 182.703 357.367C182.068 357.914 181.128 358.188 179.883 358.188C178.753 358.188 177.857 357.958 177.195 357.5C176.539 357.042 176.109 356.419 175.906 355.633Z"/>
<path d="M184.571 355.805H186.767V357.375C186.767 358.01 186.712 358.51 186.603 358.875C186.493 359.245 186.285 359.576 185.978 359.867C185.675 360.159 185.29 360.388 184.821 360.555L184.392 359.648C184.834 359.503 185.149 359.302 185.337 359.047C185.524 358.792 185.623 358.443 185.634 358H184.571V355.805Z"/>
<path d="M191.636 346.547H196.214C197.12 346.547 197.794 346.586 198.237 346.664C198.685 346.737 199.084 346.893 199.433 347.133C199.787 347.372 200.081 347.693 200.315 348.094C200.55 348.49 200.667 348.935 200.667 349.43C200.667 349.966 200.521 350.458 200.229 350.906C199.943 351.354 199.552 351.69 199.058 351.914C199.755 352.117 200.292 352.464 200.667 352.953C201.042 353.443 201.229 354.018 201.229 354.68C201.229 355.201 201.107 355.708 200.862 356.203C200.623 356.693 200.292 357.086 199.87 357.383C199.453 357.674 198.938 357.854 198.323 357.922C197.938 357.964 197.008 357.99 195.534 358H191.636V346.547ZM193.948 348.453V351.102H195.464C196.365 351.102 196.925 351.089 197.143 351.062C197.539 351.016 197.849 350.88 198.073 350.656C198.302 350.427 198.417 350.128 198.417 349.758C198.417 349.404 198.318 349.117 198.12 348.898C197.927 348.674 197.638 348.539 197.253 348.492C197.024 348.466 196.365 348.453 195.276 348.453H193.948ZM193.948 353.008V356.07H196.089C196.922 356.07 197.451 356.047 197.675 356C198.018 355.938 198.297 355.786 198.511 355.547C198.729 355.302 198.839 354.977 198.839 354.57C198.839 354.227 198.755 353.935 198.589 353.695C198.422 353.456 198.18 353.281 197.862 353.172C197.55 353.062 196.867 353.008 195.815 353.008H193.948Z"/>
<path d="M207.676 358V356.758C207.374 357.201 206.975 357.549 206.48 357.805C205.991 358.06 205.473 358.188 204.926 358.188C204.368 358.188 203.868 358.065 203.426 357.82C202.983 357.576 202.663 357.232 202.465 356.789C202.267 356.346 202.168 355.734 202.168 354.953V349.703H204.363V353.516C204.363 354.682 204.402 355.398 204.48 355.664C204.564 355.924 204.712 356.133 204.926 356.289C205.139 356.44 205.41 356.516 205.738 356.516C206.113 356.516 206.449 356.414 206.746 356.211C207.043 356.003 207.246 355.747 207.355 355.445C207.465 355.138 207.519 354.391 207.519 353.203V349.703H209.715V358H207.676Z"/>
<path d="M211.036 348.578V346.547H213.231V348.578H211.036ZM211.036 358V349.703H213.231V358H211.036Z"/>
<path d="M214.529 358V346.547H216.724V358H214.529Z"/>
<path d="M225.632 358H223.593V356.781C223.254 357.255 222.853 357.609 222.389 357.844C221.931 358.073 221.468 358.188 220.999 358.188C220.046 358.188 219.228 357.805 218.546 357.039C217.869 356.268 217.53 355.195 217.53 353.82C217.53 352.414 217.861 351.346 218.522 350.617C219.184 349.883 220.02 349.516 221.03 349.516C221.957 349.516 222.759 349.901 223.436 350.672V346.547H225.632V358ZM219.772 353.672C219.772 354.557 219.895 355.198 220.139 355.594C220.494 356.167 220.988 356.453 221.624 356.453C222.129 356.453 222.559 356.24 222.913 355.812C223.267 355.38 223.444 354.737 223.444 353.883C223.444 352.93 223.272 352.245 222.928 351.828C222.585 351.406 222.145 351.195 221.608 351.195C221.087 351.195 220.65 351.404 220.296 351.82C219.947 352.232 219.772 352.849 219.772 353.672Z"/>
<path d="M226.843 348.578V346.547H229.039V348.578H226.843ZM226.843 358V349.703H229.039V358H226.843Z"/>
<path d="M237.883 358H235.688V353.766C235.688 352.87 235.641 352.292 235.548 352.031C235.454 351.766 235.3 351.56 235.087 351.414C234.878 351.268 234.626 351.195 234.329 351.195C233.949 351.195 233.607 351.299 233.305 351.508C233.003 351.716 232.795 351.992 232.68 352.336C232.571 352.68 232.516 353.315 232.516 354.242V358H230.321V349.703H232.36V350.922C233.084 349.984 233.995 349.516 235.094 349.516C235.579 349.516 236.021 349.604 236.423 349.781C236.824 349.953 237.126 350.174 237.329 350.445C237.537 350.716 237.68 351.023 237.758 351.367C237.842 351.711 237.883 352.203 237.883 352.844V358Z"/>
<path d="M238.955 358.547L241.463 358.852C241.504 359.143 241.601 359.344 241.752 359.453C241.96 359.609 242.288 359.688 242.736 359.688C243.309 359.688 243.739 359.602 244.025 359.43C244.218 359.315 244.364 359.13 244.463 358.875C244.53 358.693 244.564 358.357 244.564 357.867V356.656C243.908 357.552 243.08 358 242.08 358C240.965 358 240.082 357.529 239.431 356.586C238.921 355.841 238.666 354.914 238.666 353.805C238.666 352.414 238.999 351.352 239.666 350.617C240.338 349.883 241.171 349.516 242.166 349.516C243.192 349.516 244.038 349.966 244.705 350.867V349.703H246.759V357.148C246.759 358.128 246.679 358.859 246.517 359.344C246.356 359.828 246.129 360.208 245.838 360.484C245.546 360.76 245.155 360.977 244.666 361.133C244.181 361.289 243.567 361.367 242.822 361.367C241.416 361.367 240.418 361.125 239.83 360.641C239.241 360.161 238.947 359.552 238.947 358.812C238.947 358.74 238.949 358.651 238.955 358.547ZM240.916 353.68C240.916 354.56 241.085 355.206 241.423 355.617C241.767 356.023 242.189 356.227 242.689 356.227C243.226 356.227 243.679 356.018 244.048 355.602C244.418 355.18 244.603 354.557 244.603 353.734C244.603 352.875 244.426 352.237 244.072 351.82C243.718 351.404 243.27 351.195 242.728 351.195C242.202 351.195 241.767 351.401 241.423 351.812C241.085 352.219 240.916 352.841 240.916 353.68Z"/>
<path d="M250.902 354.273L253.152 354.055C253.287 354.81 253.561 355.365 253.972 355.719C254.389 356.073 254.949 356.25 255.652 356.25C256.397 356.25 256.957 356.094 257.332 355.781C257.712 355.464 257.902 355.094 257.902 354.672C257.902 354.401 257.821 354.172 257.66 353.984C257.503 353.792 257.227 353.625 256.832 353.484C256.561 353.391 255.944 353.224 254.98 352.984C253.74 352.677 252.871 352.299 252.371 351.852C251.668 351.221 251.316 350.453 251.316 349.547C251.316 348.964 251.48 348.419 251.808 347.914C252.141 347.404 252.618 347.016 253.238 346.75C253.863 346.484 254.615 346.352 255.496 346.352C256.933 346.352 258.014 346.667 258.738 347.297C259.467 347.927 259.85 348.768 259.886 349.82L257.574 349.922C257.475 349.333 257.261 348.911 256.933 348.656C256.61 348.396 256.123 348.266 255.472 348.266C254.8 348.266 254.274 348.404 253.894 348.68C253.649 348.857 253.527 349.094 253.527 349.391C253.527 349.661 253.641 349.893 253.871 350.086C254.162 350.331 254.871 350.586 255.996 350.852C257.121 351.117 257.951 351.393 258.488 351.68C259.029 351.961 259.451 352.349 259.753 352.844C260.061 353.333 260.214 353.94 260.214 354.664C260.214 355.32 260.032 355.935 259.668 356.508C259.303 357.081 258.787 357.508 258.121 357.789C257.454 358.065 256.623 358.203 255.628 358.203C254.181 358.203 253.069 357.87 252.293 357.203C251.516 356.531 251.053 355.555 250.902 354.273Z"/>
<path d="M260.676 353.734C260.676 353.005 260.856 352.299 261.215 351.617C261.575 350.935 262.083 350.414 262.739 350.055C263.4 349.695 264.137 349.516 264.95 349.516C266.205 349.516 267.234 349.924 268.036 350.742C268.838 351.555 269.239 352.583 269.239 353.828C269.239 355.083 268.833 356.125 268.02 356.953C267.213 357.776 266.194 358.188 264.965 358.188C264.205 358.188 263.478 358.016 262.786 357.672C262.098 357.328 261.575 356.826 261.215 356.164C260.856 355.497 260.676 354.688 260.676 353.734ZM262.926 353.852C262.926 354.674 263.122 355.305 263.512 355.742C263.903 356.18 264.385 356.398 264.958 356.398C265.53 356.398 266.01 356.18 266.395 355.742C266.786 355.305 266.981 354.669 266.981 353.836C266.981 353.023 266.786 352.398 266.395 351.961C266.01 351.523 265.53 351.305 264.958 351.305C264.385 351.305 263.903 351.523 263.512 351.961C263.122 352.398 262.926 353.029 262.926 353.852Z"/>
<path d="M270.005 358V346.547H272.201V358H270.005Z"/>
<path d="M278.959 358V356.758C278.657 357.201 278.259 357.549 277.764 357.805C277.274 358.06 276.756 358.188 276.209 358.188C275.652 358.188 275.152 358.065 274.709 357.82C274.267 357.576 273.946 357.232 273.748 356.789C273.551 356.346 273.452 355.734 273.452 354.953V349.703H275.647V353.516C275.647 354.682 275.686 355.398 275.764 355.664C275.847 355.924 275.996 356.133 276.209 356.289C276.423 356.44 276.694 356.516 277.022 356.516C277.397 356.516 277.733 356.414 278.03 356.211C278.327 356.003 278.53 355.747 278.639 355.445C278.748 355.138 278.803 354.391 278.803 353.203V349.703H280.998V358H278.959Z"/>
<path d="M286.124 349.703V351.453H284.624V354.797C284.624 355.474 284.637 355.87 284.663 355.984C284.695 356.094 284.76 356.185 284.859 356.258C284.963 356.331 285.088 356.367 285.234 356.367C285.437 356.367 285.731 356.297 286.117 356.156L286.304 357.859C285.794 358.078 285.216 358.188 284.57 358.188C284.174 358.188 283.817 358.122 283.499 357.992C283.182 357.857 282.947 357.685 282.796 357.477C282.65 357.263 282.549 356.977 282.492 356.617C282.445 356.362 282.421 355.846 282.421 355.07V351.453H281.413V349.703H282.421V348.055L284.624 346.773V349.703H286.124Z"/>
<path d="M286.688 348.578V346.547H288.883V348.578H286.688ZM286.688 358V349.703H288.883V358H286.688Z"/>
<path d="M289.673 353.734C289.673 353.005 289.853 352.299 290.212 351.617C290.572 350.935 291.079 350.414 291.736 350.055C292.397 349.695 293.134 349.516 293.947 349.516C295.202 349.516 296.23 349.924 297.032 350.742C297.835 351.555 298.236 352.583 298.236 353.828C298.236 355.083 297.829 356.125 297.017 356.953C296.21 357.776 295.191 358.188 293.962 358.188C293.202 358.188 292.475 358.016 291.782 357.672C291.095 357.328 290.572 356.826 290.212 356.164C289.853 355.497 289.673 354.688 289.673 353.734ZM291.923 353.852C291.923 354.674 292.118 355.305 292.509 355.742C292.9 356.18 293.381 356.398 293.954 356.398C294.527 356.398 295.006 356.18 295.392 355.742C295.782 355.305 295.978 354.669 295.978 353.836C295.978 353.023 295.782 352.398 295.392 351.961C295.006 351.523 294.527 351.305 293.954 351.305C293.381 351.305 292.9 351.523 292.509 351.961C292.118 352.398 291.923 353.029 291.923 353.852Z"/>
<path d="M306.549 358H304.354V353.766C304.354 352.87 304.307 352.292 304.213 352.031C304.119 351.766 303.966 351.56 303.752 351.414C303.544 351.268 303.291 351.195 302.994 351.195C302.614 351.195 302.273 351.299 301.971 351.508C301.669 351.716 301.461 351.992 301.346 352.336C301.237 352.68 301.182 353.315 301.182 354.242V358H298.987V349.703H301.026V350.922C301.75 349.984 302.661 349.516 303.76 349.516C304.244 349.516 304.687 349.604 305.088 349.781C305.489 349.953 305.791 350.174 305.994 350.445C306.203 350.716 306.346 351.023 306.424 351.367C306.507 351.711 306.549 352.203 306.549 352.844V358Z"/>
<path d="M307.05 355.633L309.253 355.297C309.347 355.724 309.537 356.049 309.823 356.273C310.11 356.492 310.511 356.602 311.027 356.602C311.594 356.602 312.021 356.497 312.308 356.289C312.501 356.143 312.597 355.948 312.597 355.703C312.597 355.536 312.545 355.398 312.441 355.289C312.331 355.185 312.086 355.089 311.706 355C309.935 354.609 308.813 354.253 308.339 353.93C307.683 353.482 307.355 352.859 307.355 352.062C307.355 351.344 307.639 350.74 308.206 350.25C308.774 349.76 309.654 349.516 310.847 349.516C311.982 349.516 312.826 349.701 313.378 350.07C313.93 350.44 314.31 350.987 314.519 351.711L312.448 352.094C312.36 351.771 312.191 351.523 311.941 351.352C311.696 351.18 311.344 351.094 310.886 351.094C310.308 351.094 309.894 351.174 309.644 351.336C309.477 351.451 309.394 351.599 309.394 351.781C309.394 351.938 309.467 352.07 309.612 352.18C309.81 352.326 310.493 352.531 311.659 352.797C312.831 353.062 313.649 353.388 314.112 353.773C314.571 354.164 314.8 354.708 314.8 355.406C314.8 356.167 314.482 356.82 313.847 357.367C313.211 357.914 312.271 358.188 311.027 358.188C309.896 358.188 309.001 357.958 308.339 357.5C307.683 357.042 307.253 356.419 307.05 355.633Z"/>
</mask>
<path d="M28.575 346.547H32.8016C33.7547 346.547 34.4813 346.62 34.9813 346.766C35.6531 346.964 36.2287 347.315 36.7078 347.82C37.187 348.326 37.5516 348.945 37.8016 349.68C38.0516 350.409 38.1766 351.31 38.1766 352.383C38.1766 353.326 38.0594 354.138 37.825 354.82C37.5386 355.654 37.1297 356.328 36.5984 356.844C36.1974 357.234 35.6557 357.539 34.9734 357.758C34.463 357.919 33.7807 358 32.9266 358H28.575V346.547ZM30.8875 348.484V356.07H32.6141C33.2599 356.07 33.7261 356.034 34.0125 355.961C34.3875 355.867 34.6974 355.708 34.9422 355.484C35.1922 355.26 35.3953 354.893 35.5516 354.383C35.7078 353.867 35.7859 353.167 35.7859 352.281C35.7859 351.396 35.7078 350.716 35.5516 350.242C35.3953 349.768 35.1766 349.398 34.8953 349.133C34.6141 348.867 34.2573 348.688 33.825 348.594C33.5021 348.521 32.8693 348.484 31.9266 348.484H30.8875Z" fill="#001AA7"/>
<path d="M43.9744 355.359L46.1619 355.727C45.8806 356.529 45.4353 357.141 44.826 357.562C44.2218 357.979 43.464 358.188 42.5525 358.188C41.1098 358.188 40.0421 357.716 39.3494 356.773C38.8025 356.018 38.5291 355.065 38.5291 353.914C38.5291 352.539 38.8884 351.464 39.6072 350.688C40.3259 349.906 41.2348 349.516 42.3338 349.516C43.5681 349.516 44.5421 349.924 45.2556 350.742C45.9692 351.555 46.3103 352.802 46.2791 354.484H40.7791C40.7947 355.135 40.9718 355.643 41.3103 356.008C41.6489 356.367 42.0707 356.547 42.5759 356.547C42.9197 356.547 43.2088 356.453 43.4431 356.266C43.6775 356.078 43.8546 355.776 43.9744 355.359ZM44.0994 353.141C44.0838 352.505 43.9197 352.023 43.6072 351.695C43.2947 351.362 42.9145 351.195 42.4666 351.195C41.9874 351.195 41.5916 351.37 41.2791 351.719C40.9666 352.068 40.8129 352.542 40.8181 353.141H44.0994Z" fill="#001AA7"/>
<path d="M46.3425 355.633L48.5456 355.297C48.6394 355.724 48.8295 356.049 49.1159 356.273C49.4024 356.492 49.8034 356.602 50.3191 356.602C50.8868 356.602 51.3139 356.497 51.6003 356.289C51.793 356.143 51.8894 355.948 51.8894 355.703C51.8894 355.536 51.8373 355.398 51.7331 355.289C51.6238 355.185 51.379 355.089 50.9988 355C49.2279 354.609 48.1055 354.253 47.6316 353.93C46.9753 353.482 46.6472 352.859 46.6472 352.062C46.6472 351.344 46.9311 350.74 47.4988 350.25C48.0665 349.76 48.9467 349.516 50.1394 349.516C51.2748 349.516 52.1186 349.701 52.6706 350.07C53.2227 350.44 53.6029 350.987 53.8113 351.711L51.7409 352.094C51.6524 351.771 51.4831 351.523 51.2331 351.352C50.9883 351.18 50.6368 351.094 50.1784 351.094C49.6003 351.094 49.1863 351.174 48.9363 351.336C48.7696 351.451 48.6863 351.599 48.6863 351.781C48.6863 351.938 48.7592 352.07 48.905 352.18C49.1029 352.326 49.7852 352.531 50.9519 352.797C52.1238 353.062 52.9415 353.388 53.405 353.773C53.8633 354.164 54.0925 354.708 54.0925 355.406C54.0925 356.167 53.7748 356.82 53.1394 357.367C52.504 357.914 51.5639 358.188 50.3191 358.188C49.1889 358.188 48.293 357.958 47.6316 357.5C46.9753 357.042 46.5456 356.419 46.3425 355.633Z" fill="#001AA7"/>
<path d="M55.0622 348.578V346.547H57.2575V348.578H55.0622ZM55.0622 358V349.703H57.2575V358H55.0622Z" fill="#001AA7"/>
<path d="M58.3522 358.547L60.86 358.852C60.9017 359.143 60.998 359.344 61.1491 359.453C61.3574 359.609 61.6855 359.688 62.1334 359.688C62.7064 359.688 63.1361 359.602 63.4225 359.43C63.6152 359.315 63.7611 359.13 63.86 358.875C63.9277 358.693 63.9616 358.357 63.9616 357.867V356.656C63.3053 357.552 62.4772 358 61.4772 358C60.3626 358 59.4798 357.529 58.8288 356.586C58.3183 355.841 58.0631 354.914 58.0631 353.805C58.0631 352.414 58.3965 351.352 59.0631 350.617C59.735 349.883 60.5683 349.516 61.5631 349.516C62.5892 349.516 63.4355 349.966 64.1022 350.867V349.703H66.1569V357.148C66.1569 358.128 66.0762 358.859 65.9147 359.344C65.7532 359.828 65.5267 360.208 65.235 360.484C64.9433 360.76 64.5527 360.977 64.0631 361.133C63.5788 361.289 62.9642 361.367 62.2194 361.367C60.8131 361.367 59.8157 361.125 59.2272 360.641C58.6387 360.161 58.3444 359.552 58.3444 358.812C58.3444 358.74 58.347 358.651 58.3522 358.547ZM60.3131 353.68C60.3131 354.56 60.4824 355.206 60.8209 355.617C61.1647 356.023 61.5866 356.227 62.0866 356.227C62.623 356.227 63.0762 356.018 63.4459 355.602C63.8157 355.18 64.0006 354.557 64.0006 353.734C64.0006 352.875 63.8236 352.237 63.4694 351.82C63.1152 351.404 62.6673 351.195 62.1256 351.195C61.5996 351.195 61.1647 351.401 60.8209 351.812C60.4824 352.219 60.3131 352.841 60.3131 353.68Z" fill="#001AA7"/>
<path d="M74.9235 358H72.7281V353.766C72.7281 352.87 72.6813 352.292 72.5875 352.031C72.4938 351.766 72.3401 351.56 72.1266 351.414C71.9182 351.268 71.6656 351.195 71.3688 351.195C70.9886 351.195 70.6474 351.299 70.3453 351.508C70.0432 351.716 69.8349 351.992 69.7203 352.336C69.611 352.68 69.5563 353.315 69.5563 354.242V358H67.361V349.703H69.4V350.922C70.124 349.984 71.0354 349.516 72.1344 349.516C72.6188 349.516 73.0615 349.604 73.4625 349.781C73.8636 349.953 74.1656 350.174 74.3688 350.445C74.5771 350.716 74.7203 351.023 74.7985 351.367C74.8818 351.711 74.9235 352.203 74.9235 352.844V358Z" fill="#001AA7"/>
<path d="M76.1978 348.578V346.547H78.3931V348.578H76.1978ZM76.1978 358V349.703H78.3931V358H76.1978Z" fill="#001AA7"/>
<path d="M87.2378 358H85.0425V353.766C85.0425 352.87 84.9956 352.292 84.9019 352.031C84.8081 351.766 84.6545 351.56 84.4409 351.414C84.2326 351.268 83.98 351.195 83.6831 351.195C83.3029 351.195 82.9618 351.299 82.6597 351.508C82.3576 351.716 82.1493 351.992 82.0347 352.336C81.9253 352.68 81.8706 353.315 81.8706 354.242V358H79.6753V349.703H81.7144V350.922C82.4383 349.984 83.3498 349.516 84.4488 349.516C84.9331 349.516 85.3758 349.604 85.7769 349.781C86.1779 349.953 86.48 350.174 86.6831 350.445C86.8915 350.716 87.0347 351.023 87.1128 351.367C87.1962 351.711 87.2378 352.203 87.2378 352.844V358Z" fill="#001AA7"/>
<path d="M88.3091 358.547L90.8169 358.852C90.8586 359.143 90.9549 359.344 91.1059 359.453C91.3143 359.609 91.6424 359.688 92.0903 359.688C92.6632 359.688 93.0929 359.602 93.3794 359.43C93.5721 359.315 93.7179 359.13 93.8169 358.875C93.8846 358.693 93.9184 358.357 93.9184 357.867V356.656C93.2622 357.552 92.4341 358 91.4341 358C90.3195 358 89.4367 357.529 88.7856 356.586C88.2752 355.841 88.02 354.914 88.02 353.805C88.02 352.414 88.3533 351.352 89.02 350.617C89.6919 349.883 90.5252 349.516 91.52 349.516C92.5461 349.516 93.3924 349.966 94.0591 350.867V349.703H96.1138V357.148C96.1138 358.128 96.033 358.859 95.8716 359.344C95.7101 359.828 95.4836 360.208 95.1919 360.484C94.9002 360.76 94.5096 360.977 94.02 361.133C93.5356 361.289 92.9211 361.367 92.1763 361.367C90.77 361.367 89.7726 361.125 89.1841 360.641C88.5955 360.161 88.3013 359.552 88.3013 358.812C88.3013 358.74 88.3039 358.651 88.3091 358.547ZM90.27 353.68C90.27 354.56 90.4393 355.206 90.7778 355.617C91.1216 356.023 91.5434 356.227 92.0434 356.227C92.5799 356.227 93.033 356.018 93.4028 355.602C93.7726 355.18 93.9575 354.557 93.9575 353.734C93.9575 352.875 93.7804 352.237 93.4263 351.82C93.0721 351.404 92.6242 351.195 92.0825 351.195C91.5565 351.195 91.1216 351.401 90.7778 351.812C90.4393 352.219 90.27 352.841 90.27 353.68Z" fill="#001AA7"/>
<path d="M100.842 358V346.547H109.334V348.484H103.155V351.023H108.905V352.953H103.155V356.07H109.553V358H100.842Z" fill="#001AA7"/>
<path d="M109.484 358L112.476 353.727L109.609 349.703H112.288L113.757 351.984L115.304 349.703H117.882L115.07 353.633L118.14 358H115.445L113.757 355.43L112.054 358H109.484Z" fill="#001AA7"/>
<path d="M118.422 349.703H120.469V350.922C120.735 350.505 121.094 350.167 121.547 349.906C122 349.646 122.503 349.516 123.055 349.516C124.019 349.516 124.836 349.893 125.508 350.648C126.18 351.404 126.516 352.456 126.516 353.805C126.516 355.19 126.177 356.268 125.5 357.039C124.823 357.805 124.003 358.188 123.039 358.188C122.581 358.188 122.164 358.096 121.789 357.914C121.42 357.732 121.029 357.419 120.618 356.977V361.156H118.422V349.703ZM120.594 353.711C120.594 354.643 120.779 355.333 121.149 355.781C121.519 356.224 121.969 356.445 122.5 356.445C123.011 356.445 123.435 356.242 123.774 355.836C124.112 355.424 124.282 354.753 124.282 353.82C124.282 352.951 124.107 352.305 123.758 351.883C123.409 351.461 122.977 351.25 122.461 351.25C121.925 351.25 121.479 351.458 121.125 351.875C120.771 352.286 120.594 352.898 120.594 353.711Z" fill="#001AA7"/>
<path d="M132.111 355.359L134.298 355.727C134.017 356.529 133.572 357.141 132.962 357.562C132.358 357.979 131.6 358.188 130.689 358.188C129.246 358.188 128.178 357.716 127.486 356.773C126.939 356.018 126.665 355.065 126.665 353.914C126.665 352.539 127.025 351.464 127.743 350.688C128.462 349.906 129.371 349.516 130.47 349.516C131.704 349.516 132.678 349.924 133.392 350.742C134.105 351.555 134.447 352.802 134.415 354.484H128.915C128.931 355.135 129.108 355.643 129.447 356.008C129.785 356.367 130.207 356.547 130.712 356.547C131.056 356.547 131.345 356.453 131.579 356.266C131.814 356.078 131.991 355.776 132.111 355.359ZM132.236 353.141C132.22 352.505 132.056 352.023 131.743 351.695C131.431 351.362 131.051 351.195 130.603 351.195C130.124 351.195 129.728 351.37 129.415 351.719C129.103 352.068 128.949 352.542 128.954 353.141H132.236Z" fill="#001AA7"/>
<path d="M137.354 358H135.158V349.703H137.198V350.883C137.546 350.326 137.859 349.958 138.135 349.781C138.416 349.604 138.734 349.516 139.088 349.516C139.588 349.516 140.07 349.654 140.533 349.93L139.854 351.844C139.484 351.604 139.14 351.484 138.823 351.484C138.515 351.484 138.255 351.57 138.041 351.742C137.828 351.909 137.658 352.214 137.533 352.656C137.414 353.099 137.354 354.026 137.354 355.438V358Z" fill="#001AA7"/>
<path d="M140.527 348.578V346.547H142.722V348.578H140.527ZM140.527 358V349.703H142.722V358H140.527Z" fill="#001AA7"/>
<path d="M148.824 355.359L151.012 355.727C150.731 356.529 150.285 357.141 149.676 357.562C149.072 357.979 148.314 358.188 147.403 358.188C145.96 358.188 144.892 357.716 144.199 356.773C143.653 356.018 143.379 355.065 143.379 353.914C143.379 352.539 143.738 351.464 144.457 350.688C145.176 349.906 146.085 349.516 147.184 349.516C148.418 349.516 149.392 349.924 150.106 350.742C150.819 351.555 151.16 352.802 151.129 354.484H145.629C145.645 355.135 145.822 355.643 146.16 356.008C146.499 356.367 146.921 356.547 147.426 356.547C147.77 356.547 148.059 356.453 148.293 356.266C148.528 356.078 148.705 355.776 148.824 355.359ZM148.949 353.141C148.934 352.505 148.77 352.023 148.457 351.695C148.145 351.362 147.764 351.195 147.317 351.195C146.837 351.195 146.442 351.37 146.129 351.719C145.817 352.068 145.663 352.542 145.668 353.141H148.949Z" fill="#001AA7"/>
<path d="M159.513 358H157.318V353.766C157.318 352.87 157.271 352.292 157.177 352.031C157.083 351.766 156.929 351.56 156.716 351.414C156.508 351.268 156.255 351.195 155.958 351.195C155.578 351.195 155.237 351.299 154.935 351.508C154.633 351.716 154.424 351.992 154.31 352.336C154.2 352.68 154.146 353.315 154.146 354.242V358H151.95V349.703H153.989V350.922C154.713 349.984 155.625 349.516 156.724 349.516C157.208 349.516 157.651 349.604 158.052 349.781C158.453 349.953 158.755 350.174 158.958 350.445C159.166 350.716 159.31 351.023 159.388 351.367C159.471 351.711 159.513 352.203 159.513 352.844V358Z" fill="#001AA7"/>
<path d="M168.022 352.156L165.858 352.547C165.785 352.115 165.618 351.789 165.358 351.57C165.102 351.352 164.769 351.242 164.358 351.242C163.811 351.242 163.373 351.432 163.045 351.812C162.722 352.188 162.561 352.818 162.561 353.703C162.561 354.688 162.725 355.383 163.053 355.789C163.386 356.195 163.831 356.398 164.389 356.398C164.805 356.398 165.147 356.281 165.412 356.047C165.678 355.807 165.865 355.398 165.975 354.82L168.131 355.188C167.907 356.177 167.477 356.924 166.842 357.43C166.206 357.935 165.355 358.188 164.287 358.188C163.074 358.188 162.105 357.805 161.381 357.039C160.662 356.273 160.303 355.214 160.303 353.859C160.303 352.49 160.665 351.424 161.389 350.664C162.113 349.898 163.092 349.516 164.326 349.516C165.337 349.516 166.139 349.734 166.733 350.172C167.331 350.604 167.761 351.266 168.022 352.156Z" fill="#001AA7"/>
<path d="M173.538 355.359L175.726 355.727C175.444 356.529 174.999 357.141 174.39 357.562C173.786 357.979 173.028 358.188 172.116 358.188C170.674 358.188 169.606 357.716 168.913 356.773C168.366 356.018 168.093 355.065 168.093 353.914C168.093 352.539 168.452 351.464 169.171 350.688C169.89 349.906 170.799 349.516 171.898 349.516C173.132 349.516 174.106 349.924 174.819 350.742C175.533 351.555 175.874 352.802 175.843 354.484H170.343C170.358 355.135 170.536 355.643 170.874 356.008C171.213 356.367 171.634 356.547 172.14 356.547C172.483 356.547 172.773 356.453 173.007 356.266C173.241 356.078 173.418 355.776 173.538 355.359ZM173.663 353.141C173.648 352.505 173.483 352.023 173.171 351.695C172.858 351.362 172.478 351.195 172.03 351.195C171.551 351.195 171.155 351.37 170.843 351.719C170.53 352.068 170.377 352.542 170.382 353.141H173.663Z" fill="#001AA7"/>
<path d="M175.906 355.633L178.109 355.297C178.203 355.724 178.393 356.049 178.68 356.273C178.966 356.492 179.367 356.602 179.883 356.602C180.451 356.602 180.878 356.497 181.164 356.289C181.357 356.143 181.453 355.948 181.453 355.703C181.453 355.536 181.401 355.398 181.297 355.289C181.188 355.185 180.943 355.089 180.563 355C178.792 354.609 177.669 354.253 177.195 353.93C176.539 353.482 176.211 352.859 176.211 352.062C176.211 351.344 176.495 350.74 177.063 350.25C177.63 349.76 178.51 349.516 179.703 349.516C180.839 349.516 181.682 349.701 182.234 350.07C182.786 350.44 183.167 350.987 183.375 351.711L181.305 352.094C181.216 351.771 181.047 351.523 180.797 351.352C180.552 351.18 180.201 351.094 179.742 351.094C179.164 351.094 178.75 351.174 178.5 351.336C178.333 351.451 178.25 351.599 178.25 351.781C178.25 351.938 178.323 352.07 178.469 352.18C178.667 352.326 179.349 352.531 180.516 352.797C181.688 353.062 182.505 353.388 182.969 353.773C183.427 354.164 183.656 354.708 183.656 355.406C183.656 356.167 183.339 356.82 182.703 357.367C182.068 357.914 181.128 358.188 179.883 358.188C178.753 358.188 177.857 357.958 177.195 357.5C176.539 357.042 176.109 356.419 175.906 355.633Z" fill="#001AA7"/>
<path d="M184.571 355.805H186.767V357.375C186.767 358.01 186.712 358.51 186.603 358.875C186.493 359.245 186.285 359.576 185.978 359.867C185.675 360.159 185.29 360.388 184.821 360.555L184.392 359.648C184.834 359.503 185.149 359.302 185.337 359.047C185.524 358.792 185.623 358.443 185.634 358H184.571V355.805Z" fill="#001AA7"/>
<path d="M191.636 346.547H196.214C197.12 346.547 197.794 346.586 198.237 346.664C198.685 346.737 199.084 346.893 199.433 347.133C199.787 347.372 200.081 347.693 200.315 348.094C200.55 348.49 200.667 348.935 200.667 349.43C200.667 349.966 200.521 350.458 200.229 350.906C199.943 351.354 199.552 351.69 199.058 351.914C199.755 352.117 200.292 352.464 200.667 352.953C201.042 353.443 201.229 354.018 201.229 354.68C201.229 355.201 201.107 355.708 200.862 356.203C200.623 356.693 200.292 357.086 199.87 357.383C199.453 357.674 198.938 357.854 198.323 357.922C197.938 357.964 197.008 357.99 195.534 358H191.636V346.547ZM193.948 348.453V351.102H195.464C196.365 351.102 196.925 351.089 197.143 351.062C197.539 351.016 197.849 350.88 198.073 350.656C198.302 350.427 198.417 350.128 198.417 349.758C198.417 349.404 198.318 349.117 198.12 348.898C197.927 348.674 197.638 348.539 197.253 348.492C197.024 348.466 196.365 348.453 195.276 348.453H193.948ZM193.948 353.008V356.07H196.089C196.922 356.07 197.451 356.047 197.675 356C198.018 355.938 198.297 355.786 198.511 355.547C198.729 355.302 198.839 354.977 198.839 354.57C198.839 354.227 198.755 353.935 198.589 353.695C198.422 353.456 198.18 353.281 197.862 353.172C197.55 353.062 196.867 353.008 195.815 353.008H193.948Z" fill="#001AA7"/>
<path d="M207.676 358V356.758C207.374 357.201 206.975 357.549 206.48 357.805C205.991 358.06 205.473 358.188 204.926 358.188C204.368 358.188 203.868 358.065 203.426 357.82C202.983 357.576 202.663 357.232 202.465 356.789C202.267 356.346 202.168 355.734 202.168 354.953V349.703H204.363V353.516C204.363 354.682 204.402 355.398 204.48 355.664C204.564 355.924 204.712 356.133 204.926 356.289C205.139 356.44 205.41 356.516 205.738 356.516C206.113 356.516 206.449 356.414 206.746 356.211C207.043 356.003 207.246 355.747 207.355 355.445C207.465 355.138 207.519 354.391 207.519 353.203V349.703H209.715V358H207.676Z" fill="#001AA7"/>
<path d="M211.036 348.578V346.547H213.231V348.578H211.036ZM211.036 358V349.703H213.231V358H211.036Z" fill="#001AA7"/>
<path d="M214.529 358V346.547H216.724V358H214.529Z" fill="#001AA7"/>
<path d="M225.632 358H223.593V356.781C223.254 357.255 222.853 357.609 222.389 357.844C221.931 358.073 221.468 358.188 220.999 358.188C220.046 358.188 219.228 357.805 218.546 357.039C217.869 356.268 217.53 355.195 217.53 353.82C217.53 352.414 217.861 351.346 218.522 350.617C219.184 349.883 220.02 349.516 221.03 349.516C221.957 349.516 222.759 349.901 223.436 350.672V346.547H225.632V358ZM219.772 353.672C219.772 354.557 219.895 355.198 220.139 355.594C220.494 356.167 220.988 356.453 221.624 356.453C222.129 356.453 222.559 356.24 222.913 355.812C223.267 355.38 223.444 354.737 223.444 353.883C223.444 352.93 223.272 352.245 222.928 351.828C222.585 351.406 222.145 351.195 221.608 351.195C221.087 351.195 220.65 351.404 220.296 351.82C219.947 352.232 219.772 352.849 219.772 353.672Z" fill="#001AA7"/>
<path d="M226.843 348.578V346.547H229.039V348.578H226.843ZM226.843 358V349.703H229.039V358H226.843Z" fill="#001AA7"/>
<path d="M237.883 358H235.688V353.766C235.688 352.87 235.641 352.292 235.548 352.031C235.454 351.766 235.3 351.56 235.087 351.414C234.878 351.268 234.626 351.195 234.329 351.195C233.949 351.195 233.607 351.299 233.305 351.508C233.003 351.716 232.795 351.992 232.68 352.336C232.571 352.68 232.516 353.315 232.516 354.242V358H230.321V349.703H232.36V350.922C233.084 349.984 233.995 349.516 235.094 349.516C235.579 349.516 236.021 349.604 236.423 349.781C236.824 349.953 237.126 350.174 237.329 350.445C237.537 350.716 237.68 351.023 237.758 351.367C237.842 351.711 237.883 352.203 237.883 352.844V358Z" fill="#001AA7"/>
<path d="M238.955 358.547L241.463 358.852C241.504 359.143 241.601 359.344 241.752 359.453C241.96 359.609 242.288 359.688 242.736 359.688C243.309 359.688 243.739 359.602 244.025 359.43C244.218 359.315 244.364 359.13 244.463 358.875C244.53 358.693 244.564 358.357 244.564 357.867V356.656C243.908 357.552 243.08 358 242.08 358C240.965 358 240.082 357.529 239.431 356.586C238.921 355.841 238.666 354.914 238.666 353.805C238.666 352.414 238.999 351.352 239.666 350.617C240.338 349.883 241.171 349.516 242.166 349.516C243.192 349.516 244.038 349.966 244.705 350.867V349.703H246.759V357.148C246.759 358.128 246.679 358.859 246.517 359.344C246.356 359.828 246.129 360.208 245.838 360.484C245.546 360.76 245.155 360.977 244.666 361.133C244.181 361.289 243.567 361.367 242.822 361.367C241.416 361.367 240.418 361.125 239.83 360.641C239.241 360.161 238.947 359.552 238.947 358.812C238.947 358.74 238.949 358.651 238.955 358.547ZM240.916 353.68C240.916 354.56 241.085 355.206 241.423 355.617C241.767 356.023 242.189 356.227 242.689 356.227C243.226 356.227 243.679 356.018 244.048 355.602C244.418 355.18 244.603 354.557 244.603 353.734C244.603 352.875 244.426 352.237 244.072 351.82C243.718 351.404 243.27 351.195 242.728 351.195C242.202 351.195 241.767 351.401 241.423 351.812C241.085 352.219 240.916 352.841 240.916 353.68Z" fill="#001AA7"/>
<path d="M250.902 354.273L253.152 354.055C253.287 354.81 253.561 355.365 253.972 355.719C254.389 356.073 254.949 356.25 255.652 356.25C256.397 356.25 256.957 356.094 257.332 355.781C257.712 355.464 257.902 355.094 257.902 354.672C257.902 354.401 257.821 354.172 257.66 353.984C257.503 353.792 257.227 353.625 256.832 353.484C256.561 353.391 255.944 353.224 254.98 352.984C253.74 352.677 252.871 352.299 252.371 351.852C251.668 351.221 251.316 350.453 251.316 349.547C251.316 348.964 251.48 348.419 251.808 347.914C252.141 347.404 252.618 347.016 253.238 346.75C253.863 346.484 254.615 346.352 255.496 346.352C256.933 346.352 258.014 346.667 258.738 347.297C259.467 347.927 259.85 348.768 259.886 349.82L257.574 349.922C257.475 349.333 257.261 348.911 256.933 348.656C256.61 348.396 256.123 348.266 255.472 348.266C254.8 348.266 254.274 348.404 253.894 348.68C253.649 348.857 253.527 349.094 253.527 349.391C253.527 349.661 253.641 349.893 253.871 350.086C254.162 350.331 254.871 350.586 255.996 350.852C257.121 351.117 257.951 351.393 258.488 351.68C259.029 351.961 259.451 352.349 259.753 352.844C260.061 353.333 260.214 353.94 260.214 354.664C260.214 355.32 260.032 355.935 259.668 356.508C259.303 357.081 258.787 357.508 258.121 357.789C257.454 358.065 256.623 358.203 255.628 358.203C254.181 358.203 253.069 357.87 252.293 357.203C251.516 356.531 251.053 355.555 250.902 354.273Z" fill="#001AA7"/>
<path d="M260.676 353.734C260.676 353.005 260.856 352.299 261.215 351.617C261.575 350.935 262.083 350.414 262.739 350.055C263.4 349.695 264.137 349.516 264.95 349.516C266.205 349.516 267.234 349.924 268.036 350.742C268.838 351.555 269.239 352.583 269.239 353.828C269.239 355.083 268.833 356.125 268.02 356.953C267.213 357.776 266.194 358.188 264.965 358.188C264.205 358.188 263.478 358.016 262.786 357.672C262.098 357.328 261.575 356.826 261.215 356.164C260.856 355.497 260.676 354.688 260.676 353.734ZM262.926 353.852C262.926 354.674 263.122 355.305 263.512 355.742C263.903 356.18 264.385 356.398 264.958 356.398C265.53 356.398 266.01 356.18 266.395 355.742C266.786 355.305 266.981 354.669 266.981 353.836C266.981 353.023 266.786 352.398 266.395 351.961C266.01 351.523 265.53 351.305 264.958 351.305C264.385 351.305 263.903 351.523 263.512 351.961C263.122 352.398 262.926 353.029 262.926 353.852Z" fill="#001AA7"/>
<path d="M270.005 358V346.547H272.201V358H270.005Z" fill="#001AA7"/>
<path d="M278.959 358V356.758C278.657 357.201 278.259 357.549 277.764 357.805C277.274 358.06 276.756 358.188 276.209 358.188C275.652 358.188 275.152 358.065 274.709 357.82C274.267 357.576 273.946 357.232 273.748 356.789C273.551 356.346 273.452 355.734 273.452 354.953V349.703H275.647V353.516C275.647 354.682 275.686 355.398 275.764 355.664C275.847 355.924 275.996 356.133 276.209 356.289C276.423 356.44 276.694 356.516 277.022 356.516C277.397 356.516 277.733 356.414 278.03 356.211C278.327 356.003 278.53 355.747 278.639 355.445C278.748 355.138 278.803 354.391 278.803 353.203V349.703H280.998V358H278.959Z" fill="#001AA7"/>
<path d="M286.124 349.703V351.453H284.624V354.797C284.624 355.474 284.637 355.87 284.663 355.984C284.695 356.094 284.76 356.185 284.859 356.258C284.963 356.331 285.088 356.367 285.234 356.367C285.437 356.367 285.731 356.297 286.117 356.156L286.304 357.859C285.794 358.078 285.216 358.188 284.57 358.188C284.174 358.188 283.817 358.122 283.499 357.992C283.182 357.857 282.947 357.685 282.796 357.477C282.65 357.263 282.549 356.977 282.492 356.617C282.445 356.362 282.421 355.846 282.421 355.07V351.453H281.413V349.703H282.421V348.055L284.624 346.773V349.703H286.124Z" fill="#001AA7"/>
<path d="M286.688 348.578V346.547H288.883V348.578H286.688ZM286.688 358V349.703H288.883V358H286.688Z" fill="#001AA7"/>
<path d="M289.673 353.734C289.673 353.005 289.853 352.299 290.212 351.617C290.572 350.935 291.079 350.414 291.736 350.055C292.397 349.695 293.134 349.516 293.947 349.516C295.202 349.516 296.23 349.924 297.032 350.742C297.835 351.555 298.236 352.583 298.236 353.828C298.236 355.083 297.829 356.125 297.017 356.953C296.21 357.776 295.191 358.188 293.962 358.188C293.202 358.188 292.475 358.016 291.782 357.672C291.095 357.328 290.572 356.826 290.212 356.164C289.853 355.497 289.673 354.688 289.673 353.734ZM291.923 353.852C291.923 354.674 292.118 355.305 292.509 355.742C292.9 356.18 293.381 356.398 293.954 356.398C294.527 356.398 295.006 356.18 295.392 355.742C295.782 355.305 295.978 354.669 295.978 353.836C295.978 353.023 295.782 352.398 295.392 351.961C295.006 351.523 294.527 351.305 293.954 351.305C293.381 351.305 292.9 351.523 292.509 351.961C292.118 352.398 291.923 353.029 291.923 353.852Z" fill="#001AA7"/>
<path d="M306.549 358H304.354V353.766C304.354 352.87 304.307 352.292 304.213 352.031C304.119 351.766 303.966 351.56 303.752 351.414C303.544 351.268 303.291 351.195 302.994 351.195C302.614 351.195 302.273 351.299 301.971 351.508C301.669 351.716 301.461 351.992 301.346 352.336C301.237 352.68 301.182 353.315 301.182 354.242V358H298.987V349.703H301.026V350.922C301.75 349.984 302.661 349.516 303.76 349.516C304.244 349.516 304.687 349.604 305.088 349.781C305.489 349.953 305.791 350.174 305.994 350.445C306.203 350.716 306.346 351.023 306.424 351.367C306.507 351.711 306.549 352.203 306.549 352.844V358Z" fill="#001AA7"/>
<path d="M307.05 355.633L309.253 355.297C309.347 355.724 309.537 356.049 309.823 356.273C310.11 356.492 310.511 356.602 311.027 356.602C311.594 356.602 312.021 356.497 312.308 356.289C312.501 356.143 312.597 355.948 312.597 355.703C312.597 355.536 312.545 355.398 312.441 355.289C312.331 355.185 312.086 355.089 311.706 355C309.935 354.609 308.813 354.253 308.339 353.93C307.683 353.482 307.355 352.859 307.355 352.062C307.355 351.344 307.639 350.74 308.206 350.25C308.774 349.76 309.654 349.516 310.847 349.516C311.982 349.516 312.826 349.701 313.378 350.07C313.93 350.44 314.31 350.987 314.519 351.711L312.448 352.094C312.36 351.771 312.191 351.523 311.941 351.352C311.696 351.18 311.344 351.094 310.886 351.094C310.308 351.094 309.894 351.174 309.644 351.336C309.477 351.451 309.394 351.599 309.394 351.781C309.394 351.938 309.467 352.07 309.612 352.18C309.81 352.326 310.493 352.531 311.659 352.797C312.831 353.062 313.649 353.388 314.112 353.773C314.571 354.164 314.8 354.708 314.8 355.406C314.8 356.167 314.482 356.82 313.847 357.367C313.211 357.914 312.271 358.188 311.027 358.188C309.896 358.188 309.001 357.958 308.339 357.5C307.683 357.042 307.253 356.419 307.05 355.633Z" fill="#001AA7"/>
<path d="M28.575 346.547H32.8016C33.7547 346.547 34.4813 346.62 34.9813 346.766C35.6531 346.964 36.2287 347.315 36.7078 347.82C37.187 348.326 37.5516 348.945 37.8016 349.68C38.0516 350.409 38.1766 351.31 38.1766 352.383C38.1766 353.326 38.0594 354.138 37.825 354.82C37.5386 355.654 37.1297 356.328 36.5984 356.844C36.1974 357.234 35.6557 357.539 34.9734 357.758C34.463 357.919 33.7807 358 32.9266 358H28.575V346.547ZM30.8875 348.484V356.07H32.6141C33.2599 356.07 33.7261 356.034 34.0125 355.961C34.3875 355.867 34.6974 355.708 34.9422 355.484C35.1922 355.26 35.3953 354.893 35.5516 354.383C35.7078 353.867 35.7859 353.167 35.7859 352.281C35.7859 351.396 35.7078 350.716 35.5516 350.242C35.3953 349.768 35.1766 349.398 34.8953 349.133C34.6141 348.867 34.2573 348.688 33.825 348.594C33.5021 348.521 32.8693 348.484 31.9266 348.484H30.8875Z" stroke="#001AA7" stroke-width="0.5" mask="url(#path-4-outside-1_41_88)"/>
<path d="M43.9744 355.359L46.1619 355.727C45.8806 356.529 45.4353 357.141 44.826 357.562C44.2218 357.979 43.464 358.188 42.5525 358.188C41.1098 358.188 40.0421 357.716 39.3494 356.773C38.8025 356.018 38.5291 355.065 38.5291 353.914C38.5291 352.539 38.8884 351.464 39.6072 350.688C40.3259 349.906 41.2348 349.516 42.3338 349.516C43.5681 349.516 44.5421 349.924 45.2556 350.742C45.9692 351.555 46.3103 352.802 46.2791 354.484H40.7791C40.7947 355.135 40.9718 355.643 41.3103 356.008C41.6489 356.367 42.0707 356.547 42.5759 356.547C42.9197 356.547 43.2088 356.453 43.4431 356.266C43.6775 356.078 43.8546 355.776 43.9744 355.359ZM44.0994 353.141C44.0838 352.505 43.9197 352.023 43.6072 351.695C43.2947 351.362 42.9145 351.195 42.4666 351.195C41.9874 351.195 41.5916 351.37 41.2791 351.719C40.9666 352.068 40.8129 352.542 40.8181 353.141H44.0994Z" stroke="#001AA7" stroke-width="0.5" mask="url(#path-4-outside-1_41_88)"/>
<path d="M46.3425 355.633L48.5456 355.297C48.6394 355.724 48.8295 356.049 49.1159 356.273C49.4024 356.492 49.8034 356.602 50.3191 356.602C50.8868 356.602 51.3139 356.497 51.6003 356.289C51.793 356.143 51.8894 355.948 51.8894 355.703C51.8894 355.536 51.8373 355.398 51.7331 355.289C51.6238 355.185 51.379 355.089 50.9988 355C49.2279 354.609 48.1055 354.253 47.6316 353.93C46.9753 353.482 46.6472 352.859 46.6472 352.062C46.6472 351.344 46.9311 350.74 47.4988 350.25C48.0665 349.76 48.9467 349.516 50.1394 349.516C51.2748 349.516 52.1186 349.701 52.6706 350.07C53.2227 350.44 53.6029 350.987 53.8113 351.711L51.7409 352.094C51.6524 351.771 51.4831 351.523 51.2331 351.352C50.9883 351.18 50.6368 351.094 50.1784 351.094C49.6003 351.094 49.1863 351.174 48.9363 351.336C48.7696 351.451 48.6863 351.599 48.6863 351.781C48.6863 351.938 48.7592 352.07 48.905 352.18C49.1029 352.326 49.7852 352.531 50.9519 352.797C52.1238 353.062 52.9415 353.388 53.405 353.773C53.8633 354.164 54.0925 354.708 54.0925 355.406C54.0925 356.167 53.7748 356.82 53.1394 357.367C52.504 357.914 51.5639 358.188 50.3191 358.188C49.1889 358.188 48.293 357.958 47.6316 357.5C46.9753 357.042 46.5456 356.419 46.3425 355.633Z" stroke="#001AA7" stroke-width="0.5" mask="url(#path-4-outside-1_41_88)"/>
<path d="M55.0622 348.578V346.547H57.2575V348.578H55.0622ZM55.0622 358V349.703H57.2575V358H55.0622Z" stroke="#001AA7" stroke-width="0.5" mask="url(#path-4-outside-1_41_88)"/>
<path d="M58.3522 358.547L60.86 358.852C60.9017 359.143 60.998 359.344 61.1491 359.453C61.3574 359.609 61.6855 359.688 62.1334 359.688C62.7064 359.688 63.1361 359.602 63.4225 359.43C63.6152 359.315 63.7611 359.13 63.86 358.875C63.9277 358.693 63.9616 358.357 63.9616 357.867V356.656C63.3053 357.552 62.4772 358 61.4772 358C60.3626 358 59.4798 357.529 58.8288 356.586C58.3183 355.841 58.0631 354.914 58.0631 353.805C58.0631 352.414 58.3965 351.352 59.0631 350.617C59.735 349.883 60.5683 349.516 61.5631 349.516C62.5892 349.516 63.4355 349.966 64.1022 350.867V349.703H66.1569V357.148C66.1569 358.128 66.0762 358.859 65.9147 359.344C65.7532 359.828 65.5267 360.208 65.235 360.484C64.9433 360.76 64.5527 360.977 64.0631 361.133C63.5788 361.289 62.9642 361.367 62.2194 361.367C60.8131 361.367 59.8157 361.125 59.2272 360.641C58.6387 360.161 58.3444 359.552 58.3444 358.812C58.3444 358.74 58.347 358.651 58.3522 358.547ZM60.3131 353.68C60.3131 354.56 60.4824 355.206 60.8209 355.617C61.1647 356.023 61.5866 356.227 62.0866 356.227C62.623 356.227 63.0762 356.018 63.4459 355.602C63.8157 355.18 64.0006 354.557 64.0006 353.734C64.0006 352.875 63.8236 352.237 63.4694 351.82C63.1152 351.404 62.6673 351.195 62.1256 351.195C61.5996 351.195 61.1647 351.401 60.8209 351.812C60.4824 352.219 60.3131 352.841 60.3131 353.68Z" stroke="#001AA7" stroke-width="0.5" mask="url(#path-4-outside-1_41_88)"/>
<path d="M74.9235 358H72.7281V353.766C72.7281 352.87 72.6813 352.292 72.5875 352.031C72.4938 351.766 72.3401 351.56 72.1266 351.414C71.9182 351.268 71.6656 351.195 71.3688 351.195C70.9886 351.195 70.6474 351.299 70.3453 351.508C70.0432 351.716 69.8349 351.992 69.7203 352.336C69.611 352.68 69.5563 353.315 69.5563 354.242V358H67.361V349.703H69.4V350.922C70.124 349.984 71.0354 349.516 72.1344 349.516C72.6188 349.516 73.0615 349.604 73.4625 349.781C73.8636 349.953 74.1656 350.174 74.3688 350.445C74.5771 350.716 74.7203 351.023 74.7985 351.367C74.8818 351.711 74.9235 352.203 74.9235 352.844V358Z" stroke="#001AA7" stroke-width="0.5" mask="url(#path-4-outside-1_41_88)"/>
<path d="M76.1978 348.578V346.547H78.3931V348.578H76.1978ZM76.1978 358V349.703H78.3931V358H76.1978Z" stroke="#001AA7" stroke-width="0.5" mask="url(#path-4-outside-1_41_88)"/>
<path d="M87.2378 358H85.0425V353.766C85.0425 352.87 84.9956 352.292 84.9019 352.031C84.8081 351.766 84.6545 351.56 84.4409 351.414C84.2326 351.268 83.98 351.195 83.6831 351.195C83.3029 351.195 82.9618 351.299 82.6597 351.508C82.3576 351.716 82.1493 351.992 82.0347 352.336C81.9253 352.68 81.8706 353.315 81.8706 354.242V358H79.6753V349.703H81.7144V350.922C82.4383 349.984 83.3498 349.516 84.4488 349.516C84.9331 349.516 85.3758 349.604 85.7769 349.781C86.1779 349.953 86.48 350.174 86.6831 350.445C86.8915 350.716 87.0347 351.023 87.1128 351.367C87.1962 351.711 87.2378 352.203 87.2378 352.844V358Z" stroke="#001AA7" stroke-width="0.5" mask="url(#path-4-outside-1_41_88)"/>
<path d="M88.3091 358.547L90.8169 358.852C90.8586 359.143 90.9549 359.344 91.1059 359.453C91.3143 359.609 91.6424 359.688 92.0903 359.688C92.6632 359.688 93.0929 359.602 93.3794 359.43C93.5721 359.315 93.7179 359.13 93.8169 358.875C93.8846 358.693 93.9184 358.357 93.9184 357.867V356.656C93.2622 357.552 92.4341 358 91.4341 358C90.3195 358 89.4367 357.529 88.7856 356.586C88.2752 355.841 88.02 354.914 88.02 353.805C88.02 352.414 88.3533 351.352 89.02 350.617C89.6919 349.883 90.5252 349.516 91.52 349.516C92.5461 349.516 93.3924 349.966 94.0591 350.867V349.703H96.1138V357.148C96.1138 358.128 96.033 358.859 95.8716 359.344C95.7101 359.828 95.4836 360.208 95.1919 360.484C94.9002 360.76 94.5096 360.977 94.02 361.133C93.5356 361.289 92.9211 361.367 92.1763 361.367C90.77 361.367 89.7726 361.125 89.1841 360.641C88.5955 360.161 88.3013 359.552 88.3013 358.812C88.3013 358.74 88.3039 358.651 88.3091 358.547ZM90.27 353.68C90.27 354.56 90.4393 355.206 90.7778 355.617C91.1216 356.023 91.5434 356.227 92.0434 356.227C92.5799 356.227 93.033 356.018 93.4028 355.602C93.7726 355.18 93.9575 354.557 93.9575 353.734C93.9575 352.875 93.7804 352.237 93.4263 351.82C93.0721 351.404 92.6242 351.195 92.0825 351.195C91.5565 351.195 91.1216 351.401 90.7778 351.812C90.4393 352.219 90.27 352.841 90.27 353.68Z" stroke="#001AA7" stroke-width="0.5" mask="url(#path-4-outside-1_41_88)"/>
<path d="M100.842 358V346.547H109.334V348.484H103.155V351.023H108.905V352.953H103.155V356.07H109.553V358H100.842Z" stroke="#001AA7" stroke-width="0.5" mask="url(#path-4-outside-1_41_88)"/>
<path d="M109.484 358L112.476 353.727L109.609 349.703H112.288L113.757 351.984L115.304 349.703H117.882L115.07 353.633L118.14 358H115.445L113.757 355.43L112.054 358H109.484Z" stroke="#001AA7" stroke-width="0.5" mask="url(#path-4-outside-1_41_88)"/>
<path d="M118.422 349.703H120.469V350.922C120.735 350.505 121.094 350.167 121.547 349.906C122 349.646 122.503 349.516 123.055 349.516C124.019 349.516 124.836 349.893 125.508 350.648C126.18 351.404 126.516 352.456 126.516 353.805C126.516 355.19 126.177 356.268 125.5 357.039C124.823 357.805 124.003 358.188 123.039 358.188C122.581 358.188 122.164 358.096 121.789 357.914C121.42 357.732 121.029 357.419 120.618 356.977V361.156H118.422V349.703ZM120.594 353.711C120.594 354.643 120.779 355.333 121.149 355.781C121.519 356.224 121.969 356.445 122.5 356.445C123.011 356.445 123.435 356.242 123.774 355.836C124.112 355.424 124.282 354.753 124.282 353.82C124.282 352.951 124.107 352.305 123.758 351.883C123.409 351.461 122.977 351.25 122.461 351.25C121.925 351.25 121.479 351.458 121.125 351.875C120.771 352.286 120.594 352.898 120.594 353.711Z" stroke="#001AA7" stroke-width="0.5" mask="url(#path-4-outside-1_41_88)"/>
<path d="M132.111 355.359L134.298 355.727C134.017 356.529 133.572 357.141 132.962 357.562C132.358 357.979 131.6 358.188 130.689 358.188C129.246 358.188 128.178 357.716 127.486 356.773C126.939 356.018 126.665 355.065 126.665 353.914C126.665 352.539 127.025 351.464 127.743 350.688C128.462 349.906 129.371 349.516 130.47 349.516C131.704 349.516 132.678 349.924 133.392 350.742C134.105 351.555 134.447 352.802 134.415 354.484H128.915C128.931 355.135 129.108 355.643 129.447 356.008C129.785 356.367 130.207 356.547 130.712 356.547C131.056 356.547 131.345 356.453 131.579 356.266C131.814 356.078 131.991 355.776 132.111 355.359ZM132.236 353.141C132.22 352.505 132.056 352.023 131.743 351.695C131.431 351.362 131.051 351.195 130.603 351.195C130.124 351.195 129.728 351.37 129.415 351.719C129.103 352.068 128.949 352.542 128.954 353.141H132.236Z" stroke="#001AA7" stroke-width="0.5" mask="url(#path-4-outside-1_41_88)"/>
<path d="M137.354 358H135.158V349.703H137.198V350.883C137.546 350.326 137.859 349.958 138.135 349.781C138.416 349.604 138.734 349.516 139.088 349.516C139.588 349.516 140.07 349.654 140.533 349.93L139.854 351.844C139.484 351.604 139.14 351.484 138.823 351.484C138.515 351.484 138.255 351.57 138.041 351.742C137.828 351.909 137.658 352.214 137.533 352.656C137.414 353.099 137.354 354.026 137.354 355.438V358Z" stroke="#001AA7" stroke-width="0.5" mask="url(#path-4-outside-1_41_88)"/>
<path d="M140.527 348.578V346.547H142.722V348.578H140.527ZM140.527 358V349.703H142.722V358H140.527Z" stroke="#001AA7" stroke-width="0.5" mask="url(#path-4-outside-1_41_88)"/>
<path d="M148.824 355.359L151.012 355.727C150.731 356.529 150.285 357.141 149.676 357.562C149.072 357.979 148.314 358.188 147.403 358.188C145.96 358.188 144.892 357.716 144.199 356.773C143.653 356.018 143.379 355.065 143.379 353.914C143.379 352.539 143.738 351.464 144.457 350.688C145.176 349.906 146.085 349.516 147.184 349.516C148.418 349.516 149.392 349.924 150.106 350.742C150.819 351.555 151.16 352.802 151.129 354.484H145.629C145.645 355.135 145.822 355.643 146.16 356.008C146.499 356.367 146.921 356.547 147.426 356.547C147.77 356.547 148.059 356.453 148.293 356.266C148.528 356.078 148.705 355.776 148.824 355.359ZM148.949 353.141C148.934 352.505 148.77 352.023 148.457 351.695C148.145 351.362 147.764 351.195 147.317 351.195C146.837 351.195 146.442 351.37 146.129 351.719C145.817 352.068 145.663 352.542 145.668 353.141H148.949Z" stroke="#001AA7" stroke-width="0.5" mask="url(#path-4-outside-1_41_88)"/>
<path d="M159.513 358H157.318V353.766C157.318 352.87 157.271 352.292 157.177 352.031C157.083 351.766 156.929 351.56 156.716 351.414C156.508 351.268 156.255 351.195 155.958 351.195C155.578 351.195 155.237 351.299 154.935 351.508C154.633 351.716 154.424 351.992 154.31 352.336C154.2 352.68 154.146 353.315 154.146 354.242V358H151.95V349.703H153.989V350.922C154.713 349.984 155.625 349.516 156.724 349.516C157.208 349.516 157.651 349.604 158.052 349.781C158.453 349.953 158.755 350.174 158.958 350.445C159.166 350.716 159.31 351.023 159.388 351.367C159.471 351.711 159.513 352.203 159.513 352.844V358Z" stroke="#001AA7" stroke-width="0.5" mask="url(#path-4-outside-1_41_88)"/>
<path d="M168.022 352.156L165.858 352.547C165.785 352.115 165.618 351.789 165.358 351.57C165.102 351.352 164.769 351.242 164.358 351.242C163.811 351.242 163.373 351.432 163.045 351.812C162.722 352.188 162.561 352.818 162.561 353.703C162.561 354.688 162.725 355.383 163.053 355.789C163.386 356.195 163.831 356.398 164.389 356.398C164.805 356.398 165.147 356.281 165.412 356.047C165.678 355.807 165.865 355.398 165.975 354.82L168.131 355.188C167.907 356.177 167.477 356.924 166.842 357.43C166.206 357.935 165.355 358.188 164.287 358.188C163.074 358.188 162.105 357.805 161.381 357.039C160.662 356.273 160.303 355.214 160.303 353.859C160.303 352.49 160.665 351.424 161.389 350.664C162.113 349.898 163.092 349.516 164.326 349.516C165.337 349.516 166.139 349.734 166.733 350.172C167.331 350.604 167.761 351.266 168.022 352.156Z" stroke="#001AA7" stroke-width="0.5" mask="url(#path-4-outside-1_41_88)"/>
<path d="M173.538 355.359L175.726 355.727C175.444 356.529 174.999 357.141 174.39 357.562C173.786 357.979 173.028 358.188 172.116 358.188C170.674 358.188 169.606 357.716 168.913 356.773C168.366 356.018 168.093 355.065 168.093 353.914C168.093 352.539 168.452 351.464 169.171 350.688C169.89 349.906 170.799 349.516 171.898 349.516C173.132 349.516 174.106 349.924 174.819 350.742C175.533 351.555 175.874 352.802 175.843 354.484H170.343C170.358 355.135 170.536 355.643 170.874 356.008C171.213 356.367 171.634 356.547 172.14 356.547C172.483 356.547 172.773 356.453 173.007 356.266C173.241 356.078 173.418 355.776 173.538 355.359ZM173.663 353.141C173.648 352.505 173.483 352.023 173.171 351.695C172.858 351.362 172.478 351.195 172.03 351.195C171.551 351.195 171.155 351.37 170.843 351.719C170.53 352.068 170.377 352.542 170.382 353.141H173.663Z" stroke="#001AA7" stroke-width="0.5" mask="url(#path-4-outside-1_41_88)"/>
<path d="M175.906 355.633L178.109 355.297C178.203 355.724 178.393 356.049 178.68 356.273C178.966 356.492 179.367 356.602 179.883 356.602C180.451 356.602 180.878 356.497 181.164 356.289C181.357 356.143 181.453 355.948 181.453 355.703C181.453 355.536 181.401 355.398 181.297 355.289C181.188 355.185 180.943 355.089 180.563 355C178.792 354.609 177.669 354.253 177.195 353.93C176.539 353.482 176.211 352.859 176.211 352.062C176.211 351.344 176.495 350.74 177.063 350.25C177.63 349.76 178.51 349.516 179.703 349.516C180.839 349.516 181.682 349.701 182.234 350.07C182.786 350.44 183.167 350.987 183.375 351.711L181.305 352.094C181.216 351.771 181.047 351.523 180.797 351.352C180.552 351.18 180.201 351.094 179.742 351.094C179.164 351.094 178.75 351.174 178.5 351.336C178.333 351.451 178.25 351.599 178.25 351.781C178.25 351.938 178.323 352.07 178.469 352.18C178.667 352.326 179.349 352.531 180.516 352.797C181.688 353.062 182.505 353.388 182.969 353.773C183.427 354.164 183.656 354.708 183.656 355.406C183.656 356.167 183.339 356.82 182.703 357.367C182.068 357.914 181.128 358.188 179.883 358.188C178.753 358.188 177.857 357.958 177.195 357.5C176.539 357.042 176.109 356.419 175.906 355.633Z" stroke="#001AA7" stroke-width="0.5" mask="url(#path-4-outside-1_41_88)"/>
<path d="M184.571 355.805H186.767V357.375C186.767 358.01 186.712 358.51 186.603 358.875C186.493 359.245 186.285 359.576 185.978 359.867C185.675 360.159 185.29 360.388 184.821 360.555L184.392 359.648C184.834 359.503 185.149 359.302 185.337 359.047C185.524 358.792 185.623 358.443 185.634 358H184.571V355.805Z" stroke="#001AA7" stroke-width="0.5" mask="url(#path-4-outside-1_41_88)"/>
<path d="M191.636 346.547H196.214C197.12 346.547 197.794 346.586 198.237 346.664C198.685 346.737 199.084 346.893 199.433 347.133C199.787 347.372 200.081 347.693 200.315 348.094C200.55 348.49 200.667 348.935 200.667 349.43C200.667 349.966 200.521 350.458 200.229 350.906C199.943 351.354 199.552 351.69 199.058 351.914C199.755 352.117 200.292 352.464 200.667 352.953C201.042 353.443 201.229 354.018 201.229 354.68C201.229 355.201 201.107 355.708 200.862 356.203C200.623 356.693 200.292 357.086 199.87 357.383C199.453 357.674 198.938 357.854 198.323 357.922C197.938 357.964 197.008 357.99 195.534 358H191.636V346.547ZM193.948 348.453V351.102H195.464C196.365 351.102 196.925 351.089 197.143 351.062C197.539 351.016 197.849 350.88 198.073 350.656C198.302 350.427 198.417 350.128 198.417 349.758C198.417 349.404 198.318 349.117 198.12 348.898C197.927 348.674 197.638 348.539 197.253 348.492C197.024 348.466 196.365 348.453 195.276 348.453H193.948ZM193.948 353.008V356.07H196.089C196.922 356.07 197.451 356.047 197.675 356C198.018 355.938 198.297 355.786 198.511 355.547C198.729 355.302 198.839 354.977 198.839 354.57C198.839 354.227 198.755 353.935 198.589 353.695C198.422 353.456 198.18 353.281 197.862 353.172C197.55 353.062 196.867 353.008 195.815 353.008H193.948Z" stroke="#001AA7" stroke-width="0.5" mask="url(#path-4-outside-1_41_88)"/>
<path d="M207.676 358V356.758C207.374 357.201 206.975 357.549 206.48 357.805C205.991 358.06 205.473 358.188 204.926 358.188C204.368 358.188 203.868 358.065 203.426 357.82C202.983 357.576 202.663 357.232 202.465 356.789C202.267 356.346 202.168 355.734 202.168 354.953V349.703H204.363V353.516C204.363 354.682 204.402 355.398 204.48 355.664C204.564 355.924 204.712 356.133 204.926 356.289C205.139 356.44 205.41 356.516 205.738 356.516C206.113 356.516 206.449 356.414 206.746 356.211C207.043 356.003 207.246 355.747 207.355 355.445C207.465 355.138 207.519 354.391 207.519 353.203V349.703H209.715V358H207.676Z" stroke="#001AA7" stroke-width="0.5" mask="url(#path-4-outside-1_41_88)"/>
<path d="M211.036 348.578V346.547H213.231V348.578H211.036ZM211.036 358V349.703H213.231V358H211.036Z" stroke="#001AA7" stroke-width="0.5" mask="url(#path-4-outside-1_41_88)"/>
<path d="M214.529 358V346.547H216.724V358H214.529Z" stroke="#001AA7" stroke-width="0.5" mask="url(#path-4-outside-1_41_88)"/>
<path d="M225.632 358H223.593V356.781C223.254 357.255 222.853 357.609 222.389 357.844C221.931 358.073 221.468 358.188 220.999 358.188C220.046 358.188 219.228 357.805 218.546 357.039C217.869 356.268 217.53 355.195 217.53 353.82C217.53 352.414 217.861 351.346 218.522 350.617C219.184 349.883 220.02 349.516 221.03 349.516C221.957 349.516 222.759 349.901 223.436 350.672V346.547H225.632V358ZM219.772 353.672C219.772 354.557 219.895 355.198 220.139 355.594C220.494 356.167 220.988 356.453 221.624 356.453C222.129 356.453 222.559 356.24 222.913 355.812C223.267 355.38 223.444 354.737 223.444 353.883C223.444 352.93 223.272 352.245 222.928 351.828C222.585 351.406 222.145 351.195 221.608 351.195C221.087 351.195 220.65 351.404 220.296 351.82C219.947 352.232 219.772 352.849 219.772 353.672Z" stroke="#001AA7" stroke-width="0.5" mask="url(#path-4-outside-1_41_88)"/>
<path d="M226.843 348.578V346.547H229.039V348.578H226.843ZM226.843 358V349.703H229.039V358H226.843Z" stroke="#001AA7" stroke-width="0.5" mask="url(#path-4-outside-1_41_88)"/>
<path d="M237.883 358H235.688V353.766C235.688 352.87 235.641 352.292 235.548 352.031C235.454 351.766 235.3 351.56 235.087 351.414C234.878 351.268 234.626 351.195 234.329 351.195C233.949 351.195 233.607 351.299 233.305 351.508C233.003 351.716 232.795 351.992 232.68 352.336C232.571 352.68 232.516 353.315 232.516 354.242V358H230.321V349.703H232.36V350.922C233.084 349.984 233.995 349.516 235.094 349.516C235.579 349.516 236.021 349.604 236.423 349.781C236.824 349.953 237.126 350.174 237.329 350.445C237.537 350.716 237.68 351.023 237.758 351.367C237.842 351.711 237.883 352.203 237.883 352.844V358Z" stroke="#001AA7" stroke-width="0.5" mask="url(#path-4-outside-1_41_88)"/>
<path d="M238.955 358.547L241.463 358.852C241.504 359.143 241.601 359.344 241.752 359.453C241.96 359.609 242.288 359.688 242.736 359.688C243.309 359.688 243.739 359.602 244.025 359.43C244.218 359.315 244.364 359.13 244.463 358.875C244.53 358.693 244.564 358.357 244.564 357.867V356.656C243.908 357.552 243.08 358 242.08 358C240.965 358 240.082 357.529 239.431 356.586C238.921 355.841 238.666 354.914 238.666 353.805C238.666 352.414 238.999 351.352 239.666 350.617C240.338 349.883 241.171 349.516 242.166 349.516C243.192 349.516 244.038 349.966 244.705 350.867V349.703H246.759V357.148C246.759 358.128 246.679 358.859 246.517 359.344C246.356 359.828 246.129 360.208 245.838 360.484C245.546 360.76 245.155 360.977 244.666 361.133C244.181 361.289 243.567 361.367 242.822 361.367C241.416 361.367 240.418 361.125 239.83 360.641C239.241 360.161 238.947 359.552 238.947 358.812C238.947 358.74 238.949 358.651 238.955 358.547ZM240.916 353.68C240.916 354.56 241.085 355.206 241.423 355.617C241.767 356.023 242.189 356.227 242.689 356.227C243.226 356.227 243.679 356.018 244.048 355.602C244.418 355.18 244.603 354.557 244.603 353.734C244.603 352.875 244.426 352.237 244.072 351.82C243.718 351.404 243.27 351.195 242.728 351.195C242.202 351.195 241.767 351.401 241.423 351.812C241.085 352.219 240.916 352.841 240.916 353.68Z" stroke="#001AA7" stroke-width="0.5" mask="url(#path-4-outside-1_41_88)"/>
<path d="M250.902 354.273L253.152 354.055C253.287 354.81 253.561 355.365 253.972 355.719C254.389 356.073 254.949 356.25 255.652 356.25C256.397 356.25 256.957 356.094 257.332 355.781C257.712 355.464 257.902 355.094 257.902 354.672C257.902 354.401 257.821 354.172 257.66 353.984C257.503 353.792 257.227 353.625 256.832 353.484C256.561 353.391 255.944 353.224 254.98 352.984C253.74 352.677 252.871 352.299 252.371 351.852C251.668 351.221 251.316 350.453 251.316 349.547C251.316 348.964 251.48 348.419 251.808 347.914C252.141 347.404 252.618 347.016 253.238 346.75C253.863 346.484 254.615 346.352 255.496 346.352C256.933 346.352 258.014 346.667 258.738 347.297C259.467 347.927 259.85 348.768 259.886 349.82L257.574 349.922C257.475 349.333 257.261 348.911 256.933 348.656C256.61 348.396 256.123 348.266 255.472 348.266C254.8 348.266 254.274 348.404 253.894 348.68C253.649 348.857 253.527 349.094 253.527 349.391C253.527 349.661 253.641 349.893 253.871 350.086C254.162 350.331 254.871 350.586 255.996 350.852C257.121 351.117 257.951 351.393 258.488 351.68C259.029 351.961 259.451 352.349 259.753 352.844C260.061 353.333 260.214 353.94 260.214 354.664C260.214 355.32 260.032 355.935 259.668 356.508C259.303 357.081 258.787 357.508 258.121 357.789C257.454 358.065 256.623 358.203 255.628 358.203C254.181 358.203 253.069 357.87 252.293 357.203C251.516 356.531 251.053 355.555 250.902 354.273Z" stroke="#001AA7" stroke-width="0.5" mask="url(#path-4-outside-1_41_88)"/>
<path d="M260.676 353.734C260.676 353.005 260.856 352.299 261.215 351.617C261.575 350.935 262.083 350.414 262.739 350.055C263.4 349.695 264.137 349.516 264.95 349.516C266.205 349.516 267.234 349.924 268.036 350.742C268.838 351.555 269.239 352.583 269.239 353.828C269.239 355.083 268.833 356.125 268.02 356.953C267.213 357.776 266.194 358.188 264.965 358.188C264.205 358.188 263.478 358.016 262.786 357.672C262.098 357.328 261.575 356.826 261.215 356.164C260.856 355.497 260.676 354.688 260.676 353.734ZM262.926 353.852C262.926 354.674 263.122 355.305 263.512 355.742C263.903 356.18 264.385 356.398 264.958 356.398C265.53 356.398 266.01 356.18 266.395 355.742C266.786 355.305 266.981 354.669 266.981 353.836C266.981 353.023 266.786 352.398 266.395 351.961C266.01 351.523 265.53 351.305 264.958 351.305C264.385 351.305 263.903 351.523 263.512 351.961C263.122 352.398 262.926 353.029 262.926 353.852Z" stroke="#001AA7" stroke-width="0.5" mask="url(#path-4-outside-1_41_88)"/>
<path d="M270.005 358V346.547H272.201V358H270.005Z" stroke="#001AA7" stroke-width="0.5" mask="url(#path-4-outside-1_41_88)"/>
<path d="M278.959 358V356.758C278.657 357.201 278.259 357.549 277.764 357.805C277.274 358.06 276.756 358.188 276.209 358.188C275.652 358.188 275.152 358.065 274.709 357.82C274.267 357.576 273.946 357.232 273.748 356.789C273.551 356.346 273.452 355.734 273.452 354.953V349.703H275.647V353.516C275.647 354.682 275.686 355.398 275.764 355.664C275.847 355.924 275.996 356.133 276.209 356.289C276.423 356.44 276.694 356.516 277.022 356.516C277.397 356.516 277.733 356.414 278.03 356.211C278.327 356.003 278.53 355.747 278.639 355.445C278.748 355.138 278.803 354.391 278.803 353.203V349.703H280.998V358H278.959Z" stroke="#001AA7" stroke-width="0.5" mask="url(#path-4-outside-1_41_88)"/>
<path d="M286.124 349.703V351.453H284.624V354.797C284.624 355.474 284.637 355.87 284.663 355.984C284.695 356.094 284.76 356.185 284.859 356.258C284.963 356.331 285.088 356.367 285.234 356.367C285.437 356.367 285.731 356.297 286.117 356.156L286.304 357.859C285.794 358.078 285.216 358.188 284.57 358.188C284.174 358.188 283.817 358.122 283.499 357.992C283.182 357.857 282.947 357.685 282.796 357.477C282.65 357.263 282.549 356.977 282.492 356.617C282.445 356.362 282.421 355.846 282.421 355.07V351.453H281.413V349.703H282.421V348.055L284.624 346.773V349.703H286.124Z" stroke="#001AA7" stroke-width="0.5" mask="url(#path-4-outside-1_41_88)"/>
<path d="M286.688 348.578V346.547H288.883V348.578H286.688ZM286.688 358V349.703H288.883V358H286.688Z" stroke="#001AA7" stroke-width="0.5" mask="url(#path-4-outside-1_41_88)"/>
<path d="M289.673 353.734C289.673 353.005 289.853 352.299 290.212 351.617C290.572 350.935 291.079 350.414 291.736 350.055C292.397 349.695 293.134 349.516 293.947 349.516C295.202 349.516 296.23 349.924 297.032 350.742C297.835 351.555 298.236 352.583 298.236 353.828C298.236 355.083 297.829 356.125 297.017 356.953C296.21 357.776 295.191 358.188 293.962 358.188C293.202 358.188 292.475 358.016 291.782 357.672C291.095 357.328 290.572 356.826 290.212 356.164C289.853 355.497 289.673 354.688 289.673 353.734ZM291.923 353.852C291.923 354.674 292.118 355.305 292.509 355.742C292.9 356.18 293.381 356.398 293.954 356.398C294.527 356.398 295.006 356.18 295.392 355.742C295.782 355.305 295.978 354.669 295.978 353.836C295.978 353.023 295.782 352.398 295.392 351.961C295.006 351.523 294.527 351.305 293.954 351.305C293.381 351.305 292.9 351.523 292.509 351.961C292.118 352.398 291.923 353.029 291.923 353.852Z" stroke="#001AA7" stroke-width="0.5" mask="url(#path-4-outside-1_41_88)"/>
<path d="M306.549 358H304.354V353.766C304.354 352.87 304.307 352.292 304.213 352.031C304.119 351.766 303.966 351.56 303.752 351.414C303.544 351.268 303.291 351.195 302.994 351.195C302.614 351.195 302.273 351.299 301.971 351.508C301.669 351.716 301.461 351.992 301.346 352.336C301.237 352.68 301.182 353.315 301.182 354.242V358H298.987V349.703H301.026V350.922C301.75 349.984 302.661 349.516 303.76 349.516C304.244 349.516 304.687 349.604 305.088 349.781C305.489 349.953 305.791 350.174 305.994 350.445C306.203 350.716 306.346 351.023 306.424 351.367C306.507 351.711 306.549 352.203 306.549 352.844V358Z" stroke="#001AA7" stroke-width="0.5" mask="url(#path-4-outside-1_41_88)"/>
<path d="M307.05 355.633L309.253 355.297C309.347 355.724 309.537 356.049 309.823 356.273C310.11 356.492 310.511 356.602 311.027 356.602C311.594 356.602 312.021 356.497 312.308 356.289C312.501 356.143 312.597 355.948 312.597 355.703C312.597 355.536 312.545 355.398 312.441 355.289C312.331 355.185 312.086 355.089 311.706 355C309.935 354.609 308.813 354.253 308.339 353.93C307.683 353.482 307.355 352.859 307.355 352.062C307.355 351.344 307.639 350.74 308.206 350.25C308.774 349.76 309.654 349.516 310.847 349.516C311.982 349.516 312.826 349.701 313.378 350.07C313.93 350.44 314.31 350.987 314.519 351.711L312.448 352.094C312.36 351.771 312.191 351.523 311.941 351.352C311.696 351.18 311.344 351.094 310.886 351.094C310.308 351.094 309.894 351.174 309.644 351.336C309.477 351.451 309.394 351.599 309.394 351.781C309.394 351.938 309.467 352.07 309.612 352.18C309.81 352.326 310.493 352.531 311.659 352.797C312.831 353.062 313.649 353.388 314.112 353.773C314.571 354.164 314.8 354.708 314.8 355.406C314.8 356.167 314.482 356.82 313.847 357.367C313.211 357.914 312.271 358.188 311.027 358.188C309.896 358.188 309.001 357.958 308.339 357.5C307.683 357.042 307.253 356.419 307.05 355.633Z" stroke="#001AA7" stroke-width="0.5" mask="url(#path-4-outside-1_41_88)"/>
</svg>
