<svg width="341" height="365" viewBox="0 0 341 365" fill="none" xmlns="http://www.w3.org/2000/svg">
<path fill-rule="evenodd" clip-rule="evenodd" d="M157.349 0L42 12.2712L54.2712 127.62L83.3596 124.526C85.3782 105.15 92.9587 89.0979 106.101 76.3687C120.253 62.7479 139.251 55.2953 163.095 54.0108L157.349 0ZM166.894 89.7223C160.303 91.0639 154.833 94.6205 150.486 100.392C147.31 104.513 145.152 110.406 144.013 118.073L169.62 115.349L166.894 89.7223ZM182.427 121.339L180.379 89.836C185.34 90.9034 189.535 93.1526 192.966 96.5836C198.045 101.564 201.17 109.816 202.341 121.339H182.427ZM261.358 120.337C259.739 109.914 256.912 100.873 252.878 93.2145C246.14 80.4215 236.326 70.6559 223.435 63.9176C211.996 57.9383 196.867 54.6119 178.046 53.9384L175.171 9.69401L290.926 2.17053L298.45 117.926L261.358 120.337ZM174.13 149.904H262.986V143.166C262.986 139.262 262.864 135.499 262.62 131.875L288.622 129.221L300.399 244.622L184.998 256.399L180.902 216.257C200.553 215.535 215.952 212.216 227.097 206.3C239.793 199.464 250.632 188.234 259.617 172.609L200.877 167.189C197.166 171.877 193.699 175.148 190.476 177.004C186.278 179.336 181.895 180.74 177.326 181.215L174.13 149.904ZM82.8342 133.073L51.9709 130.929L43.9286 246.649L159.649 254.692L162.327 216.158C146.467 215.345 133.633 212.547 123.826 207.765C112.009 201.906 102.195 192.677 94.3824 180.08C86.6676 167.384 82.8101 152.492 82.8101 135.402C82.8101 134.621 82.8181 133.845 82.8342 133.073ZM164.826 180.202C159.534 178.681 154.998 175.711 151.218 171.291C147.117 166.603 144.529 159.474 143.455 149.904H166.932L164.826 180.202Z" fill="white"/>
<path fill-rule="evenodd" clip-rule="evenodd" d="M49.2019 280.281H71.4206L86.8894 329.734L102.124 280.281H123.686L100.784 342H127.829V299.219H146.907V342H165.468L147.662 299.219H167.537L177.194 330.766L187.178 299.219H206.444L188.276 342H206.965V299.219H226.043V342H235.159C231.773 336.919 230.08 330.784 230.08 323.594C230.08 315.344 232.049 309.031 235.986 304.656C239.955 300.281 244.986 298.094 251.08 298.094C254.049 298.094 256.736 298.594 259.142 299.594C261.58 300.594 263.736 302.094 265.611 304.094V280.281H284.877V342H290.336C288.947 340.058 287.957 337.797 287.367 335.219L306.304 333.438C307.086 335.688 308.179 337.297 309.586 338.266C310.992 339.234 312.867 339.719 315.211 339.719C317.773 339.719 319.758 339.172 321.164 338.078C322.258 337.266 322.804 336.25 322.804 335.031C322.804 333.656 322.086 332.594 320.648 331.844C319.617 331.312 316.883 330.656 312.445 329.875C305.82 328.719 301.211 327.656 298.617 326.688C296.054 325.688 293.883 324.016 292.101 321.672C290.351 319.328 289.476 316.656 289.476 313.656C289.476 310.375 290.429 307.547 292.336 305.172C294.242 302.797 296.867 301.031 300.211 299.875C303.554 298.688 308.039 298.094 313.664 298.094C319.601 298.094 323.976 298.547 326.789 299.453C329.633 300.359 331.992 301.766 333.867 303.672C335.773 305.578 337.351 308.156 338.601 311.406L320.508 313.188C320.039 311.594 319.258 310.422 318.164 309.672C316.664 308.672 314.851 308.172 312.726 308.172C310.57 308.172 308.992 308.562 307.992 309.344C307.023 310.094 306.539 311.016 306.539 312.109C306.539 313.328 307.164 314.25 308.414 314.875C309.664 315.5 312.383 316.062 316.57 316.562C322.914 317.281 327.633 318.281 330.726 319.562C333.82 320.844 336.179 322.672 337.804 325.047C339.461 327.422 340.289 330.031 340.289 332.875C340.289 335.75 339.414 338.547 337.664 341.266C336.029 343.852 333.474 345.944 330 347.541V365H12V346.333C9.02648 344.471 6.49793 341.86 4.41437 338.5C1.94562 334.438 0.711243 329.672 0.711243 324.203C0.711243 316.422 3.19562 310.125 8.16437 305.312C13.1644 300.5 20.055 298.094 28.8362 298.094C35.9612 298.094 41.5862 299.172 45.7112 301.328C49.8362 303.484 52.9769 306.609 55.1331 310.703C57.2894 314.797 58.3675 320.125 58.3675 326.688V328.844H20.1175C20.4612 331.906 21.2894 334.188 22.6019 335.688C24.4456 337.844 26.8519 338.922 29.8206 338.922C31.6956 338.922 33.4769 338.453 35.1644 337.516C36.1956 336.922 37.305 335.875 38.4925 334.375L57.2894 336.109C55.9969 338.357 54.5845 340.321 53.052 342H72.5253L49.2019 280.281ZM267.017 342H266.727C266.824 341.882 266.92 341.762 267.017 341.641V342ZM35.9612 311.781C37.5862 313.375 38.5862 316.016 38.9612 319.703H20.1644C20.4769 316.734 21.2112 314.5 22.3675 313C24.18 310.594 26.6019 309.391 29.6331 309.391C32.2581 309.391 34.3675 310.188 35.9612 311.781ZM146.907 280.281H127.829V293.266H146.907V280.281ZM226.043 280.281H206.965V293.266H226.043V280.281ZM265.752 323.969C265.752 320.062 264.924 317.156 263.267 315.25C261.611 313.312 259.517 312.344 256.986 312.344C254.767 312.344 252.908 313.266 251.408 315.109C249.908 316.953 249.158 320.047 249.158 324.391C249.158 328.453 249.924 331.438 251.455 333.344C253.017 335.219 254.939 336.156 257.221 336.156C259.658 336.156 261.689 335.203 263.314 333.297C264.939 331.391 265.752 328.281 265.752 323.969ZM32.8016 346.547H28.575V358H32.9266C33.7807 358 34.463 357.919 34.9734 357.758C35.6557 357.539 36.1974 357.234 36.5984 356.844C37.1297 356.328 37.5385 355.654 37.825 354.82C38.0594 354.138 38.1766 353.326 38.1766 352.383C38.1766 351.31 38.0516 350.409 37.8016 349.68C37.5516 348.945 37.187 348.326 36.7078 347.82C36.2286 347.315 35.6531 346.964 34.9812 346.766C34.4812 346.62 33.7547 346.547 32.8016 346.547ZM30.8875 356.07V348.484H31.9266C32.8693 348.484 33.5021 348.521 33.825 348.594C34.2573 348.688 34.6141 348.867 34.8953 349.133C35.1766 349.398 35.3953 349.768 35.5516 350.242C35.7078 350.716 35.7859 351.396 35.7859 352.281C35.7859 353.167 35.7078 353.867 35.5516 354.383C35.3953 354.893 35.1922 355.26 34.9422 355.484C34.6974 355.708 34.3875 355.867 34.0125 355.961C33.726 356.034 33.2599 356.07 32.6141 356.07H30.8875ZM46.1619 355.727L43.9744 355.359C43.8546 355.776 43.6775 356.078 43.4431 356.266C43.2087 356.453 42.9197 356.547 42.5759 356.547C42.0707 356.547 41.6488 356.367 41.3103 356.008C40.9718 355.643 40.7947 355.135 40.7791 354.484H46.2791C46.3103 352.802 45.9692 351.555 45.2556 350.742C44.5421 349.924 43.5681 349.516 42.3337 349.516C41.2348 349.516 40.3259 349.906 39.6072 350.688C38.8884 351.464 38.5291 352.539 38.5291 353.914C38.5291 355.065 38.8025 356.018 39.3494 356.773C40.0421 357.716 41.1098 358.188 42.5525 358.188C43.464 358.188 44.2218 357.979 44.8259 357.562C45.4353 357.141 45.8806 356.529 46.1619 355.727ZM43.6072 351.695C43.9197 352.023 44.0837 352.505 44.0994 353.141H40.8181C40.8129 352.542 40.9666 352.068 41.2791 351.719C41.5916 351.37 41.9874 351.195 42.4666 351.195C42.9145 351.195 43.2947 351.362 43.6072 351.695ZM48.5456 355.297L46.3425 355.633C46.5456 356.419 46.9753 357.042 47.6316 357.5C48.293 357.958 49.1889 358.188 50.3191 358.188C51.5639 358.188 52.504 357.914 53.1394 357.367C53.7748 356.82 54.0925 356.167 54.0925 355.406C54.0925 354.708 53.8633 354.164 53.405 353.773C52.9415 353.388 52.1237 353.062 50.9519 352.797C49.7852 352.531 49.1029 352.326 48.905 352.18C48.7592 352.07 48.6862 351.938 48.6862 351.781C48.6862 351.599 48.7696 351.451 48.9362 351.336C49.1862 351.174 49.6003 351.094 50.1784 351.094C50.6368 351.094 50.9883 351.18 51.2331 351.352C51.4831 351.523 51.6524 351.771 51.7409 352.094L53.8112 351.711C53.6029 350.987 53.2227 350.44 52.6706 350.07C52.1185 349.701 51.2748 349.516 50.1394 349.516C48.9467 349.516 48.0665 349.76 47.4987 350.25C46.931 350.74 46.6472 351.344 46.6472 352.062C46.6472 352.859 46.9753 353.482 47.6316 353.93C48.1055 354.253 49.2279 354.609 50.9987 355C51.379 355.089 51.6237 355.185 51.7331 355.289C51.8373 355.398 51.8894 355.536 51.8894 355.703C51.8894 355.948 51.793 356.143 51.6003 356.289C51.3139 356.497 50.8868 356.602 50.3191 356.602C49.8034 356.602 49.4024 356.492 49.1159 356.273C48.8295 356.049 48.6394 355.724 48.5456 355.297ZM55.0622 346.547V348.578H57.2575V346.547H55.0622ZM55.0622 349.703V358H57.2575V349.703H55.0622ZM60.86 358.852L58.3522 358.547C58.347 358.651 58.3444 358.74 58.3444 358.812C58.3444 359.552 58.6386 360.161 59.2272 360.641C59.8157 361.125 60.8131 361.367 62.2194 361.367C62.9642 361.367 63.5787 361.289 64.0631 361.133C64.5527 360.977 64.9433 360.76 65.235 360.484C65.5267 360.208 65.7532 359.828 65.9147 359.344C66.0761 358.859 66.1569 358.128 66.1569 357.148V349.703H64.1022V350.867C63.4355 349.966 62.5892 349.516 61.5631 349.516C60.5683 349.516 59.735 349.883 59.0631 350.617C58.3965 351.352 58.0631 352.414 58.0631 353.805C58.0631 354.914 58.3183 355.841 58.8287 356.586C59.4798 357.529 60.3626 358 61.4772 358C62.4772 358 63.3053 357.552 63.9616 356.656V357.867C63.9616 358.357 63.9277 358.693 63.86 358.875C63.761 359.13 63.6152 359.315 63.4225 359.43C63.136 359.602 62.7064 359.688 62.1334 359.688C61.6855 359.688 61.3574 359.609 61.1491 359.453C60.998 359.344 60.9017 359.143 60.86 358.852ZM60.8209 355.617C60.4824 355.206 60.3131 354.56 60.3131 353.68C60.3131 352.841 60.4824 352.219 60.8209 351.812C61.1647 351.401 61.5996 351.195 62.1256 351.195C62.6673 351.195 63.1152 351.404 63.4694 351.82C63.8235 352.237 64.0006 352.875 64.0006 353.734C64.0006 354.557 63.8157 355.18 63.4459 355.602C63.0761 356.018 62.623 356.227 62.0866 356.227C61.5866 356.227 61.1647 356.023 60.8209 355.617ZM72.7281 358H74.9234V352.844C74.9234 352.203 74.8818 351.711 74.7984 351.367C74.7203 351.023 74.5771 350.716 74.3687 350.445C74.1656 350.174 73.8635 349.953 73.4625 349.781C73.0615 349.604 72.6187 349.516 72.1344 349.516C71.0354 349.516 70.124 349.984 69.4 350.922V349.703H67.3609V358H69.5562V354.242C69.5562 353.315 69.6109 352.68 69.7203 352.336C69.8349 351.992 70.0432 351.716 70.3453 351.508C70.6474 351.299 70.9885 351.195 71.3687 351.195C71.6656 351.195 71.9182 351.268 72.1266 351.414C72.3401 351.56 72.4937 351.766 72.5875 352.031C72.6812 352.292 72.7281 352.87 72.7281 353.766V358ZM76.1978 346.547V348.578H78.3931V346.547H76.1978ZM76.1978 349.703V358H78.3931V349.703H76.1978ZM85.0425 358H87.2378V352.844C87.2378 352.203 87.1961 351.711 87.1128 351.367C87.0347 351.023 86.8915 350.716 86.6831 350.445C86.48 350.174 86.1779 349.953 85.7769 349.781C85.3758 349.604 84.9331 349.516 84.4487 349.516C83.3498 349.516 82.4383 349.984 81.7144 350.922V349.703H79.6753V358H81.8706V354.242C81.8706 353.315 81.9253 352.68 82.0347 352.336C82.1493 351.992 82.3576 351.716 82.6597 351.508C82.9618 351.299 83.3029 351.195 83.6831 351.195C83.98 351.195 84.2326 351.268 84.4409 351.414C84.6545 351.56 84.8081 351.766 84.9019 352.031C84.9956 352.292 85.0425 352.87 85.0425 353.766V358ZM90.8169 358.852L88.3091 358.547C88.3038 358.651 88.3012 358.74 88.3012 358.812C88.3012 359.552 88.5955 360.161 89.1841 360.641C89.7726 361.125 90.77 361.367 92.1762 361.367C92.921 361.367 93.5356 361.289 94.02 361.133C94.5096 360.977 94.9002 360.76 95.1919 360.484C95.4835 360.208 95.7101 359.828 95.8716 359.344C96.033 358.859 96.1137 358.128 96.1137 357.148V349.703H94.0591V350.867C93.3924 349.966 92.546 349.516 91.52 349.516C90.5252 349.516 89.6919 349.883 89.02 350.617C88.3533 351.352 88.02 352.414 88.02 353.805C88.02 354.914 88.2752 355.841 88.7856 356.586C89.4367 357.529 90.3195 358 91.4341 358C92.4341 358 93.2622 357.552 93.9184 356.656V357.867C93.9184 358.357 93.8846 358.693 93.8169 358.875C93.7179 359.13 93.5721 359.315 93.3794 359.43C93.0929 359.602 92.6632 359.688 92.0903 359.688C91.6424 359.688 91.3143 359.609 91.1059 359.453C90.9549 359.344 90.8585 359.143 90.8169 358.852ZM90.7778 355.617C90.4393 355.206 90.27 354.56 90.27 353.68C90.27 352.841 90.4393 352.219 90.7778 351.812C91.1216 351.401 91.5565 351.195 92.0825 351.195C92.6242 351.195 93.0721 351.404 93.4262 351.82C93.7804 352.237 93.9575 352.875 93.9575 353.734C93.9575 354.557 93.7726 355.18 93.4028 355.602C93.033 356.018 92.5799 356.227 92.0434 356.227C91.5434 356.227 91.1216 356.023 90.7778 355.617ZM100.842 346.547V358H109.484H109.553H112.054L113.757 355.43L115.445 358H118.14L115.07 353.633L117.882 349.703H115.304L113.757 351.984L112.288 349.703H109.609L112.476 353.727L109.553 357.901V356.07H103.155V352.953H108.905V351.023H103.155V348.484H109.334V346.547H100.842ZM120.469 349.703H118.422V361.156H120.618V356.977C121.029 357.419 121.42 357.732 121.789 357.914C122.164 358.096 122.581 358.188 123.039 358.188C124.003 358.188 124.823 357.805 125.5 357.039C126.177 356.268 126.516 355.19 126.516 353.805C126.516 352.456 126.18 351.404 125.508 350.648C124.836 349.893 124.019 349.516 123.055 349.516C122.503 349.516 122 349.646 121.547 349.906C121.094 350.167 120.735 350.505 120.469 350.922V349.703ZM121.149 355.781C120.779 355.333 120.594 354.643 120.594 353.711C120.594 352.898 120.771 352.286 121.125 351.875C121.479 351.458 121.925 351.25 122.461 351.25C122.977 351.25 123.409 351.461 123.758 351.883C124.107 352.305 124.282 352.951 124.282 353.82C124.282 354.753 124.112 355.424 123.774 355.836C123.435 356.242 123.011 356.445 122.5 356.445C121.969 356.445 121.519 356.224 121.149 355.781ZM134.298 355.727L132.111 355.359C131.991 355.776 131.814 356.078 131.579 356.266C131.345 356.453 131.056 356.547 130.712 356.547C130.207 356.547 129.785 356.367 129.447 356.008C129.108 355.643 128.931 355.135 128.915 354.484H134.415C134.447 352.802 134.105 351.555 133.392 350.742C132.678 349.924 131.704 349.516 130.47 349.516C129.371 349.516 128.462 349.906 127.743 350.688C127.025 351.464 126.665 352.539 126.665 353.914C126.665 355.065 126.939 356.018 127.486 356.773C128.178 357.716 129.246 358.188 130.689 358.188C131.6 358.188 132.358 357.979 132.962 357.562C133.572 357.141 134.017 356.529 134.298 355.727ZM131.743 351.695C132.056 352.023 132.22 352.505 132.236 353.141H128.954C128.949 352.542 129.103 352.068 129.415 351.719C129.728 351.37 130.124 351.195 130.603 351.195C131.051 351.195 131.431 351.362 131.743 351.695ZM135.158 358H137.354V355.438C137.354 354.026 137.414 353.099 137.533 352.656C137.658 352.214 137.828 351.909 138.041 351.742C138.255 351.57 138.515 351.484 138.822 351.484C139.14 351.484 139.484 351.604 139.854 351.844L140.527 349.949V358H142.722V349.703H140.527V349.926C140.065 349.652 139.586 349.516 139.088 349.516C138.734 349.516 138.416 349.604 138.135 349.781C137.859 349.958 137.546 350.326 137.197 350.883V349.703H135.158V358ZM140.527 346.547V348.578H142.722V346.547H140.527ZM151.012 355.727L148.824 355.359C148.705 355.776 148.527 356.078 148.293 356.266C148.059 356.453 147.77 356.547 147.426 356.547C146.921 356.547 146.499 356.367 146.16 356.008C145.822 355.643 145.645 355.135 145.629 354.484H151.129C151.16 352.802 150.819 351.555 150.106 350.742C149.392 349.924 148.418 349.516 147.184 349.516C146.085 349.516 145.176 349.906 144.457 350.688C143.738 351.464 143.379 352.539 143.379 353.914C143.379 355.065 143.652 356.018 144.199 356.773C144.892 357.716 145.96 358.188 147.402 358.188C148.314 358.188 149.072 357.979 149.676 357.562C150.285 357.141 150.731 356.529 151.012 355.727ZM148.457 351.695C148.77 352.023 148.934 352.505 148.949 353.141H145.668C145.663 352.542 145.817 352.068 146.129 351.719C146.442 351.37 146.837 351.195 147.317 351.195C147.764 351.195 148.145 351.362 148.457 351.695ZM157.318 358H159.513V352.844C159.513 352.203 159.471 351.711 159.388 351.367C159.31 351.023 159.166 350.716 158.958 350.445C158.755 350.174 158.453 349.953 158.052 349.781C157.651 349.604 157.208 349.516 156.724 349.516C155.625 349.516 154.713 349.984 153.989 350.922V349.703H151.95V358H154.146V354.242C154.146 353.315 154.2 352.68 154.31 352.336C154.424 351.992 154.633 351.716 154.935 351.508C155.237 351.299 155.578 351.195 155.958 351.195C156.255 351.195 156.508 351.268 156.716 351.414C156.929 351.56 157.083 351.766 157.177 352.031C157.271 352.292 157.318 352.87 157.318 353.766V358ZM165.857 352.547L168.022 352.156C167.761 351.266 167.331 350.604 166.732 350.172C166.139 349.734 165.337 349.516 164.326 349.516C163.092 349.516 162.113 349.898 161.389 350.664C160.665 351.424 160.303 352.49 160.303 353.859C160.303 355.214 160.662 356.273 161.381 357.039C162.105 357.805 163.074 358.188 164.287 358.188C165.355 358.188 166.206 357.935 166.842 357.43C167.477 356.924 167.907 356.177 168.131 355.188L165.975 354.82C165.865 355.398 165.678 355.807 165.412 356.047C165.147 356.281 164.805 356.398 164.389 356.398C163.831 356.398 163.386 356.195 163.053 355.789C162.725 355.383 162.561 354.688 162.561 353.703C162.561 352.818 162.722 352.188 163.045 351.812C163.373 351.432 163.811 351.242 164.357 351.242C164.769 351.242 165.102 351.352 165.357 351.57C165.618 351.789 165.785 352.115 165.857 352.547ZM175.726 355.727L173.538 355.359C173.418 355.776 173.241 356.078 173.007 356.266C172.772 356.453 172.483 356.547 172.14 356.547C171.634 356.547 171.213 356.367 170.874 356.008C170.536 355.643 170.358 355.135 170.343 354.484H175.843C175.874 352.802 175.533 351.555 174.819 350.742C174.106 349.924 173.132 349.516 171.897 349.516C170.799 349.516 169.89 349.906 169.171 350.688C168.452 351.464 168.093 352.539 168.093 353.914C168.093 355.065 168.366 356.018 168.913 356.773C169.606 357.716 170.674 358.188 172.116 358.188C173.028 358.188 173.786 357.979 174.39 357.562C174.999 357.141 175.444 356.529 175.726 355.727ZM173.171 351.695C173.483 352.023 173.647 352.505 173.663 353.141H170.382C170.377 352.542 170.53 352.068 170.843 351.719C171.155 351.37 171.551 351.195 172.03 351.195C172.478 351.195 172.858 351.362 173.171 351.695ZM178.109 355.297L175.906 355.633C176.109 356.419 176.539 357.042 177.195 357.5C177.857 357.958 178.753 358.188 179.883 358.188C181.128 358.188 182.068 357.914 182.703 357.367C183.339 356.82 183.656 356.167 183.656 355.406C183.656 354.708 183.427 354.164 182.969 353.773C182.505 353.388 181.688 353.062 180.516 352.797C179.349 352.531 178.667 352.326 178.469 352.18C178.323 352.07 178.25 351.938 178.25 351.781C178.25 351.599 178.333 351.451 178.5 351.336C178.75 351.174 179.164 351.094 179.742 351.094C180.201 351.094 180.552 351.18 180.797 351.352C181.047 351.523 181.216 351.771 181.305 352.094L183.375 351.711C183.167 350.987 182.786 350.44 182.234 350.07C181.682 349.701 180.839 349.516 179.703 349.516C178.51 349.516 177.63 349.76 177.062 350.25C176.495 350.74 176.211 351.344 176.211 352.062C176.211 352.859 176.539 353.482 177.195 353.93C177.669 354.253 178.792 354.609 180.562 355C180.943 355.089 181.188 355.185 181.297 355.289C181.401 355.398 181.453 355.536 181.453 355.703C181.453 355.948 181.357 356.143 181.164 356.289C180.878 356.497 180.451 356.602 179.883 356.602C179.367 356.602 178.966 356.492 178.68 356.273C178.393 356.049 178.203 355.724 178.109 355.297ZM186.767 355.805H184.571V358H185.634C185.623 358.443 185.524 358.792 185.337 359.047C185.149 359.302 184.834 359.503 184.392 359.648L184.821 360.555C185.29 360.388 185.675 360.159 185.977 359.867C186.285 359.576 186.493 359.245 186.602 358.875C186.712 358.51 186.767 358.01 186.767 357.375V355.805ZM196.214 346.547H191.636V358H195.534C197.008 357.99 197.938 357.964 198.323 357.922C198.938 357.854 199.453 357.674 199.87 357.383C200.292 357.086 200.623 356.693 200.862 356.203C201.107 355.708 201.229 355.201 201.229 354.68C201.229 354.018 201.042 353.443 200.667 352.953C200.292 352.464 199.755 352.117 199.057 351.914C199.552 351.69 199.943 351.354 200.229 350.906C200.521 350.458 200.667 349.966 200.667 349.43C200.667 348.935 200.55 348.49 200.315 348.094C200.081 347.693 199.787 347.372 199.432 347.133C199.084 346.893 198.685 346.737 198.237 346.664C197.794 346.586 197.12 346.547 196.214 346.547ZM193.948 351.102V348.453H195.276C196.365 348.453 197.024 348.466 197.253 348.492C197.638 348.539 197.927 348.674 198.12 348.898C198.318 349.117 198.417 349.404 198.417 349.758C198.417 350.128 198.302 350.427 198.073 350.656C197.849 350.88 197.539 351.016 197.143 351.062C196.925 351.089 196.365 351.102 195.464 351.102H193.948ZM193.948 356.07V353.008H195.815C196.867 353.008 197.55 353.062 197.862 353.172C198.18 353.281 198.422 353.456 198.589 353.695C198.755 353.935 198.839 354.227 198.839 354.57C198.839 354.977 198.729 355.302 198.511 355.547C198.297 355.786 198.018 355.938 197.675 356C197.451 356.047 196.922 356.07 196.089 356.07H193.948ZM207.676 356.758V358H209.715V349.703H207.519V353.203C207.519 354.391 207.465 355.138 207.355 355.445C207.246 355.747 207.043 356.003 206.746 356.211C206.449 356.414 206.113 356.516 205.738 356.516C205.41 356.516 205.139 356.44 204.926 356.289C204.712 356.133 204.564 355.924 204.48 355.664C204.402 355.398 204.363 354.682 204.363 353.516V349.703H202.168V354.953C202.168 355.734 202.267 356.346 202.465 356.789C202.663 357.232 202.983 357.576 203.426 357.82C203.868 358.065 204.368 358.188 204.926 358.188C205.473 358.188 205.991 358.06 206.48 357.805C206.975 357.549 207.374 357.201 207.676 356.758ZM211.036 346.547V348.578H213.231V346.547H211.036ZM211.036 349.703V358H213.231V349.703H211.036ZM214.529 346.547V358H216.724V346.547H214.529ZM223.592 358H225.632V346.547H223.436V350.672C222.759 349.901 221.957 349.516 221.03 349.516C220.02 349.516 219.184 349.883 218.522 350.617C217.861 351.346 217.53 352.414 217.53 353.82C217.53 355.195 217.869 356.268 218.546 357.039C219.228 357.805 220.046 358.188 220.999 358.188C221.467 358.188 221.931 358.073 222.389 357.844C222.853 357.609 223.254 357.255 223.592 356.781V358ZM220.139 355.594C219.895 355.198 219.772 354.557 219.772 353.672C219.772 352.849 219.947 352.232 220.296 351.82C220.65 351.404 221.087 351.195 221.608 351.195C222.145 351.195 222.585 351.406 222.928 351.828C223.272 352.245 223.444 352.93 223.444 353.883C223.444 354.737 223.267 355.38 222.913 355.812C222.559 356.24 222.129 356.453 221.624 356.453C220.988 356.453 220.494 356.167 220.139 355.594ZM226.843 346.547V348.578H229.039V346.547H226.843ZM226.843 349.703V358H229.039V349.703H226.843ZM235.688 358H237.883V352.844C237.883 352.203 237.842 351.711 237.758 351.367C237.68 351.023 237.537 350.716 237.329 350.445C237.126 350.174 236.824 349.953 236.423 349.781C236.021 349.604 235.579 349.516 235.094 349.516C233.995 349.516 233.084 349.984 232.36 350.922V349.703H230.321V358H232.516V354.242C232.516 353.315 232.571 352.68 232.68 352.336C232.795 351.992 233.003 351.716 233.305 351.508C233.607 351.299 233.949 351.195 234.329 351.195C234.626 351.195 234.878 351.268 235.087 351.414C235.3 351.56 235.454 351.766 235.548 352.031C235.641 352.292 235.688 352.87 235.688 353.766V358ZM241.462 358.852L238.955 358.547C238.949 358.651 238.947 358.74 238.947 358.812C238.947 359.552 239.241 360.161 239.83 360.641C240.418 361.125 241.416 361.367 242.822 361.367C243.567 361.367 244.181 361.289 244.666 361.133C245.155 360.977 245.546 360.76 245.837 360.484C246.129 360.208 246.356 359.828 246.517 359.344C246.679 358.859 246.759 358.128 246.759 357.148V349.703H244.705V350.867C244.038 349.966 243.192 349.516 242.166 349.516C241.171 349.516 240.337 349.883 239.666 350.617C238.999 351.352 238.666 352.414 238.666 353.805C238.666 354.914 238.921 355.841 239.431 356.586C240.082 357.529 240.965 358 242.08 358C243.08 358 243.908 357.552 244.564 356.656V357.867C244.564 358.357 244.53 358.693 244.462 358.875C244.364 359.13 244.218 359.315 244.025 359.43C243.739 359.602 243.309 359.688 242.736 359.688C242.288 359.688 241.96 359.609 241.752 359.453C241.601 359.344 241.504 359.143 241.462 358.852ZM241.423 355.617C241.085 355.206 240.916 354.56 240.916 353.68C240.916 352.841 241.085 352.219 241.423 351.812C241.767 351.401 242.202 351.195 242.728 351.195C243.27 351.195 243.718 351.404 244.072 351.82C244.426 352.237 244.603 352.875 244.603 353.734C244.603 354.557 244.418 355.18 244.048 355.602C243.679 356.018 243.226 356.227 242.689 356.227C242.189 356.227 241.767 356.023 241.423 355.617ZM253.152 354.055L250.902 354.273C251.053 355.555 251.516 356.531 252.292 357.203C253.069 357.87 254.181 358.203 255.628 358.203C256.623 358.203 257.454 358.065 258.121 357.789C258.787 357.508 259.303 357.081 259.667 356.508C260.032 355.935 260.214 355.32 260.214 354.664C260.214 353.94 260.061 353.333 259.753 352.844C259.451 352.349 259.029 351.961 258.488 351.68C257.951 351.393 257.121 351.117 255.996 350.852C254.871 350.586 254.162 350.331 253.871 350.086C253.641 349.893 253.527 349.661 253.527 349.391C253.527 349.094 253.649 348.857 253.894 348.68C254.274 348.404 254.8 348.266 255.472 348.266C256.123 348.266 256.61 348.396 256.933 348.656C257.261 348.911 257.475 349.333 257.574 349.922L259.886 349.82C259.85 348.768 259.467 347.927 258.738 347.297C258.014 346.667 256.933 346.352 255.496 346.352C254.615 346.352 253.863 346.484 253.238 346.75C252.618 347.016 252.141 347.404 251.808 347.914C251.48 348.419 251.316 348.964 251.316 349.547C251.316 350.453 251.667 351.221 252.371 351.852C252.871 352.299 253.74 352.677 254.98 352.984C255.944 353.224 256.561 353.391 256.832 353.484C257.227 353.625 257.503 353.792 257.66 353.984C257.821 354.172 257.902 354.401 257.902 354.672C257.902 355.094 257.712 355.464 257.332 355.781C256.957 356.094 256.397 356.25 255.652 356.25C254.949 356.25 254.389 356.073 253.972 355.719C253.561 355.365 253.287 354.81 253.152 354.055ZM261.215 351.617C260.856 352.299 260.676 353.005 260.676 353.734C260.676 354.688 260.856 355.497 261.215 356.164C261.575 356.826 262.098 357.328 262.786 357.672C263.478 358.016 264.205 358.188 264.965 358.188C266.194 358.188 267.213 357.776 268.02 356.953C268.833 356.125 269.239 355.083 269.239 353.828C269.239 352.583 268.838 351.555 268.036 350.742C267.234 349.924 266.205 349.516 264.95 349.516C264.137 349.516 263.4 349.695 262.739 350.055C262.083 350.414 261.575 350.935 261.215 351.617ZM263.512 355.742C263.122 355.305 262.926 354.674 262.926 353.852C262.926 353.029 263.122 352.398 263.512 351.961C263.903 351.523 264.385 351.305 264.958 351.305C265.53 351.305 266.01 351.523 266.395 351.961C266.786 352.398 266.981 353.023 266.981 353.836C266.981 354.669 266.786 355.305 266.395 355.742C266.01 356.18 265.53 356.398 264.958 356.398C264.385 356.398 263.903 356.18 263.512 355.742ZM270.005 346.547V358H272.201V346.547H270.005ZM278.959 356.758V358H280.998V349.703H278.803V353.203C278.803 354.391 278.748 355.138 278.639 355.445C278.53 355.747 278.327 356.003 278.03 356.211C277.733 356.414 277.397 356.516 277.022 356.516C276.694 356.516 276.423 356.44 276.209 356.289C275.996 356.133 275.847 355.924 275.764 355.664C275.686 355.398 275.647 354.682 275.647 353.516V349.703H273.452V354.953C273.452 355.734 273.551 356.346 273.748 356.789C273.946 357.232 274.267 357.576 274.709 357.82C275.152 358.065 275.652 358.188 276.209 358.188C276.756 358.188 277.274 358.06 277.764 357.805C278.259 357.549 278.657 357.201 278.959 356.758ZM286.124 351.453V349.703H284.624V346.773L282.421 348.055V349.703H281.413V351.453H282.421V355.07C282.421 355.846 282.445 356.362 282.492 356.617C282.549 356.977 282.65 357.263 282.796 357.477C282.947 357.685 283.182 357.857 283.499 357.992C283.817 358.122 284.174 358.188 284.57 358.188C285.216 358.188 285.794 358.078 286.304 357.859L286.117 356.156C285.731 356.297 285.437 356.367 285.234 356.367C285.088 356.367 284.963 356.331 284.859 356.258C284.76 356.185 284.695 356.094 284.663 355.984C284.637 355.87 284.624 355.474 284.624 354.797V351.453H286.124ZM286.688 346.547V348.578H288.883V346.547H286.688ZM288.883 349.703H286.688V358H288.883V349.703ZM290.212 351.617C289.853 352.299 289.673 353.005 289.673 353.734C289.673 354.688 289.853 355.497 290.212 356.164C290.572 356.826 291.095 357.328 291.782 357.672C292.475 358.016 293.202 358.188 293.962 358.188C295.191 358.188 296.21 357.776 297.017 356.953C297.829 356.125 298.236 355.083 298.236 353.828C298.236 352.583 297.835 351.555 297.032 350.742C296.23 349.924 295.202 349.516 293.947 349.516C293.134 349.516 292.397 349.695 291.736 350.055C291.079 350.414 290.572 350.935 290.212 351.617ZM292.509 355.742C292.118 355.305 291.923 354.674 291.923 353.852C291.923 353.029 292.118 352.398 292.509 351.961C292.9 351.523 293.381 351.305 293.954 351.305C294.527 351.305 295.006 351.523 295.392 351.961C295.782 352.398 295.978 353.023 295.978 353.836C295.978 354.669 295.782 355.305 295.392 355.742C295.006 356.18 294.527 356.398 293.954 356.398C293.381 356.398 292.9 356.18 292.509 355.742ZM304.354 358H306.549V352.844C306.549 352.203 306.507 351.711 306.424 351.367C306.346 351.023 306.203 350.716 305.994 350.445C305.791 350.174 305.489 349.953 305.088 349.781C304.687 349.604 304.244 349.516 303.76 349.516C302.661 349.516 301.75 349.984 301.026 350.922V349.703H298.987V358H301.182V354.242C301.182 353.315 301.237 352.68 301.346 352.336C301.461 351.992 301.669 351.716 301.971 351.508C302.273 351.299 302.614 351.195 302.994 351.195C303.291 351.195 303.544 351.268 303.752 351.414C303.966 351.56 304.119 351.766 304.213 352.031C304.307 352.292 304.354 352.87 304.354 353.766V358ZM309.253 355.297L307.05 355.633C307.253 356.419 307.683 357.042 308.339 357.5C309.001 357.958 309.896 358.188 311.027 358.188C312.271 358.188 313.211 357.914 313.847 357.367C314.482 356.82 314.8 356.167 314.8 355.406C314.8 354.708 314.571 354.164 314.112 353.773C313.649 353.388 312.831 353.062 311.659 352.797C310.493 352.531 309.81 352.326 309.612 352.18C309.467 352.07 309.394 351.938 309.394 351.781C309.394 351.599 309.477 351.451 309.644 351.336C309.894 351.174 310.308 351.094 310.886 351.094C311.344 351.094 311.696 351.18 311.941 351.352C312.191 351.523 312.36 351.771 312.448 352.094L314.519 351.711C314.31 350.987 313.93 350.44 313.378 350.07C312.826 349.701 311.982 349.516 310.847 349.516C309.654 349.516 308.774 349.76 308.206 350.25C307.639 350.74 307.355 351.344 307.355 352.062C307.355 352.859 307.683 353.482 308.339 353.93C308.813 354.253 309.935 354.609 311.706 355C312.086 355.089 312.331 355.185 312.441 355.289C312.545 355.398 312.597 355.536 312.597 355.703C312.597 355.948 312.501 356.143 312.308 356.289C312.021 356.497 311.594 356.602 311.027 356.602C310.511 356.602 310.11 356.492 309.823 356.273C309.537 356.049 309.347 355.724 309.253 355.297Z" fill="white"/>
</svg>
