<svg width="1327" height="1406" viewBox="0 0 1327 1406" fill="none" xmlns="http://www.w3.org/2000/svg">
<path fill-rule="evenodd" clip-rule="evenodd" d="M611.781 0L161.262 47.9276L209.19 498.447L322.8 486.361C330.684 410.686 360.291 347.99 411.622 298.274C466.893 245.075 541.094 215.967 634.223 210.95L611.781 0ZM649.061 350.428C623.317 355.668 601.955 369.559 584.975 392.102C572.57 408.195 564.144 431.214 559.696 461.159L659.709 450.519L649.061 350.428ZM709.728 473.916L701.73 350.873C721.104 355.042 737.491 363.826 750.891 377.227C770.725 396.679 782.93 428.909 787.507 473.916H709.728ZM1018.01 470.001C1011.68 429.291 1000.65 393.98 984.89 364.068C958.572 314.102 920.24 275.961 869.893 249.643C825.217 226.29 766.126 213.298 692.618 210.667L681.386 37.8619L1133.49 8.47746L1162.88 460.585L1018.01 470.001ZM677.323 585.48H1024.37V559.162C1024.37 543.917 1023.89 529.218 1022.94 515.064L1124.49 504.7L1170.49 955.42L719.771 1001.42L703.771 844.636C780.523 841.816 840.665 828.853 884.196 805.748C933.78 779.049 976.118 735.186 1011.21 674.159L781.786 652.991C767.292 671.299 753.752 684.076 741.165 691.323C724.77 700.432 707.649 705.915 689.803 707.773L677.323 585.48ZM320.748 519.745L200.205 511.368L168.794 963.339L620.766 994.75L631.225 844.248C569.277 841.072 519.152 830.146 480.849 811.469C434.697 788.584 396.365 752.54 365.852 703.338C335.72 653.753 320.654 595.587 320.654 528.84C320.654 525.789 320.685 522.758 320.748 519.745ZM640.985 703.815C620.314 697.876 602.598 686.274 587.836 669.01C571.816 650.702 561.709 622.859 557.513 585.48H649.209L640.985 703.815Z" fill="white"/>
<path d="M225.188 1264.37H75.795C77.1376 1276.33 80.372 1285.24 85.4983 1291.1C92.6994 1299.52 102.098 1303.73 113.693 1303.73C121.016 1303.73 127.973 1301.9 134.564 1298.24C138.591 1295.92 142.924 1291.83 147.562 1285.97L220.977 1292.74C209.748 1312.27 196.201 1326.31 180.334 1334.85C164.467 1343.27 141.704 1347.48 112.045 1347.48C86.2916 1347.48 66.0308 1343.88 51.2623 1336.68C36.4939 1329.36 24.2276 1317.83 14.4633 1302.08C4.8211 1286.21 0 1267.6 0 1246.24C0 1215.85 9.70323 1191.26 29.1097 1172.46C48.6382 1153.66 75.5509 1144.27 109.848 1144.27C137.676 1144.27 159.646 1148.48 175.757 1156.9C191.868 1165.32 204.134 1177.53 212.556 1193.51C220.977 1209.5 225.188 1230.31 225.188 1255.94V1264.37ZM149.393 1228.67C147.928 1214.26 144.023 1203.95 137.676 1197.72C131.451 1191.5 123.213 1188.39 112.96 1188.39C101.121 1188.39 91.662 1193.09 84.5829 1202.48C80.0669 1208.34 77.1987 1217.07 75.9781 1228.67H149.393Z" fill="white"/>
<path d="M189.39 1074.7H276.17L336.586 1267.84L396.087 1074.7H480.304L380.708 1343.09H290.816L189.39 1074.7Z" fill="white"/>
<path d="M496.483 1074.7H570.997V1125.41H496.483V1074.7ZM496.483 1148.66H570.997V1343.09H496.483V1148.66Z" fill="white"/>
<path d="M573.948 1148.66H651.574L689.288 1271.87L728.284 1148.66H803.53L720.961 1343.09H654.869L573.948 1148.66Z" fill="white"/>
<path d="M805.566 1074.7H880.079V1125.41H805.566V1074.7ZM805.566 1148.66H880.079V1343.09H805.566V1148.66Z" fill="white"/>
<path d="M1109.87 1074.7V1343.09H1040.11V1314.35C1030.35 1326.55 1021.44 1334.79 1013.38 1339.06C1002.64 1344.68 990.681 1347.48 977.5 1347.48C951.014 1347.48 930.753 1337.41 916.717 1317.28C902.803 1297.14 895.846 1272.67 895.846 1243.86C895.846 1211.64 903.535 1186.98 918.914 1169.9C934.415 1152.81 954.065 1144.27 977.866 1144.27C989.461 1144.27 999.957 1146.22 1009.36 1150.12C1018.88 1154.03 1027.3 1159.89 1034.62 1167.7V1074.7H1109.87ZM1035.17 1245.33C1035.17 1230.07 1031.94 1218.72 1025.47 1211.27C1019 1203.71 1010.82 1199.92 1000.93 1199.92C992.268 1199.92 985.006 1203.52 979.147 1210.72C973.289 1217.92 970.36 1230.01 970.36 1246.97C970.36 1262.84 973.35 1274.5 979.33 1281.94C985.433 1289.26 992.939 1292.93 1001.85 1292.93C1011.37 1292.93 1019.3 1289.2 1025.65 1281.76C1032 1274.31 1035.17 1262.17 1035.17 1245.33Z" fill="white"/>
<path d="M1119.59 1289.26L1193.56 1282.31C1196.61 1291.1 1200.88 1297.38 1206.37 1301.16C1211.86 1304.95 1219.19 1306.84 1228.34 1306.84C1238.35 1306.84 1246.1 1304.7 1251.59 1300.43C1255.86 1297.26 1258 1293.29 1258 1288.53C1258 1283.16 1255.19 1279.01 1249.58 1276.08C1245.55 1274.01 1234.87 1271.44 1217.54 1268.39C1191.66 1263.88 1173.66 1259.73 1163.53 1255.94C1153.52 1252.04 1145.04 1245.51 1138.08 1236.35C1131.25 1227.2 1127.83 1216.77 1127.83 1205.05C1127.83 1192.23 1131.55 1181.19 1139 1171.91C1146.44 1162.63 1156.7 1155.74 1169.76 1151.22C1182.82 1146.58 1200.33 1144.27 1222.3 1144.27C1245.49 1144.27 1262.58 1146.04 1273.56 1149.57C1284.67 1153.11 1293.88 1158.61 1301.21 1166.05C1308.65 1173.5 1314.82 1183.57 1319.7 1196.26L1249.03 1203.22C1247.2 1196.99 1244.15 1192.42 1239.88 1189.49C1234.02 1185.58 1226.94 1183.63 1218.64 1183.63C1210.22 1183.63 1204.05 1185.15 1200.15 1188.2C1196.36 1191.13 1194.47 1194.73 1194.47 1199.01C1194.47 1203.77 1196.91 1207.37 1201.79 1209.81C1206.68 1212.25 1217.3 1214.45 1233.65 1216.4C1258.43 1219.21 1276.86 1223.11 1288.94 1228.12C1301.02 1233.12 1310.24 1240.26 1316.59 1249.54C1323.05 1258.81 1326.29 1269 1326.29 1280.11C1326.29 1291.34 1322.87 1302.26 1316.04 1312.88C1309.32 1323.5 1298.64 1331.98 1284 1338.33C1269.47 1344.55 1249.64 1347.67 1224.5 1347.67C1188.98 1347.67 1163.65 1342.6 1148.52 1332.47C1133.51 1322.34 1123.86 1307.94 1119.59 1289.26Z" fill="white"/>
</svg>
