<svg width="1327" height="1426" viewBox="0 0 1327 1426" fill="none" xmlns="http://www.w3.org/2000/svg">
<path fill-rule="evenodd" clip-rule="evenodd" d="M611.781 0L161.262 47.9276L209.189 498.447L322.8 486.361C330.683 410.686 360.291 347.99 411.621 298.274C466.893 245.075 541.093 215.967 634.223 210.95L611.781 0ZM649.061 350.428C623.317 355.668 601.955 369.559 584.975 392.102C572.57 408.195 564.143 431.214 559.695 461.159L659.709 450.519L649.061 350.428ZM709.727 473.916L701.73 350.873C721.104 355.042 737.491 363.826 750.891 377.227C770.725 396.679 782.93 428.909 787.507 473.916H709.727ZM1018.01 470.001C1011.68 429.291 1000.65 393.98 984.89 364.068C958.572 314.102 920.24 275.961 869.893 249.643C825.217 226.29 766.125 213.298 692.618 210.667L681.386 37.8619L1133.49 8.47746L1162.88 460.585L1018.01 470.001ZM677.323 585.48H1024.37V559.162C1024.37 543.917 1023.89 529.218 1022.94 515.064L1124.49 504.7L1170.49 955.42L719.771 1001.42L703.771 844.636C780.523 841.816 840.664 828.853 884.196 805.748C933.78 779.049 976.117 735.186 1011.21 674.159L781.786 652.991C767.292 671.299 753.752 684.076 741.165 691.323C724.77 700.432 707.649 705.915 689.803 707.773L677.323 585.48ZM320.747 519.745L200.205 511.368L168.794 963.339L620.765 994.75L631.225 844.248C569.277 841.072 519.151 830.146 480.848 811.469C434.697 788.584 396.365 752.54 365.851 703.338C335.719 653.753 320.654 595.587 320.654 528.84C320.654 525.789 320.685 522.758 320.747 519.745ZM640.985 703.815C620.314 697.876 602.598 686.274 587.836 669.01C571.816 650.702 561.709 622.859 557.513 585.48H649.209L640.985 703.815Z" fill="#001AA7"/>
<path fill-rule="evenodd" clip-rule="evenodd" d="M189.39 1094.7H276.17L336.586 1287.84L396.087 1094.7H480.304L380.708 1363.09H290.816L189.39 1094.7ZM225.188 1284.37H75.795C77.1376 1296.33 80.372 1305.24 85.4983 1311.1C92.6994 1319.52 102.098 1323.73 113.693 1323.73C121.016 1323.73 127.973 1321.9 134.564 1318.24C138.591 1315.92 142.924 1311.83 147.562 1305.97L220.977 1312.74C209.748 1332.27 196.201 1346.31 180.334 1354.85C164.467 1363.27 141.704 1367.48 112.045 1367.48C86.2916 1367.48 66.0308 1363.88 51.2623 1356.68C36.4939 1349.36 24.2276 1337.83 14.4633 1322.08C4.8211 1306.21 0 1287.6 0 1266.24C0 1235.85 9.70323 1211.26 29.1097 1192.46C48.6382 1173.66 75.5509 1164.27 109.848 1164.27C137.676 1164.27 159.646 1168.48 175.757 1176.9C191.868 1185.32 204.134 1197.53 212.556 1213.51C220.977 1229.5 225.188 1250.31 225.188 1275.94V1284.37ZM149.393 1248.67C147.928 1234.26 144.023 1223.95 137.676 1217.72C131.451 1211.5 123.213 1208.39 112.96 1208.39C101.121 1208.39 91.662 1213.09 84.5829 1222.48C80.0669 1228.34 77.1987 1237.07 75.9781 1248.67H149.393ZM570.997 1094.7H496.483V1145.41H570.997V1094.7ZM570.997 1168.66H496.483V1363.09H570.997V1168.66ZM573.948 1168.66H651.574L689.288 1291.87L728.284 1168.66H803.53L727.91 1346.73V1346.36H725.871V1351.53L724.589 1354.55V1346.36H722.394V1354.66H724.543L720.961 1363.09H654.869L649.697 1350.66C649.706 1349.86 649.76 1349.31 649.86 1348.99C649.975 1348.65 650.183 1348.37 650.485 1348.16C650.787 1347.96 651.128 1347.85 651.508 1347.85C651.805 1347.85 652.058 1347.92 652.266 1348.07C652.48 1348.22 652.633 1348.42 652.727 1348.69C652.821 1348.95 652.868 1349.53 652.868 1350.42V1354.66H655.063V1349.5C655.063 1348.86 655.021 1348.37 654.938 1348.02C654.86 1347.68 654.717 1347.37 654.508 1347.1C654.305 1346.83 654.003 1346.61 653.602 1346.44C653.201 1346.26 652.758 1346.17 652.274 1346.17C651.175 1346.17 650.264 1346.64 649.54 1347.58V1346.36H647.906L573.948 1168.66ZM880.079 1094.7H805.566V1145.41H880.079V1094.7ZM880.079 1168.66H805.566V1346.22C805.824 1346.19 806.101 1346.17 806.397 1346.17C807.533 1346.17 808.376 1346.36 808.929 1346.73C809.481 1347.1 809.861 1347.64 810.069 1348.37L807.999 1348.75C807.91 1348.43 807.741 1348.18 807.491 1348.01C807.246 1347.84 806.895 1347.75 806.436 1347.75C806.086 1347.75 805.796 1347.78 805.566 1347.84V1349.02C805.916 1349.14 806.464 1349.28 807.21 1349.45C808.382 1349.72 809.199 1350.04 809.663 1350.43C810.121 1350.82 810.35 1351.36 810.35 1352.06C810.35 1352.82 810.033 1353.48 809.397 1354.02C808.762 1354.57 807.822 1354.84 806.577 1354.84C806.216 1354.84 805.879 1354.82 805.566 1354.77V1363.09H880.079V1168.66ZM805.566 1353.05C805.831 1353.19 806.168 1353.26 806.577 1353.26C807.145 1353.26 807.572 1353.15 807.858 1352.95C808.051 1352.8 808.147 1352.6 808.147 1352.36C808.147 1352.19 808.095 1352.05 807.991 1351.95C807.882 1351.84 807.637 1351.74 807.257 1351.66C806.605 1351.51 806.042 1351.37 805.566 1351.24V1353.05ZM1109.87 1094.7V1363.09H1040.11V1334.35C1030.35 1346.55 1021.44 1354.79 1013.38 1359.06C1002.64 1364.68 990.681 1367.48 977.5 1367.48C951.014 1367.48 930.753 1357.41 916.717 1337.28C902.803 1317.14 895.846 1292.67 895.846 1263.86C895.846 1231.64 903.535 1206.98 918.914 1189.9C934.415 1172.81 954.065 1164.27 977.866 1164.27C989.461 1164.27 999.957 1166.22 1009.36 1170.12C1018.88 1174.03 1027.3 1179.89 1034.62 1187.7V1094.7H1109.87ZM1035.17 1265.33C1035.17 1250.07 1031.94 1238.72 1025.47 1231.27C1019 1223.71 1010.82 1219.92 1000.93 1219.92C992.268 1219.92 985.006 1223.52 979.147 1230.72C973.289 1237.92 970.36 1250.01 970.36 1266.97C970.36 1282.84 973.35 1294.5 979.331 1301.94C985.433 1309.26 992.939 1312.93 1001.85 1312.93C1011.37 1312.93 1019.3 1309.2 1025.65 1301.76C1032 1294.31 1035.17 1282.17 1035.17 1265.33ZM1193.56 1302.31L1119.59 1309.26C1123.86 1327.94 1133.51 1342.34 1148.52 1352.47C1163.65 1362.6 1188.98 1367.67 1224.5 1367.67C1249.64 1367.67 1269.47 1364.55 1284 1358.33C1298.64 1351.98 1309.32 1343.5 1316.04 1332.88C1322.87 1322.26 1326.29 1311.34 1326.29 1300.11C1326.29 1289 1323.05 1278.81 1316.59 1269.54C1310.24 1260.26 1301.02 1253.12 1288.94 1248.12C1276.86 1243.11 1258.43 1239.21 1233.65 1236.4C1217.3 1234.45 1206.68 1232.25 1201.79 1229.81C1196.91 1227.37 1194.47 1223.77 1194.47 1219.01C1194.47 1214.73 1196.36 1211.13 1200.15 1208.2C1204.05 1205.15 1210.22 1203.63 1218.64 1203.63C1226.94 1203.63 1234.02 1205.58 1239.88 1209.49C1244.15 1212.42 1247.2 1216.99 1249.03 1223.22L1319.7 1216.26C1314.82 1203.57 1308.65 1193.5 1301.21 1186.05C1293.88 1178.61 1284.67 1173.11 1273.56 1169.57C1262.58 1166.04 1245.49 1164.27 1222.3 1164.27C1200.33 1164.27 1182.82 1166.58 1169.76 1171.22C1156.7 1175.74 1146.44 1182.63 1139 1191.91C1131.55 1201.19 1127.83 1212.23 1127.83 1225.05C1127.83 1236.77 1131.25 1247.2 1138.08 1256.35C1145.04 1265.51 1153.52 1272.04 1163.53 1275.94C1173.66 1279.73 1191.66 1283.88 1217.54 1288.39C1234.87 1291.44 1245.55 1294.01 1249.58 1296.08C1255.19 1299.01 1258 1303.16 1258 1308.53C1258 1313.29 1255.86 1317.26 1251.59 1320.43C1246.1 1324.7 1238.35 1326.84 1228.34 1326.84C1219.19 1326.84 1211.86 1324.95 1206.37 1321.16C1200.88 1317.38 1196.61 1311.1 1193.56 1302.31ZM528.352 1343.2H524.125V1354.66H528.477C529.331 1354.66 530.013 1354.58 530.524 1354.41C531.206 1354.2 531.748 1353.89 532.149 1353.5C532.68 1352.98 533.089 1352.31 533.375 1351.48C533.61 1350.79 533.727 1349.98 533.727 1349.04C533.727 1347.97 533.602 1347.06 533.352 1346.34C533.102 1345.6 532.737 1344.98 532.258 1344.48C531.779 1343.97 531.203 1343.62 530.532 1343.42C530.032 1343.28 529.305 1343.2 528.352 1343.2ZM526.438 1352.73V1345.14H527.477C528.42 1345.14 529.052 1345.18 529.375 1345.25C529.808 1345.34 530.164 1345.52 530.446 1345.79C530.727 1346.05 530.946 1346.42 531.102 1346.9C531.258 1347.37 531.336 1348.05 531.336 1348.94C531.336 1349.82 531.258 1350.52 531.102 1351.04C530.946 1351.55 530.743 1351.92 530.493 1352.14C530.248 1352.36 529.938 1352.52 529.563 1352.62C529.276 1352.69 528.81 1352.73 528.164 1352.73H526.438ZM541.712 1352.38L539.525 1352.02C539.405 1352.43 539.228 1352.73 538.993 1352.92C538.759 1353.11 538.47 1353.2 538.126 1353.2C537.621 1353.2 537.199 1353.02 536.861 1352.66C536.522 1352.3 536.345 1351.79 536.329 1351.14H541.829C541.861 1349.46 541.52 1348.21 540.806 1347.4C540.092 1346.58 539.118 1346.17 537.884 1346.17C536.785 1346.17 535.876 1346.56 535.158 1347.34C534.439 1348.12 534.079 1349.2 534.079 1350.57C534.079 1351.72 534.353 1352.67 534.9 1353.43C535.592 1354.37 536.66 1354.84 538.103 1354.84C539.014 1354.84 539.772 1354.64 540.376 1354.22C540.986 1353.8 541.431 1353.18 541.712 1352.38ZM539.158 1348.35C539.47 1348.68 539.634 1349.16 539.65 1349.8H536.368C536.363 1349.2 536.517 1348.72 536.829 1348.37C537.142 1348.03 537.538 1347.85 538.017 1347.85C538.465 1347.85 538.845 1348.02 539.158 1348.35ZM544.096 1351.95L541.893 1352.29C542.096 1353.08 542.526 1353.7 543.182 1354.16C543.843 1354.61 544.739 1354.84 545.869 1354.84C547.114 1354.84 548.054 1354.57 548.69 1354.02C549.325 1353.48 549.643 1352.82 549.643 1352.06C549.643 1351.36 549.414 1350.82 548.955 1350.43C548.492 1350.04 547.674 1349.72 546.502 1349.45C545.336 1349.19 544.653 1348.98 544.455 1348.84C544.31 1348.73 544.237 1348.59 544.237 1348.44C544.237 1348.25 544.32 1348.11 544.487 1347.99C544.737 1347.83 545.151 1347.75 545.729 1347.75C546.187 1347.75 546.539 1347.84 546.783 1348.01C547.033 1348.18 547.203 1348.43 547.291 1348.75L549.362 1348.37C549.153 1347.64 548.773 1347.1 548.221 1346.73C547.669 1346.36 546.825 1346.17 545.69 1346.17C544.497 1346.17 543.617 1346.42 543.049 1346.91C542.481 1347.4 542.198 1348 542.198 1348.72C542.198 1349.52 542.526 1350.14 543.182 1350.59C543.656 1350.91 544.778 1351.27 546.549 1351.66C546.929 1351.74 547.174 1351.84 547.283 1351.95C547.388 1352.05 547.44 1352.19 547.44 1352.36C547.44 1352.6 547.343 1352.8 547.151 1352.95C546.864 1353.15 546.437 1353.26 545.869 1353.26C545.354 1353.26 544.953 1353.15 544.666 1352.93C544.38 1352.71 544.19 1352.38 544.096 1351.95ZM550.613 1343.2V1345.23H552.808V1343.2H550.613ZM550.613 1346.36V1354.66H552.808V1346.36H550.613ZM556.41 1355.51L553.903 1355.2C553.899 1355.27 553.897 1355.32 553.896 1355.37C553.895 1355.41 553.895 1355.44 553.895 1355.47C553.895 1356.21 554.189 1356.82 554.778 1357.3C555.366 1357.78 556.363 1358.02 557.77 1358.02C558.515 1358.02 559.129 1357.95 559.613 1357.79C560.103 1357.63 560.494 1357.42 560.785 1357.14C561.077 1356.86 561.304 1356.48 561.465 1356C561.626 1355.52 561.707 1354.78 561.707 1353.8V1346.36H559.653V1347.52C558.986 1346.62 558.14 1346.17 557.113 1346.17C556.119 1346.17 555.285 1346.54 554.613 1347.27C553.947 1348.01 553.613 1349.07 553.613 1350.46C553.613 1351.57 553.869 1352.5 554.379 1353.24C555.03 1354.18 555.913 1354.66 557.028 1354.66C558.028 1354.66 558.856 1354.21 559.512 1353.31V1354.52C559.512 1355.01 559.478 1355.35 559.41 1355.53C559.311 1355.79 559.166 1355.97 558.973 1356.09C558.686 1356.26 558.257 1356.34 557.684 1356.34C557.236 1356.34 556.908 1356.27 556.699 1356.11C556.548 1356 556.452 1355.8 556.41 1355.51ZM556.371 1352.27C556.033 1351.86 555.863 1351.22 555.863 1350.34C555.863 1349.5 556.033 1348.87 556.371 1348.47C556.715 1348.06 557.15 1347.85 557.676 1347.85C558.218 1347.85 558.666 1348.06 559.02 1348.48C559.374 1348.89 559.551 1349.53 559.551 1350.39C559.551 1351.21 559.366 1351.84 558.996 1352.26C558.626 1352.67 558.173 1352.88 557.637 1352.88C557.137 1352.88 556.715 1352.68 556.371 1352.27ZM568.279 1354.66H570.474V1349.5C570.474 1348.86 570.432 1348.37 570.349 1348.02C570.271 1347.68 570.127 1347.37 569.919 1347.1C569.716 1346.83 569.414 1346.61 569.013 1346.44C568.612 1346.26 568.169 1346.17 567.685 1346.17C566.586 1346.17 565.674 1346.64 564.95 1347.58V1346.36H562.911V1354.66H565.107V1350.9C565.107 1349.97 565.161 1349.34 565.271 1348.99C565.385 1348.65 565.594 1348.37 565.896 1348.16C566.198 1347.96 566.539 1347.85 566.919 1347.85C567.216 1347.85 567.469 1347.92 567.677 1348.07C567.89 1348.22 568.044 1348.42 568.138 1348.69C568.232 1348.95 568.279 1349.53 568.279 1350.42V1354.66ZM661.408 1349.2L663.572 1348.81C663.312 1347.92 662.882 1347.26 662.283 1346.83C661.689 1346.39 660.887 1346.17 659.877 1346.17C658.642 1346.17 657.663 1346.55 656.939 1347.32C656.215 1348.08 655.853 1349.15 655.853 1350.52C655.853 1351.87 656.213 1352.93 656.931 1353.7C657.655 1354.46 658.624 1354.84 659.838 1354.84C660.905 1354.84 661.757 1354.59 662.392 1354.09C663.028 1353.58 663.457 1352.83 663.681 1351.84L661.525 1351.48C661.416 1352.05 661.228 1352.46 660.963 1352.7C660.697 1352.94 660.356 1353.05 659.939 1353.05C659.382 1353.05 658.937 1352.85 658.603 1352.45C658.275 1352.04 658.111 1351.34 658.111 1350.36C658.111 1349.47 658.272 1348.84 658.595 1348.47C658.924 1348.09 659.361 1347.9 659.908 1347.9C660.319 1347.9 660.653 1348.01 660.908 1348.23C661.168 1348.45 661.335 1348.77 661.408 1349.2ZM671.276 1352.38L669.089 1352.02C668.969 1352.43 668.792 1352.73 668.557 1352.92C668.323 1353.11 668.034 1353.2 667.69 1353.2C667.185 1353.2 666.763 1353.02 666.424 1352.66C666.086 1352.3 665.909 1351.79 665.893 1351.14H671.393C671.424 1349.46 671.083 1348.21 670.37 1347.4C669.656 1346.58 668.682 1346.17 667.448 1346.17C666.349 1346.17 665.44 1346.56 664.721 1347.34C664.003 1348.12 663.643 1349.2 663.643 1350.57C663.643 1351.72 663.917 1352.67 664.464 1353.43C665.156 1354.37 666.224 1354.84 667.667 1354.84C668.578 1354.84 669.336 1354.64 669.94 1354.22C670.549 1353.8 670.995 1353.18 671.276 1352.38ZM668.721 1348.35C669.034 1348.68 669.198 1349.16 669.214 1349.8H665.932C665.927 1349.2 666.081 1348.72 666.393 1348.37C666.706 1348.03 667.102 1347.85 667.581 1347.85C668.029 1347.85 668.409 1348.02 668.721 1348.35ZM673.66 1351.95L671.457 1352.29C671.66 1353.08 672.089 1353.7 672.746 1354.16C673.407 1354.61 674.303 1354.84 675.433 1354.84C676.678 1354.84 677.618 1354.57 678.253 1354.02C678.889 1353.48 679.207 1352.82 679.207 1352.06C679.207 1351.36 678.977 1350.82 678.519 1350.43C678.056 1350.04 677.238 1349.72 676.066 1349.45C674.899 1349.19 674.217 1348.98 674.019 1348.84C673.873 1348.73 673.8 1348.59 673.8 1348.44C673.8 1348.25 673.884 1348.11 674.05 1347.99C674.3 1347.83 674.714 1347.75 675.293 1347.75C675.751 1347.75 676.102 1347.84 676.347 1348.01C676.597 1348.18 676.766 1348.43 676.855 1348.75L678.925 1348.37C678.717 1347.64 678.337 1347.1 677.785 1346.73C677.233 1346.36 676.389 1346.17 675.253 1346.17C674.061 1346.17 673.181 1346.42 672.613 1346.91C672.045 1347.4 671.761 1348 671.761 1348.72C671.761 1349.52 672.089 1350.14 672.746 1350.59C673.22 1350.91 674.342 1351.27 676.113 1351.66C676.493 1351.74 676.738 1351.84 676.847 1351.95C676.951 1352.05 677.003 1352.19 677.003 1352.36C677.003 1352.6 676.907 1352.8 676.714 1352.95C676.428 1353.15 676.001 1353.26 675.433 1353.26C674.918 1353.26 674.516 1353.15 674.23 1352.93C673.944 1352.71 673.753 1352.38 673.66 1351.95ZM682.317 1352.46H680.122V1354.66H681.184C681.174 1355.1 681.075 1355.45 680.887 1355.7C680.7 1355.96 680.385 1356.16 679.942 1356.3L680.372 1357.21C680.84 1357.04 681.226 1356.81 681.528 1356.52C681.835 1356.23 682.044 1355.9 682.153 1355.53C682.262 1355.17 682.317 1354.67 682.317 1354.03V1352.46ZM691.764 1343.2H687.186V1354.66H691.084C692.558 1354.65 693.488 1354.62 693.873 1354.58C694.488 1354.51 695.004 1354.33 695.42 1354.04C695.842 1353.74 696.173 1353.35 696.413 1352.86C696.657 1352.36 696.78 1351.86 696.78 1351.34C696.78 1350.67 696.592 1350.1 696.217 1349.61C695.842 1349.12 695.306 1348.77 694.608 1348.57C695.103 1348.35 695.493 1348.01 695.78 1347.56C696.071 1347.11 696.217 1346.62 696.217 1346.09C696.217 1345.59 696.1 1345.15 695.866 1344.75C695.631 1344.35 695.337 1344.03 694.983 1343.79C694.634 1343.55 694.235 1343.39 693.788 1343.32C693.345 1343.24 692.67 1343.2 691.764 1343.2ZM689.498 1347.76V1345.11H690.827C691.915 1345.11 692.574 1345.12 692.803 1345.15C693.189 1345.2 693.478 1345.33 693.67 1345.55C693.868 1345.77 693.967 1346.06 693.967 1346.41C693.967 1346.78 693.853 1347.08 693.623 1347.31C693.399 1347.54 693.09 1347.67 692.694 1347.72C692.475 1347.74 691.915 1347.76 691.014 1347.76H689.498ZM689.498 1352.73V1349.66H691.366C692.418 1349.66 693.1 1349.72 693.413 1349.83C693.73 1349.94 693.972 1350.11 694.139 1350.35C694.306 1350.59 694.389 1350.88 694.389 1351.23C694.389 1351.63 694.28 1351.96 694.061 1352.2C693.847 1352.44 693.569 1352.59 693.225 1352.66C693.001 1352.7 692.472 1352.73 691.639 1352.73H689.498ZM703.226 1353.41V1354.66H705.265V1346.36H703.07V1349.86C703.07 1351.05 703.015 1351.79 702.906 1352.1C702.796 1352.4 702.593 1352.66 702.296 1352.87C701.999 1353.07 701.664 1353.17 701.289 1353.17C700.96 1353.17 700.69 1353.1 700.476 1352.95C700.262 1352.79 700.114 1352.58 700.031 1352.32C699.953 1352.05 699.914 1351.34 699.914 1350.17V1346.36H697.718V1351.61C697.718 1352.39 697.817 1353 698.015 1353.45C698.213 1353.89 698.533 1354.23 698.976 1354.48C699.419 1354.72 699.919 1354.84 700.476 1354.84C701.023 1354.84 701.541 1354.72 702.031 1354.46C702.525 1354.21 702.924 1353.86 703.226 1353.41ZM706.586 1343.2V1345.23H708.782V1343.2H706.586ZM706.586 1346.36V1354.66H708.782V1346.36H706.586ZM710.079 1343.2V1354.66H712.275V1343.2H710.079ZM719.143 1354.66H721.182V1343.2H718.987V1347.33C718.31 1346.56 717.507 1346.17 716.58 1346.17C715.57 1346.17 714.734 1346.54 714.073 1347.27C713.411 1348 713.08 1349.07 713.08 1350.48C713.08 1351.85 713.419 1352.92 714.096 1353.7C714.778 1354.46 715.596 1354.84 716.549 1354.84C717.018 1354.84 717.481 1354.73 717.94 1354.5C718.403 1354.27 718.804 1353.91 719.143 1353.44V1354.66ZM715.69 1352.25C715.445 1351.85 715.323 1351.21 715.323 1350.33C715.323 1349.5 715.497 1348.89 715.846 1348.48C716.2 1348.06 716.638 1347.85 717.159 1347.85C717.695 1347.85 718.135 1348.06 718.479 1348.48C718.823 1348.9 718.994 1349.59 718.994 1350.54C718.994 1351.39 718.817 1352.04 718.463 1352.47C718.109 1352.9 717.679 1353.11 717.174 1353.11C716.539 1353.11 716.044 1352.82 715.69 1352.25ZM722.394 1343.2V1345.23H724.589V1343.2H722.394Z" fill="#001AA7"/>
<path d="M44.0908 1335.75H1286.1V1425.58H44.0908V1335.75Z" fill="#001AA7"/>
<mask id="path-4-outside-1_51_6" maskUnits="userSpaceOnUse" x="107.828" y="1351.75" width="1120" height="60" fill="black">
<rect fill="white" x="107.828" y="1351.75" width="1120" height="60"/>
<path d="M108.828 1353.51H125.335C129.058 1353.51 131.896 1353.79 133.849 1354.36C136.473 1355.14 138.721 1356.51 140.592 1358.48C142.463 1360.46 143.887 1362.88 144.864 1365.74C145.84 1368.59 146.328 1372.11 146.328 1376.3C146.328 1379.98 145.871 1383.16 144.955 1385.82C143.837 1389.08 142.24 1391.71 140.165 1393.73C138.598 1395.25 136.483 1396.44 133.818 1397.3C131.824 1397.93 129.16 1398.24 125.824 1398.24H108.828V1353.51ZM117.86 1361.08V1390.7H124.603C127.125 1390.7 128.946 1390.56 130.065 1390.28C131.53 1389.91 132.74 1389.29 133.696 1388.42C134.672 1387.54 135.466 1386.11 136.076 1384.11C136.686 1382.1 136.991 1379.36 136.991 1375.91C136.991 1372.45 136.686 1369.79 136.076 1367.94C135.466 1366.09 134.611 1364.65 133.513 1363.61C132.414 1362.57 131.021 1361.87 129.333 1361.5C128.071 1361.22 125.6 1361.08 121.918 1361.08H117.86Z"/>
<path d="M168.973 1387.93L177.517 1389.36C176.418 1392.49 174.679 1394.89 172.299 1396.53C169.939 1398.16 166.979 1398.97 163.42 1398.97C157.785 1398.97 153.615 1397.13 150.909 1393.45C148.773 1390.5 147.705 1386.78 147.705 1382.28C147.705 1376.91 149.109 1372.71 151.916 1369.68C154.723 1366.63 158.273 1365.1 162.565 1365.1C167.386 1365.1 171.19 1366.7 173.977 1369.89C176.764 1373.07 178.097 1377.94 177.974 1384.51H156.493C156.554 1387.05 157.246 1389.04 158.568 1390.46C159.89 1391.86 161.538 1392.57 163.511 1392.57C164.854 1392.57 165.983 1392.2 166.898 1391.47C167.814 1390.74 168.505 1389.56 168.973 1387.93ZM169.461 1379.26C169.4 1376.78 168.759 1374.9 167.539 1373.62C166.318 1372.32 164.833 1371.66 163.084 1371.66C161.212 1371.66 159.666 1372.35 158.446 1373.71C157.225 1375.07 156.625 1376.92 156.646 1379.26H169.461Z"/>
<path d="M178.222 1389L186.827 1387.68C187.193 1389.35 187.936 1390.62 189.054 1391.5C190.173 1392.35 191.74 1392.78 193.753 1392.78C195.971 1392.78 197.639 1392.37 198.758 1391.56C199.51 1390.99 199.887 1390.23 199.887 1389.27C199.887 1388.62 199.683 1388.08 199.276 1387.65C198.849 1387.25 197.893 1386.87 196.408 1386.52C189.492 1385 185.108 1383.61 183.257 1382.34C180.694 1380.59 179.412 1378.16 179.412 1375.05C179.412 1372.24 180.521 1369.88 182.738 1367.97C184.955 1366.06 188.393 1365.1 193.052 1365.1C197.486 1365.1 200.782 1365.83 202.938 1367.27C205.094 1368.71 206.579 1370.85 207.393 1373.68L199.307 1375.17C198.961 1373.91 198.3 1372.95 197.324 1372.27C196.367 1371.6 194.994 1371.27 193.204 1371.27C190.946 1371.27 189.329 1371.58 188.353 1372.21C187.702 1372.66 187.376 1373.24 187.376 1373.95C187.376 1374.56 187.661 1375.08 188.231 1375.51C189.004 1376.08 191.668 1376.88 196.225 1377.92C200.802 1378.96 203.996 1380.23 205.806 1381.73C207.596 1383.26 208.491 1385.39 208.491 1388.11C208.491 1391.08 207.251 1393.63 204.769 1395.77C202.287 1397.91 198.615 1398.97 193.753 1398.97C189.339 1398.97 185.84 1398.08 183.257 1396.29C180.694 1394.5 179.016 1392.07 178.222 1389Z"/>
<path d="M212.279 1361.44V1353.51H220.853V1361.44H212.279ZM212.279 1398.24V1365.84H220.853V1398.24H212.279Z"/>
<path d="M225.128 1400.38L234.923 1401.57C235.086 1402.71 235.462 1403.49 236.052 1403.92C236.866 1404.53 238.147 1404.83 239.897 1404.83C242.135 1404.83 243.813 1404.5 244.932 1403.83C245.684 1403.38 246.254 1402.66 246.64 1401.66C246.905 1400.95 247.037 1399.63 247.037 1397.72V1392.99C244.474 1396.49 241.24 1398.24 237.334 1398.24C232.981 1398.24 229.533 1396.4 226.99 1392.72C224.996 1389.81 223.999 1386.19 223.999 1381.86C223.999 1376.42 225.301 1372.27 227.905 1369.41C230.529 1366.54 233.784 1365.1 237.669 1365.1C241.677 1365.1 244.982 1366.86 247.586 1370.38V1365.84H255.611V1394.92C255.611 1398.74 255.296 1401.6 254.665 1403.49C254.035 1405.38 253.15 1406.87 252.011 1407.94C250.872 1409.02 249.346 1409.87 247.434 1410.48C245.542 1411.09 243.142 1411.39 240.233 1411.39C234.74 1411.39 230.845 1410.45 228.546 1408.56C226.247 1406.68 225.098 1404.3 225.098 1401.41C225.098 1401.13 225.108 1400.78 225.128 1400.38ZM232.787 1381.37C232.787 1384.81 233.448 1387.33 234.771 1388.93C236.113 1390.52 237.761 1391.32 239.714 1391.32C241.809 1391.32 243.579 1390.5 245.023 1388.87C246.467 1387.23 247.19 1384.8 247.19 1381.58C247.19 1378.22 246.498 1375.73 245.115 1374.11C243.731 1372.48 241.982 1371.66 239.866 1371.66C237.812 1371.66 236.113 1372.47 234.771 1374.08C233.448 1375.66 232.787 1378.09 232.787 1381.37Z"/>
<path d="M289.851 1398.24H281.277V1381.7C281.277 1378.2 281.094 1375.95 280.727 1374.93C280.361 1373.89 279.761 1373.09 278.927 1372.52C278.113 1371.95 277.127 1371.66 275.967 1371.66C274.482 1371.66 273.15 1372.07 271.97 1372.88C270.79 1373.7 269.977 1374.78 269.529 1376.12C269.102 1377.46 268.888 1379.94 268.888 1383.56V1398.24H260.314V1365.84H268.278V1370.6C271.106 1366.93 274.665 1365.1 278.958 1365.1C280.849 1365.1 282.579 1365.45 284.145 1366.14C285.711 1366.81 286.891 1367.68 287.684 1368.74C288.498 1369.79 289.058 1370.99 289.363 1372.34C289.688 1373.68 289.851 1375.6 289.851 1378.1V1398.24Z"/>
<path d="M294.828 1361.44V1353.51H303.402V1361.44H294.828ZM294.828 1398.24V1365.84H303.402V1398.24H294.828Z"/>
<path d="M337.947 1398.24H329.373V1381.7C329.373 1378.2 329.19 1375.95 328.824 1374.93C328.458 1373.89 327.857 1373.09 327.023 1372.52C326.21 1371.95 325.223 1371.66 324.064 1371.66C322.579 1371.66 321.246 1372.07 320.066 1372.88C318.887 1373.7 318.073 1374.78 317.625 1376.12C317.198 1377.46 316.985 1379.94 316.985 1383.56V1398.24H308.41V1365.84H316.374V1370.6C319.202 1366.93 322.762 1365.1 327.054 1365.1C328.946 1365.1 330.675 1365.45 332.241 1366.14C333.808 1366.81 334.987 1367.68 335.781 1368.74C336.594 1369.79 337.154 1370.99 337.459 1372.34C337.784 1373.68 337.947 1375.6 337.947 1378.1V1398.24Z"/>
<path d="M342.131 1400.38L351.926 1401.57C352.089 1402.71 352.465 1403.49 353.055 1403.92C353.869 1404.53 355.15 1404.83 356.9 1404.83C359.137 1404.83 360.815 1404.5 361.934 1403.83C362.687 1403.38 363.257 1402.66 363.643 1401.66C363.907 1400.95 364.04 1399.63 364.04 1397.72V1392.99C361.477 1396.49 358.242 1398.24 354.336 1398.24C349.983 1398.24 346.535 1396.4 343.992 1392.72C341.999 1389.81 341.002 1386.19 341.002 1381.86C341.002 1376.42 342.304 1372.27 344.908 1369.41C347.532 1366.54 350.787 1365.1 354.672 1365.1C358.68 1365.1 361.985 1366.86 364.589 1370.38V1365.84H372.614V1394.92C372.614 1398.74 372.299 1401.6 371.668 1403.49C371.037 1405.38 370.153 1406.87 369.013 1407.94C367.874 1409.02 366.349 1409.87 364.436 1410.48C362.545 1411.09 360.144 1411.39 357.235 1411.39C351.743 1411.39 347.847 1410.45 345.549 1408.56C343.25 1406.68 342.101 1404.3 342.101 1401.41C342.101 1401.13 342.111 1400.78 342.131 1400.38ZM349.79 1381.37C349.79 1384.81 350.451 1387.33 351.773 1388.93C353.116 1390.52 354.764 1391.32 356.716 1391.32C358.812 1391.32 360.582 1390.5 362.026 1388.87C363.47 1387.23 364.192 1384.8 364.192 1381.58C364.192 1378.22 363.501 1375.73 362.117 1374.11C360.734 1372.48 358.985 1371.66 356.869 1371.66C354.814 1371.66 353.116 1372.47 351.773 1374.08C350.451 1375.66 349.79 1378.09 349.79 1381.37Z"/>
<path d="M391.082 1398.24V1353.51H424.25V1361.08H400.114V1370.99H422.572V1378.53H400.114V1390.7H425.104V1398.24H391.082Z"/>
<path d="M424.833 1398.24L436.52 1381.55L425.321 1365.84H435.787L441.524 1374.75L447.566 1365.84H457.635L446.65 1381.18L458.642 1398.24H448.115L441.524 1388.2L434.872 1398.24H424.833Z"/>
<path d="M459.744 1365.84H467.739V1370.6C468.776 1368.97 470.18 1367.65 471.949 1366.63C473.719 1365.61 475.682 1365.1 477.838 1365.1C481.602 1365.1 484.795 1366.58 487.42 1369.53C490.044 1372.48 491.356 1376.59 491.356 1381.86C491.356 1387.27 490.034 1391.48 487.389 1394.49C484.745 1397.48 481.541 1398.97 477.777 1398.97C475.987 1398.97 474.36 1398.62 472.895 1397.91C471.451 1397.19 469.925 1395.97 468.318 1394.24V1410.57H459.744V1365.84ZM468.227 1381.49C468.227 1385.13 468.949 1387.83 470.393 1389.58C471.838 1391.3 473.597 1392.17 475.672 1392.17C477.666 1392.17 479.323 1391.38 480.646 1389.79C481.968 1388.18 482.629 1385.56 482.629 1381.92C482.629 1378.52 481.948 1376 480.585 1374.35C479.222 1372.7 477.533 1371.88 475.519 1371.88C473.424 1371.88 471.685 1372.69 470.302 1374.32C468.918 1375.93 468.227 1378.32 468.227 1381.49Z"/>
<path d="M513.207 1387.93L521.751 1389.36C520.652 1392.49 518.913 1394.89 516.533 1396.53C514.173 1398.16 511.213 1398.97 507.654 1398.97C502.019 1398.97 497.849 1397.13 495.143 1393.45C493.007 1390.5 491.939 1386.78 491.939 1382.28C491.939 1376.91 493.343 1372.71 496.15 1369.68C498.957 1366.63 502.507 1365.1 506.799 1365.1C511.62 1365.1 515.424 1366.7 518.211 1369.89C520.998 1373.07 522.33 1377.94 522.208 1384.51H500.727C500.788 1387.05 501.48 1389.04 502.802 1390.46C504.124 1391.86 505.772 1392.57 507.745 1392.57C509.088 1392.57 510.217 1392.2 511.132 1391.47C512.048 1390.74 512.739 1389.56 513.207 1387.93ZM513.695 1379.26C513.634 1376.78 512.993 1374.9 511.773 1373.62C510.552 1372.32 509.067 1371.66 507.318 1371.66C505.446 1371.66 503.9 1372.35 502.68 1373.71C501.459 1375.07 500.859 1376.92 500.88 1379.26H513.695Z"/>
<path d="M533.685 1398.24H525.111V1365.84H533.075V1370.44C534.438 1368.27 535.658 1366.83 536.736 1366.14C537.835 1365.45 539.076 1365.1 540.459 1365.1C542.412 1365.1 544.294 1365.64 546.104 1366.72L543.449 1374.2C542.005 1373.26 540.662 1372.79 539.422 1372.79C538.221 1372.79 537.204 1373.13 536.37 1373.8C535.536 1374.45 534.875 1375.64 534.387 1377.37C533.919 1379.1 533.685 1382.72 533.685 1388.23V1398.24Z"/>
<path d="M546.077 1361.44V1353.51H554.651V1361.44H546.077ZM546.077 1398.24V1365.84H554.651V1398.24H546.077Z"/>
<path d="M578.486 1387.93L587.03 1389.36C585.931 1392.49 584.192 1394.89 581.812 1396.53C579.452 1398.16 576.492 1398.97 572.933 1398.97C567.298 1398.97 563.128 1397.13 560.422 1393.45C558.286 1390.5 557.218 1386.78 557.218 1382.28C557.218 1376.91 558.622 1372.71 561.429 1369.68C564.236 1366.63 567.786 1365.1 572.078 1365.1C576.899 1365.1 580.703 1366.7 583.49 1369.89C586.277 1373.07 587.609 1377.94 587.487 1384.51H566.006C566.067 1387.05 566.759 1389.04 568.081 1390.46C569.403 1391.86 571.051 1392.57 573.024 1392.57C574.367 1392.57 575.496 1392.2 576.411 1391.47C577.326 1390.74 578.018 1389.56 578.486 1387.93ZM578.974 1379.26C578.913 1376.78 578.272 1374.9 577.052 1373.62C575.831 1372.32 574.346 1371.66 572.597 1371.66C570.725 1371.66 569.179 1372.35 567.959 1373.71C566.738 1375.07 566.138 1376.92 566.159 1379.26H578.974Z"/>
<path d="M620.232 1398.24H611.658V1381.7C611.658 1378.2 611.474 1375.95 611.108 1374.93C610.742 1373.89 610.142 1373.09 609.308 1372.52C608.494 1371.95 607.508 1371.66 606.348 1371.66C604.863 1371.66 603.531 1372.07 602.351 1372.88C601.171 1373.7 600.357 1374.78 599.91 1376.12C599.483 1377.46 599.269 1379.94 599.269 1383.56V1398.24H590.695V1365.84H598.659V1370.6C601.486 1366.93 605.046 1365.1 609.339 1365.1C611.23 1365.1 612.959 1365.45 614.526 1366.14C616.092 1366.81 617.272 1367.68 618.065 1368.74C618.879 1369.79 619.438 1370.99 619.744 1372.34C620.069 1373.68 620.232 1375.6 620.232 1378.1V1398.24Z"/>
<path d="M653.464 1375.42L645.012 1376.94C644.727 1375.25 644.077 1373.98 643.059 1373.13C642.063 1372.27 640.761 1371.85 639.154 1371.85C637.018 1371.85 635.309 1372.59 634.028 1374.08C632.766 1375.54 632.136 1378 632.136 1381.46C632.136 1385.3 632.776 1388.02 634.058 1389.61C635.36 1391.19 637.099 1391.99 639.276 1391.99C640.903 1391.99 642.236 1391.53 643.273 1390.61C644.31 1389.68 645.043 1388.08 645.47 1385.82L653.892 1387.26C653.017 1391.12 651.339 1394.04 648.857 1396.01C646.375 1397.99 643.049 1398.97 638.879 1398.97C634.139 1398.97 630.356 1397.48 627.528 1394.49C624.721 1391.5 623.317 1387.36 623.317 1382.07C623.317 1376.72 624.731 1372.56 627.559 1369.59C630.386 1366.6 634.211 1365.1 639.032 1365.1C642.978 1365.1 646.111 1365.96 648.43 1367.67C650.769 1369.36 652.447 1371.94 653.464 1375.42Z"/>
<path d="M675.011 1387.93L683.554 1389.36C682.456 1392.49 680.716 1394.89 678.336 1396.53C675.977 1398.16 673.017 1398.97 669.457 1398.97C663.822 1398.97 659.652 1397.13 656.947 1393.45C654.811 1390.5 653.743 1386.78 653.743 1382.28C653.743 1376.91 655.146 1372.71 657.954 1369.68C660.761 1366.63 664.311 1365.1 668.603 1365.1C673.424 1365.1 677.228 1366.7 680.015 1369.89C682.802 1373.07 684.134 1377.94 684.012 1384.51H662.531C662.592 1387.05 663.283 1389.04 664.605 1390.46C665.928 1391.86 667.575 1392.57 669.549 1392.57C670.891 1392.57 672.02 1392.2 672.936 1391.47C673.851 1390.74 674.543 1389.56 675.011 1387.93ZM675.499 1379.26C675.438 1376.78 674.797 1374.9 673.576 1373.62C672.356 1372.32 670.871 1371.66 669.121 1371.66C667.25 1371.66 665.704 1372.35 664.483 1373.71C663.263 1375.07 662.663 1376.92 662.683 1379.26H675.499Z"/>
<path d="M684.26 1389L692.864 1387.68C693.231 1389.35 693.973 1390.62 695.092 1391.5C696.211 1392.35 697.777 1392.78 699.791 1392.78C702.008 1392.78 703.676 1392.37 704.795 1391.56C705.548 1390.99 705.924 1390.23 705.924 1389.27C705.924 1388.62 705.721 1388.08 705.314 1387.65C704.887 1387.25 703.931 1386.87 702.446 1386.52C695.529 1385 691.146 1383.61 689.294 1382.34C686.731 1380.59 685.45 1378.16 685.45 1375.05C685.45 1372.24 686.558 1369.88 688.776 1367.97C690.993 1366.06 694.431 1365.1 699.089 1365.1C703.524 1365.1 706.819 1365.83 708.976 1367.27C711.132 1368.71 712.617 1370.85 713.43 1373.68L705.344 1375.17C704.999 1373.91 704.337 1372.95 703.361 1372.27C702.405 1371.6 701.032 1371.27 699.242 1371.27C696.984 1371.27 695.367 1371.58 694.39 1372.21C693.739 1372.66 693.414 1373.24 693.414 1373.95C693.414 1374.56 693.699 1375.08 694.268 1375.51C695.041 1376.08 697.706 1376.88 702.263 1377.92C706.84 1378.96 710.033 1380.23 711.844 1381.73C713.634 1383.26 714.529 1385.39 714.529 1388.11C714.529 1391.08 713.288 1393.63 710.806 1395.77C708.325 1397.91 704.653 1398.97 699.791 1398.97C695.377 1398.97 691.878 1398.08 689.294 1396.29C686.731 1394.5 685.053 1392.07 684.26 1389Z"/>
<path d="M718.103 1389.67H726.677V1395.8C726.677 1398.28 726.463 1400.24 726.036 1401.66C725.609 1403.1 724.795 1404.4 723.595 1405.53C722.415 1406.67 720.91 1407.57 719.079 1408.22L717.401 1404.68C719.13 1404.11 720.361 1403.33 721.093 1402.33C721.825 1401.33 722.212 1399.97 722.252 1398.24H718.103V1389.67Z"/>
<path d="M745.694 1353.51H763.575C767.114 1353.51 769.749 1353.66 771.478 1353.97C773.227 1354.25 774.783 1354.86 776.146 1355.8C777.53 1356.73 778.679 1357.98 779.594 1359.55C780.51 1361.1 780.967 1362.84 780.967 1364.77C780.967 1366.86 780.398 1368.79 779.259 1370.54C778.14 1372.28 776.614 1373.6 774.682 1374.47C777.407 1375.27 779.503 1376.62 780.967 1378.53C782.432 1380.44 783.164 1382.69 783.164 1385.27C783.164 1387.31 782.686 1389.29 781.73 1391.22C780.794 1393.14 779.503 1394.67 777.855 1395.83C776.228 1396.97 774.214 1397.67 771.813 1397.94C770.308 1398.1 766.677 1398.2 760.92 1398.24H745.694V1353.51ZM754.726 1360.95V1371.3H760.645C764.165 1371.3 766.351 1371.25 767.206 1371.15C768.752 1370.96 769.962 1370.43 770.837 1369.56C771.732 1368.66 772.18 1367.49 772.18 1366.05C772.18 1364.67 771.793 1363.55 771.02 1362.69C770.267 1361.82 769.138 1361.29 767.633 1361.11C766.738 1361.01 764.165 1360.95 759.913 1360.95H754.726ZM754.726 1378.74V1390.7H763.087C766.341 1390.7 768.406 1390.61 769.281 1390.43C770.623 1390.19 771.712 1389.6 772.546 1388.66C773.4 1387.7 773.827 1386.43 773.827 1384.85C773.827 1383.5 773.502 1382.36 772.851 1381.43C772.2 1380.49 771.254 1379.81 770.013 1379.38C768.793 1378.96 766.128 1378.74 762.019 1378.74H754.726Z"/>
<path d="M808.341 1398.24V1393.39C807.162 1395.12 805.605 1396.48 803.673 1397.48C801.761 1398.48 799.737 1398.97 797.601 1398.97C795.424 1398.97 793.471 1398.5 791.742 1397.54C790.013 1396.58 788.762 1395.24 787.989 1393.51C787.216 1391.78 786.83 1389.39 786.83 1386.34V1365.84H795.404V1380.73C795.404 1385.28 795.556 1388.08 795.862 1389.12C796.187 1390.14 796.767 1390.95 797.601 1391.56C798.435 1392.15 799.493 1392.44 800.774 1392.44C802.239 1392.44 803.551 1392.05 804.71 1391.25C805.87 1390.44 806.663 1389.44 807.09 1388.26C807.518 1387.06 807.731 1384.14 807.731 1379.51V1365.84H816.305V1398.24H808.341Z"/>
<path d="M821.466 1361.44V1353.51H830.04V1361.44H821.466ZM821.466 1398.24V1365.84H830.04V1398.24H821.466Z"/>
<path d="M835.109 1398.24V1353.51H843.683V1398.24H835.109Z"/>
<path d="M878.472 1398.24H870.508V1393.48C869.186 1395.33 867.619 1396.72 865.809 1397.63C864.019 1398.53 862.208 1398.97 860.378 1398.97C856.655 1398.97 853.461 1397.48 850.796 1394.49C848.152 1391.48 846.83 1387.29 846.83 1381.92C846.83 1376.42 848.121 1372.25 850.705 1369.41C853.288 1366.54 856.553 1365.1 860.5 1365.1C864.121 1365.1 867.253 1366.61 869.898 1369.62V1353.51H878.472V1398.24ZM855.587 1381.34C855.587 1384.8 856.065 1387.3 857.021 1388.84C858.404 1391.08 860.337 1392.2 862.819 1392.2C864.792 1392.2 866.47 1391.37 867.853 1389.7C869.237 1388.01 869.928 1385.5 869.928 1382.16C869.928 1378.44 869.257 1375.76 867.914 1374.14C866.572 1372.49 864.853 1371.66 862.758 1371.66C860.723 1371.66 859.015 1372.48 857.631 1374.11C856.269 1375.71 855.587 1378.12 855.587 1381.34Z"/>
<path d="M883.205 1361.44V1353.51H891.779V1361.44H883.205ZM883.205 1398.24V1365.84H891.779V1398.24H883.205Z"/>
<path d="M926.324 1398.24H917.75V1381.7C917.75 1378.2 917.567 1375.95 917.201 1374.93C916.835 1373.89 916.234 1373.09 915.4 1372.52C914.587 1371.95 913.6 1371.66 912.441 1371.66C910.956 1371.66 909.623 1372.07 908.443 1372.88C907.264 1373.7 906.45 1374.78 906.002 1376.12C905.575 1377.46 905.362 1379.94 905.362 1383.56V1398.24H896.787V1365.84H904.751V1370.6C907.579 1366.93 911.139 1365.1 915.431 1365.1C917.323 1365.1 919.052 1365.45 920.618 1366.14C922.185 1366.81 923.364 1367.68 924.158 1368.74C924.971 1369.79 925.531 1370.99 925.836 1372.34C926.161 1373.68 926.324 1375.6 926.324 1378.1V1398.24Z"/>
<path d="M930.508 1400.38L940.303 1401.57C940.466 1402.71 940.842 1403.49 941.432 1403.92C942.246 1404.53 943.527 1404.83 945.277 1404.83C947.514 1404.83 949.192 1404.5 950.311 1403.83C951.064 1403.38 951.634 1402.66 952.02 1401.66C952.284 1400.95 952.417 1399.63 952.417 1397.72V1392.99C949.854 1396.49 946.619 1398.24 942.713 1398.24C938.36 1398.24 934.912 1396.4 932.369 1392.72C930.376 1389.81 929.379 1386.19 929.379 1381.86C929.379 1376.42 930.681 1372.27 933.285 1369.41C935.909 1366.54 939.164 1365.1 943.049 1365.1C947.057 1365.1 950.362 1366.86 952.966 1370.38V1365.84H960.991V1394.92C960.991 1398.74 960.676 1401.6 960.045 1403.49C959.414 1405.38 958.53 1406.87 957.39 1407.94C956.251 1409.02 954.726 1409.87 952.813 1410.48C950.922 1411.09 948.521 1411.39 945.612 1411.39C940.12 1411.39 936.224 1410.45 933.926 1408.56C931.627 1406.68 930.478 1404.3 930.478 1401.41C930.478 1401.13 930.488 1400.78 930.508 1400.38ZM938.167 1381.37C938.167 1384.81 938.828 1387.33 940.15 1388.93C941.493 1390.52 943.141 1391.32 945.094 1391.32C947.189 1391.32 948.959 1390.5 950.403 1388.87C951.847 1387.23 952.569 1384.8 952.569 1381.58C952.569 1378.22 951.878 1375.73 950.494 1374.11C949.111 1372.48 947.362 1371.66 945.246 1371.66C943.192 1371.66 941.493 1372.47 940.15 1374.08C938.828 1375.66 938.167 1378.09 938.167 1381.37Z"/>
<path d="M977.17 1383.69L985.958 1382.83C986.487 1385.78 987.555 1387.95 989.162 1389.33C990.789 1390.71 992.976 1391.41 995.722 1391.41C998.631 1391.41 1000.82 1390.8 1002.28 1389.58C1003.77 1388.33 1004.51 1386.89 1004.51 1385.24C1004.51 1384.19 1004.19 1383.29 1003.56 1382.56C1002.95 1381.81 1001.88 1381.15 1000.33 1380.6C999.272 1380.24 996.862 1379.59 993.098 1378.65C988.257 1377.45 984.86 1375.98 982.907 1374.23C980.161 1371.77 978.788 1368.77 978.788 1365.23C978.788 1362.95 979.428 1360.82 980.71 1358.85C982.012 1356.86 983.873 1355.34 986.294 1354.3C988.735 1353.26 991.674 1352.75 995.112 1352.75C1000.73 1352.75 1004.95 1353.98 1007.78 1356.44C1010.62 1358.9 1012.12 1362.18 1012.26 1366.29L1003.23 1366.69C1002.84 1364.39 1002.01 1362.74 1000.73 1361.75C999.465 1360.73 997.563 1360.22 995.021 1360.22C992.396 1360.22 990.342 1360.76 988.857 1361.84C987.901 1362.53 987.423 1363.46 987.423 1364.62C987.423 1365.67 987.87 1366.58 988.765 1367.33C989.905 1368.29 992.671 1369.28 997.065 1370.32C1001.46 1371.36 1004.7 1372.44 1006.8 1373.56C1008.91 1374.65 1010.56 1376.17 1011.74 1378.1C1012.94 1380.01 1013.54 1382.38 1013.54 1385.21C1013.54 1387.78 1012.83 1390.18 1011.41 1392.41C1009.98 1394.65 1007.97 1396.32 1005.36 1397.42C1002.76 1398.5 999.516 1399.03 995.631 1399.03C989.976 1399.03 985.633 1397.73 982.602 1395.13C979.571 1392.51 977.76 1388.69 977.17 1383.69Z"/>
<path d="M1015.35 1381.58C1015.35 1378.73 1016.05 1375.98 1017.45 1373.31C1018.86 1370.65 1020.84 1368.61 1023.4 1367.21C1025.99 1365.81 1028.86 1365.1 1032.04 1365.1C1036.94 1365.1 1040.96 1366.7 1044.09 1369.89C1047.22 1373.07 1048.79 1377.09 1048.79 1381.95C1048.79 1386.85 1047.2 1390.92 1044.03 1394.15C1040.88 1397.37 1036.9 1398.97 1032.1 1398.97C1029.13 1398.97 1026.29 1398.3 1023.58 1396.96C1020.9 1395.62 1018.86 1393.65 1017.45 1391.07C1016.05 1388.47 1015.35 1385.3 1015.35 1381.58ZM1024.13 1382.04C1024.13 1385.25 1024.9 1387.71 1026.42 1389.42C1027.95 1391.13 1029.83 1391.99 1032.07 1391.99C1034.31 1391.99 1036.18 1391.13 1037.68 1389.42C1039.21 1387.71 1039.97 1385.23 1039.97 1381.98C1039.97 1378.8 1039.21 1376.36 1037.68 1374.65C1036.18 1372.95 1034.31 1372.09 1032.07 1372.09C1029.83 1372.09 1027.95 1372.95 1026.42 1374.65C1024.9 1376.36 1024.13 1378.82 1024.13 1382.04Z"/>
<path d="M1051.78 1398.24V1353.51H1060.36V1398.24H1051.78Z"/>
<path d="M1086.75 1398.24V1393.39C1085.57 1395.12 1084.02 1396.48 1082.09 1397.48C1080.17 1398.48 1078.15 1398.97 1076.01 1398.97C1073.84 1398.97 1071.88 1398.5 1070.16 1397.54C1068.43 1396.58 1067.18 1395.24 1066.4 1393.51C1065.63 1391.78 1065.24 1389.39 1065.24 1386.34V1365.84H1073.82V1380.73C1073.82 1385.28 1073.97 1388.08 1074.27 1389.12C1074.6 1390.14 1075.18 1390.95 1076.01 1391.56C1076.85 1392.15 1077.91 1392.44 1079.19 1392.44C1080.65 1392.44 1081.96 1392.05 1083.12 1391.25C1084.28 1390.44 1085.08 1389.44 1085.5 1388.26C1085.93 1387.06 1086.14 1384.14 1086.14 1379.51V1365.84H1094.72V1398.24H1086.75Z"/>
<path d="M1114.74 1365.84V1372.67H1108.88V1385.73C1108.88 1388.38 1108.93 1389.92 1109.03 1390.37C1109.16 1390.8 1109.41 1391.15 1109.8 1391.44C1110.2 1391.72 1110.69 1391.86 1111.26 1391.86C1112.05 1391.86 1113.2 1391.59 1114.71 1391.04L1115.44 1397.69C1113.45 1398.55 1111.19 1398.97 1108.67 1398.97C1107.12 1398.97 1105.73 1398.72 1104.49 1398.21C1103.25 1397.68 1102.33 1397.01 1101.74 1396.2C1101.17 1395.36 1100.77 1394.24 1100.55 1392.84C1100.37 1391.84 1100.28 1389.83 1100.28 1386.8V1372.67H1096.34V1365.84H1100.28V1359.4L1108.88 1354.39V1365.84H1114.74Z"/>
<path d="M1116.94 1361.44V1353.51H1125.51V1361.44H1116.94ZM1116.94 1398.24V1365.84H1125.51V1398.24H1116.94Z"/>
<path d="M1128.6 1381.58C1128.6 1378.73 1129.3 1375.98 1130.7 1373.31C1132.11 1370.65 1134.09 1368.61 1136.65 1367.21C1139.24 1365.81 1142.12 1365.1 1145.29 1365.1C1150.19 1365.1 1154.21 1366.7 1157.34 1369.89C1160.48 1373.07 1162.04 1377.09 1162.04 1381.95C1162.04 1386.85 1160.46 1390.92 1157.28 1394.15C1154.13 1397.37 1150.15 1398.97 1145.35 1398.97C1142.38 1398.97 1139.54 1398.3 1136.84 1396.96C1134.15 1395.62 1132.11 1393.65 1130.7 1391.07C1129.3 1388.47 1128.6 1385.3 1128.6 1381.58ZM1137.39 1382.04C1137.39 1385.25 1138.15 1387.71 1139.68 1389.42C1141.2 1391.13 1143.08 1391.99 1145.32 1391.99C1147.56 1391.99 1149.43 1391.13 1150.93 1389.42C1152.46 1387.71 1153.22 1385.23 1153.22 1381.98C1153.22 1378.8 1152.46 1376.36 1150.93 1374.65C1149.43 1372.95 1147.56 1372.09 1145.32 1372.09C1143.08 1372.09 1141.2 1372.95 1139.68 1374.65C1138.15 1376.36 1137.39 1378.82 1137.39 1382.04Z"/>
<path d="M1194.51 1398.24H1185.94V1381.7C1185.94 1378.2 1185.75 1375.95 1185.39 1374.93C1185.02 1373.89 1184.42 1373.09 1183.59 1372.52C1182.77 1371.95 1181.79 1371.66 1180.63 1371.66C1179.14 1371.66 1177.81 1372.07 1176.63 1372.88C1175.45 1373.7 1174.64 1374.78 1174.19 1376.12C1173.76 1377.46 1173.55 1379.94 1173.55 1383.56V1398.24H1164.97V1365.84H1172.94V1370.6C1175.77 1366.93 1179.33 1365.1 1183.62 1365.1C1185.51 1365.1 1187.24 1365.45 1188.81 1366.14C1190.37 1366.81 1191.55 1367.68 1192.35 1368.74C1193.16 1369.79 1193.72 1370.99 1194.02 1372.34C1194.35 1373.68 1194.51 1375.6 1194.51 1378.1V1398.24Z"/>
<path d="M1196.47 1389L1205.07 1387.68C1205.44 1389.35 1206.18 1390.62 1207.3 1391.5C1208.42 1392.35 1209.99 1392.78 1212 1392.78C1214.22 1392.78 1215.88 1392.37 1217 1391.56C1217.76 1390.99 1218.13 1390.23 1218.13 1389.27C1218.13 1388.62 1217.93 1388.08 1217.52 1387.65C1217.1 1387.25 1216.14 1386.87 1214.65 1386.52C1207.74 1385 1203.35 1383.61 1201.5 1382.34C1198.94 1380.59 1197.66 1378.16 1197.66 1375.05C1197.66 1372.24 1198.77 1369.88 1200.98 1367.97C1203.2 1366.06 1206.64 1365.1 1211.3 1365.1C1215.73 1365.1 1219.03 1365.83 1221.18 1367.27C1223.34 1368.71 1224.83 1370.85 1225.64 1373.68L1217.55 1375.17C1217.21 1373.91 1216.55 1372.95 1215.57 1372.27C1214.61 1371.6 1213.24 1371.27 1211.45 1371.27C1209.19 1371.27 1207.57 1371.58 1206.6 1372.21C1205.95 1372.66 1205.62 1373.24 1205.62 1373.95C1205.62 1374.56 1205.91 1375.08 1206.48 1375.51C1207.25 1376.08 1209.91 1376.88 1214.47 1377.92C1219.05 1378.96 1222.24 1380.23 1224.05 1381.73C1225.84 1383.26 1226.74 1385.39 1226.74 1388.11C1226.74 1391.08 1225.5 1393.63 1223.01 1395.77C1220.53 1397.91 1216.86 1398.97 1212 1398.97C1207.59 1398.97 1204.09 1398.08 1201.5 1396.29C1198.94 1394.5 1197.26 1392.07 1196.47 1389Z"/>
</mask>
<path d="M108.828 1353.51H125.335C129.058 1353.51 131.896 1353.79 133.849 1354.36C136.473 1355.14 138.721 1356.51 140.592 1358.48C142.463 1360.46 143.887 1362.88 144.864 1365.74C145.84 1368.59 146.328 1372.11 146.328 1376.3C146.328 1379.98 145.871 1383.16 144.955 1385.82C143.837 1389.08 142.24 1391.71 140.165 1393.73C138.598 1395.25 136.483 1396.44 133.818 1397.3C131.824 1397.93 129.16 1398.24 125.824 1398.24H108.828V1353.51ZM117.86 1361.08V1390.7H124.603C127.125 1390.7 128.946 1390.56 130.065 1390.28C131.53 1389.91 132.74 1389.29 133.696 1388.42C134.672 1387.54 135.466 1386.11 136.076 1384.11C136.686 1382.1 136.991 1379.36 136.991 1375.91C136.991 1372.45 136.686 1369.79 136.076 1367.94C135.466 1366.09 134.611 1364.65 133.513 1363.61C132.414 1362.57 131.021 1361.87 129.333 1361.5C128.071 1361.22 125.6 1361.08 121.918 1361.08H117.86Z" fill="white"/>
<path d="M168.973 1387.93L177.517 1389.36C176.418 1392.49 174.679 1394.89 172.299 1396.53C169.939 1398.16 166.979 1398.97 163.42 1398.97C157.785 1398.97 153.615 1397.13 150.909 1393.45C148.773 1390.5 147.705 1386.78 147.705 1382.28C147.705 1376.91 149.109 1372.71 151.916 1369.68C154.723 1366.63 158.273 1365.1 162.565 1365.1C167.386 1365.1 171.19 1366.7 173.977 1369.89C176.764 1373.07 178.097 1377.94 177.974 1384.51H156.493C156.554 1387.05 157.246 1389.04 158.568 1390.46C159.89 1391.86 161.538 1392.57 163.511 1392.57C164.854 1392.57 165.983 1392.2 166.898 1391.47C167.814 1390.74 168.505 1389.56 168.973 1387.93ZM169.461 1379.26C169.4 1376.78 168.759 1374.9 167.539 1373.62C166.318 1372.32 164.833 1371.66 163.084 1371.66C161.212 1371.66 159.666 1372.35 158.446 1373.71C157.225 1375.07 156.625 1376.92 156.646 1379.26H169.461Z" fill="white"/>
<path d="M178.222 1389L186.827 1387.68C187.193 1389.35 187.936 1390.62 189.054 1391.5C190.173 1392.35 191.74 1392.78 193.753 1392.78C195.971 1392.78 197.639 1392.37 198.758 1391.56C199.51 1390.99 199.887 1390.23 199.887 1389.27C199.887 1388.62 199.683 1388.08 199.276 1387.65C198.849 1387.25 197.893 1386.87 196.408 1386.52C189.492 1385 185.108 1383.61 183.257 1382.34C180.694 1380.59 179.412 1378.16 179.412 1375.05C179.412 1372.24 180.521 1369.88 182.738 1367.97C184.955 1366.06 188.393 1365.1 193.052 1365.1C197.486 1365.1 200.782 1365.83 202.938 1367.27C205.094 1368.71 206.579 1370.85 207.393 1373.68L199.307 1375.17C198.961 1373.91 198.3 1372.95 197.324 1372.27C196.367 1371.6 194.994 1371.27 193.204 1371.27C190.946 1371.27 189.329 1371.58 188.353 1372.21C187.702 1372.66 187.376 1373.24 187.376 1373.95C187.376 1374.56 187.661 1375.08 188.231 1375.51C189.004 1376.08 191.668 1376.88 196.225 1377.92C200.802 1378.96 203.996 1380.23 205.806 1381.73C207.596 1383.26 208.491 1385.39 208.491 1388.11C208.491 1391.08 207.251 1393.63 204.769 1395.77C202.287 1397.91 198.615 1398.97 193.753 1398.97C189.339 1398.97 185.84 1398.08 183.257 1396.29C180.694 1394.5 179.016 1392.07 178.222 1389Z" fill="white"/>
<path d="M212.279 1361.44V1353.51H220.853V1361.44H212.279ZM212.279 1398.24V1365.84H220.853V1398.24H212.279Z" fill="white"/>
<path d="M225.128 1400.38L234.923 1401.57C235.086 1402.71 235.462 1403.49 236.052 1403.92C236.866 1404.53 238.147 1404.83 239.897 1404.83C242.135 1404.83 243.813 1404.5 244.932 1403.83C245.684 1403.38 246.254 1402.66 246.64 1401.66C246.905 1400.95 247.037 1399.63 247.037 1397.72V1392.99C244.474 1396.49 241.24 1398.24 237.334 1398.24C232.981 1398.24 229.533 1396.4 226.99 1392.72C224.996 1389.81 223.999 1386.19 223.999 1381.86C223.999 1376.42 225.301 1372.27 227.905 1369.41C230.529 1366.54 233.784 1365.1 237.669 1365.1C241.677 1365.1 244.982 1366.86 247.586 1370.38V1365.84H255.611V1394.92C255.611 1398.74 255.296 1401.6 254.665 1403.49C254.035 1405.38 253.15 1406.87 252.011 1407.94C250.872 1409.02 249.346 1409.87 247.434 1410.48C245.542 1411.09 243.142 1411.39 240.233 1411.39C234.74 1411.39 230.845 1410.45 228.546 1408.56C226.247 1406.68 225.098 1404.3 225.098 1401.41C225.098 1401.13 225.108 1400.78 225.128 1400.38ZM232.787 1381.37C232.787 1384.81 233.448 1387.33 234.771 1388.93C236.113 1390.52 237.761 1391.32 239.714 1391.32C241.809 1391.32 243.579 1390.5 245.023 1388.87C246.467 1387.23 247.19 1384.8 247.19 1381.58C247.19 1378.22 246.498 1375.73 245.115 1374.11C243.731 1372.48 241.982 1371.66 239.866 1371.66C237.812 1371.66 236.113 1372.47 234.771 1374.08C233.448 1375.66 232.787 1378.09 232.787 1381.37Z" fill="white"/>
<path d="M289.851 1398.24H281.277V1381.7C281.277 1378.2 281.094 1375.95 280.727 1374.93C280.361 1373.89 279.761 1373.09 278.927 1372.52C278.113 1371.95 277.127 1371.66 275.967 1371.66C274.482 1371.66 273.15 1372.07 271.97 1372.88C270.79 1373.7 269.977 1374.78 269.529 1376.12C269.102 1377.46 268.888 1379.94 268.888 1383.56V1398.24H260.314V1365.84H268.278V1370.6C271.106 1366.93 274.665 1365.1 278.958 1365.1C280.849 1365.1 282.579 1365.45 284.145 1366.14C285.711 1366.81 286.891 1367.68 287.684 1368.74C288.498 1369.79 289.058 1370.99 289.363 1372.34C289.688 1373.68 289.851 1375.6 289.851 1378.1V1398.24Z" fill="white"/>
<path d="M294.828 1361.44V1353.51H303.402V1361.44H294.828ZM294.828 1398.24V1365.84H303.402V1398.24H294.828Z" fill="white"/>
<path d="M337.947 1398.24H329.373V1381.7C329.373 1378.2 329.19 1375.95 328.824 1374.93C328.458 1373.89 327.857 1373.09 327.023 1372.52C326.21 1371.95 325.223 1371.66 324.064 1371.66C322.579 1371.66 321.246 1372.07 320.066 1372.88C318.887 1373.7 318.073 1374.78 317.625 1376.12C317.198 1377.46 316.985 1379.94 316.985 1383.56V1398.24H308.41V1365.84H316.374V1370.6C319.202 1366.93 322.762 1365.1 327.054 1365.1C328.946 1365.1 330.675 1365.45 332.241 1366.14C333.808 1366.81 334.987 1367.68 335.781 1368.74C336.594 1369.79 337.154 1370.99 337.459 1372.34C337.784 1373.68 337.947 1375.6 337.947 1378.1V1398.24Z" fill="white"/>
<path d="M342.131 1400.38L351.926 1401.57C352.089 1402.71 352.465 1403.49 353.055 1403.92C353.869 1404.53 355.15 1404.83 356.9 1404.83C359.137 1404.83 360.815 1404.5 361.934 1403.83C362.687 1403.38 363.257 1402.66 363.643 1401.66C363.907 1400.95 364.04 1399.63 364.04 1397.72V1392.99C361.477 1396.49 358.242 1398.24 354.336 1398.24C349.983 1398.24 346.535 1396.4 343.992 1392.72C341.999 1389.81 341.002 1386.19 341.002 1381.86C341.002 1376.42 342.304 1372.27 344.908 1369.41C347.532 1366.54 350.787 1365.1 354.672 1365.1C358.68 1365.1 361.985 1366.86 364.589 1370.38V1365.84H372.614V1394.92C372.614 1398.74 372.299 1401.6 371.668 1403.49C371.037 1405.38 370.153 1406.87 369.013 1407.94C367.874 1409.02 366.349 1409.87 364.436 1410.48C362.545 1411.09 360.144 1411.39 357.235 1411.39C351.743 1411.39 347.847 1410.45 345.549 1408.56C343.25 1406.68 342.101 1404.3 342.101 1401.41C342.101 1401.13 342.111 1400.78 342.131 1400.38ZM349.79 1381.37C349.79 1384.81 350.451 1387.33 351.773 1388.93C353.116 1390.52 354.764 1391.32 356.716 1391.32C358.812 1391.32 360.582 1390.5 362.026 1388.87C363.47 1387.23 364.192 1384.8 364.192 1381.58C364.192 1378.22 363.501 1375.73 362.117 1374.11C360.734 1372.48 358.985 1371.66 356.869 1371.66C354.814 1371.66 353.116 1372.47 351.773 1374.08C350.451 1375.66 349.79 1378.09 349.79 1381.37Z" fill="white"/>
<path d="M391.082 1398.24V1353.51H424.25V1361.08H400.114V1370.99H422.572V1378.53H400.114V1390.7H425.104V1398.24H391.082Z" fill="white"/>
<path d="M424.833 1398.24L436.52 1381.55L425.321 1365.84H435.787L441.524 1374.75L447.566 1365.84H457.635L446.65 1381.18L458.642 1398.24H448.115L441.524 1388.2L434.872 1398.24H424.833Z" fill="white"/>
<path d="M459.744 1365.84H467.739V1370.6C468.776 1368.97 470.18 1367.65 471.949 1366.63C473.719 1365.61 475.682 1365.1 477.838 1365.1C481.602 1365.1 484.795 1366.58 487.42 1369.53C490.044 1372.48 491.356 1376.59 491.356 1381.86C491.356 1387.27 490.034 1391.48 487.389 1394.49C484.745 1397.48 481.541 1398.97 477.777 1398.97C475.987 1398.97 474.36 1398.62 472.895 1397.91C471.451 1397.19 469.925 1395.97 468.318 1394.24V1410.57H459.744V1365.84ZM468.227 1381.49C468.227 1385.13 468.949 1387.83 470.393 1389.58C471.838 1391.3 473.597 1392.17 475.672 1392.17C477.666 1392.17 479.323 1391.38 480.646 1389.79C481.968 1388.18 482.629 1385.56 482.629 1381.92C482.629 1378.52 481.948 1376 480.585 1374.35C479.222 1372.7 477.533 1371.88 475.519 1371.88C473.424 1371.88 471.685 1372.69 470.302 1374.32C468.918 1375.93 468.227 1378.32 468.227 1381.49Z" fill="white"/>
<path d="M513.207 1387.93L521.751 1389.36C520.652 1392.49 518.913 1394.89 516.533 1396.53C514.173 1398.16 511.213 1398.97 507.654 1398.97C502.019 1398.97 497.849 1397.13 495.143 1393.45C493.007 1390.5 491.939 1386.78 491.939 1382.28C491.939 1376.91 493.343 1372.71 496.15 1369.68C498.957 1366.63 502.507 1365.1 506.799 1365.1C511.62 1365.1 515.424 1366.7 518.211 1369.89C520.998 1373.07 522.33 1377.94 522.208 1384.51H500.727C500.788 1387.05 501.48 1389.04 502.802 1390.46C504.124 1391.86 505.772 1392.57 507.745 1392.57C509.088 1392.57 510.217 1392.2 511.132 1391.47C512.048 1390.74 512.739 1389.56 513.207 1387.93ZM513.695 1379.26C513.634 1376.78 512.993 1374.9 511.773 1373.62C510.552 1372.32 509.067 1371.66 507.318 1371.66C505.446 1371.66 503.9 1372.35 502.68 1373.71C501.459 1375.07 500.859 1376.92 500.88 1379.26H513.695Z" fill="white"/>
<path d="M533.685 1398.24H525.111V1365.84H533.075V1370.44C534.438 1368.27 535.658 1366.83 536.736 1366.14C537.835 1365.45 539.076 1365.1 540.459 1365.1C542.412 1365.1 544.294 1365.64 546.104 1366.72L543.449 1374.2C542.005 1373.26 540.662 1372.79 539.422 1372.79C538.221 1372.79 537.204 1373.13 536.37 1373.8C535.536 1374.45 534.875 1375.64 534.387 1377.37C533.919 1379.1 533.685 1382.72 533.685 1388.23V1398.24Z" fill="white"/>
<path d="M546.077 1361.44V1353.51H554.651V1361.44H546.077ZM546.077 1398.24V1365.84H554.651V1398.24H546.077Z" fill="white"/>
<path d="M578.486 1387.93L587.03 1389.36C585.931 1392.49 584.192 1394.89 581.812 1396.53C579.452 1398.16 576.492 1398.97 572.933 1398.97C567.298 1398.97 563.128 1397.13 560.422 1393.45C558.286 1390.5 557.218 1386.78 557.218 1382.28C557.218 1376.91 558.622 1372.71 561.429 1369.68C564.236 1366.63 567.786 1365.1 572.078 1365.1C576.899 1365.1 580.703 1366.7 583.49 1369.89C586.277 1373.07 587.609 1377.94 587.487 1384.51H566.006C566.067 1387.05 566.759 1389.04 568.081 1390.46C569.403 1391.86 571.051 1392.57 573.024 1392.57C574.367 1392.57 575.496 1392.2 576.411 1391.47C577.326 1390.74 578.018 1389.56 578.486 1387.93ZM578.974 1379.26C578.913 1376.78 578.272 1374.9 577.052 1373.62C575.831 1372.32 574.346 1371.66 572.597 1371.66C570.725 1371.66 569.179 1372.35 567.959 1373.71C566.738 1375.07 566.138 1376.92 566.159 1379.26H578.974Z" fill="white"/>
<path d="M620.232 1398.24H611.658V1381.7C611.658 1378.2 611.474 1375.95 611.108 1374.93C610.742 1373.89 610.142 1373.09 609.308 1372.52C608.494 1371.95 607.508 1371.66 606.348 1371.66C604.863 1371.66 603.531 1372.07 602.351 1372.88C601.171 1373.7 600.357 1374.78 599.91 1376.12C599.483 1377.46 599.269 1379.94 599.269 1383.56V1398.24H590.695V1365.84H598.659V1370.6C601.486 1366.93 605.046 1365.1 609.339 1365.1C611.23 1365.1 612.959 1365.45 614.526 1366.14C616.092 1366.81 617.272 1367.68 618.065 1368.74C618.879 1369.79 619.438 1370.99 619.744 1372.34C620.069 1373.68 620.232 1375.6 620.232 1378.1V1398.24Z" fill="white"/>
<path d="M653.464 1375.42L645.012 1376.94C644.727 1375.25 644.077 1373.98 643.059 1373.13C642.063 1372.27 640.761 1371.85 639.154 1371.85C637.018 1371.85 635.309 1372.59 634.028 1374.08C632.766 1375.54 632.136 1378 632.136 1381.46C632.136 1385.3 632.776 1388.02 634.058 1389.61C635.36 1391.19 637.099 1391.99 639.276 1391.99C640.903 1391.99 642.236 1391.53 643.273 1390.61C644.31 1389.68 645.043 1388.08 645.47 1385.82L653.892 1387.26C653.017 1391.12 651.339 1394.04 648.857 1396.01C646.375 1397.99 643.049 1398.97 638.879 1398.97C634.139 1398.97 630.356 1397.48 627.528 1394.49C624.721 1391.5 623.317 1387.36 623.317 1382.07C623.317 1376.72 624.731 1372.56 627.559 1369.59C630.386 1366.6 634.211 1365.1 639.032 1365.1C642.978 1365.1 646.111 1365.96 648.43 1367.67C650.769 1369.36 652.447 1371.94 653.464 1375.42Z" fill="white"/>
<path d="M675.011 1387.93L683.554 1389.36C682.456 1392.49 680.716 1394.89 678.336 1396.53C675.977 1398.16 673.017 1398.97 669.457 1398.97C663.822 1398.97 659.652 1397.13 656.947 1393.45C654.811 1390.5 653.743 1386.78 653.743 1382.28C653.743 1376.91 655.146 1372.71 657.954 1369.68C660.761 1366.63 664.311 1365.1 668.603 1365.1C673.424 1365.1 677.228 1366.7 680.015 1369.89C682.802 1373.07 684.134 1377.94 684.012 1384.51H662.531C662.592 1387.05 663.283 1389.04 664.605 1390.46C665.928 1391.86 667.575 1392.57 669.549 1392.57C670.891 1392.57 672.02 1392.2 672.936 1391.47C673.851 1390.74 674.543 1389.56 675.011 1387.93ZM675.499 1379.26C675.438 1376.78 674.797 1374.9 673.576 1373.62C672.356 1372.32 670.871 1371.66 669.121 1371.66C667.25 1371.66 665.704 1372.35 664.483 1373.71C663.263 1375.07 662.663 1376.92 662.683 1379.26H675.499Z" fill="white"/>
<path d="M684.26 1389L692.864 1387.68C693.231 1389.35 693.973 1390.62 695.092 1391.5C696.211 1392.35 697.777 1392.78 699.791 1392.78C702.008 1392.78 703.676 1392.37 704.795 1391.56C705.548 1390.99 705.924 1390.23 705.924 1389.27C705.924 1388.62 705.721 1388.08 705.314 1387.65C704.887 1387.25 703.931 1386.87 702.446 1386.52C695.529 1385 691.146 1383.61 689.294 1382.34C686.731 1380.59 685.45 1378.16 685.45 1375.05C685.45 1372.24 686.558 1369.88 688.776 1367.97C690.993 1366.06 694.431 1365.1 699.089 1365.1C703.524 1365.1 706.819 1365.83 708.976 1367.27C711.132 1368.71 712.617 1370.85 713.43 1373.68L705.344 1375.17C704.999 1373.91 704.337 1372.95 703.361 1372.27C702.405 1371.6 701.032 1371.27 699.242 1371.27C696.984 1371.27 695.367 1371.58 694.39 1372.21C693.739 1372.66 693.414 1373.24 693.414 1373.95C693.414 1374.56 693.699 1375.08 694.268 1375.51C695.041 1376.08 697.706 1376.88 702.263 1377.92C706.84 1378.96 710.033 1380.23 711.844 1381.73C713.634 1383.26 714.529 1385.39 714.529 1388.11C714.529 1391.08 713.288 1393.63 710.806 1395.77C708.325 1397.91 704.653 1398.97 699.791 1398.97C695.377 1398.97 691.878 1398.08 689.294 1396.29C686.731 1394.5 685.053 1392.07 684.26 1389Z" fill="white"/>
<path d="M718.103 1389.67H726.677V1395.8C726.677 1398.28 726.463 1400.24 726.036 1401.66C725.609 1403.1 724.795 1404.4 723.595 1405.53C722.415 1406.67 720.91 1407.57 719.079 1408.22L717.401 1404.68C719.13 1404.11 720.361 1403.33 721.093 1402.33C721.825 1401.33 722.212 1399.97 722.252 1398.24H718.103V1389.67Z" fill="white"/>
<path d="M745.694 1353.51H763.575C767.114 1353.51 769.749 1353.66 771.478 1353.97C773.227 1354.25 774.783 1354.86 776.146 1355.8C777.53 1356.73 778.679 1357.98 779.594 1359.55C780.51 1361.1 780.967 1362.84 780.967 1364.77C780.967 1366.86 780.398 1368.79 779.259 1370.54C778.14 1372.28 776.614 1373.6 774.682 1374.47C777.407 1375.27 779.503 1376.62 780.967 1378.53C782.432 1380.44 783.164 1382.69 783.164 1385.27C783.164 1387.31 782.686 1389.29 781.73 1391.22C780.794 1393.14 779.503 1394.67 777.855 1395.83C776.228 1396.97 774.214 1397.67 771.813 1397.94C770.308 1398.1 766.677 1398.2 760.92 1398.24H745.694V1353.51ZM754.726 1360.95V1371.3H760.645C764.165 1371.3 766.351 1371.25 767.206 1371.15C768.752 1370.96 769.962 1370.43 770.837 1369.56C771.732 1368.66 772.18 1367.49 772.18 1366.05C772.18 1364.67 771.793 1363.55 771.02 1362.69C770.267 1361.82 769.138 1361.29 767.633 1361.11C766.738 1361.01 764.165 1360.95 759.913 1360.95H754.726ZM754.726 1378.74V1390.7H763.087C766.341 1390.7 768.406 1390.61 769.281 1390.43C770.623 1390.19 771.712 1389.6 772.546 1388.66C773.4 1387.7 773.827 1386.43 773.827 1384.85C773.827 1383.5 773.502 1382.36 772.851 1381.43C772.2 1380.49 771.254 1379.81 770.013 1379.38C768.793 1378.96 766.128 1378.74 762.019 1378.74H754.726Z" fill="white"/>
<path d="M808.341 1398.24V1393.39C807.162 1395.12 805.605 1396.48 803.673 1397.48C801.761 1398.48 799.737 1398.97 797.601 1398.97C795.424 1398.97 793.471 1398.5 791.742 1397.54C790.013 1396.58 788.762 1395.24 787.989 1393.51C787.216 1391.78 786.83 1389.39 786.83 1386.34V1365.84H795.404V1380.73C795.404 1385.28 795.556 1388.08 795.862 1389.12C796.187 1390.14 796.767 1390.95 797.601 1391.56C798.435 1392.15 799.493 1392.44 800.774 1392.44C802.239 1392.44 803.551 1392.05 804.71 1391.25C805.87 1390.44 806.663 1389.44 807.09 1388.26C807.518 1387.06 807.731 1384.14 807.731 1379.51V1365.84H816.305V1398.24H808.341Z" fill="white"/>
<path d="M821.466 1361.44V1353.51H830.04V1361.44H821.466ZM821.466 1398.24V1365.84H830.04V1398.24H821.466Z" fill="white"/>
<path d="M835.109 1398.24V1353.51H843.683V1398.24H835.109Z" fill="white"/>
<path d="M878.472 1398.24H870.508V1393.48C869.186 1395.33 867.619 1396.72 865.809 1397.63C864.019 1398.53 862.208 1398.97 860.378 1398.97C856.655 1398.97 853.461 1397.48 850.796 1394.49C848.152 1391.48 846.83 1387.29 846.83 1381.92C846.83 1376.42 848.121 1372.25 850.705 1369.41C853.288 1366.54 856.553 1365.1 860.5 1365.1C864.121 1365.1 867.253 1366.61 869.898 1369.62V1353.51H878.472V1398.24ZM855.587 1381.34C855.587 1384.8 856.065 1387.3 857.021 1388.84C858.404 1391.08 860.337 1392.2 862.819 1392.2C864.792 1392.2 866.47 1391.37 867.853 1389.7C869.237 1388.01 869.928 1385.5 869.928 1382.16C869.928 1378.44 869.257 1375.76 867.914 1374.14C866.572 1372.49 864.853 1371.66 862.758 1371.66C860.723 1371.66 859.015 1372.48 857.631 1374.11C856.269 1375.71 855.587 1378.12 855.587 1381.34Z" fill="white"/>
<path d="M883.205 1361.44V1353.51H891.779V1361.44H883.205ZM883.205 1398.24V1365.84H891.779V1398.24H883.205Z" fill="white"/>
<path d="M926.324 1398.24H917.75V1381.7C917.75 1378.2 917.567 1375.95 917.201 1374.93C916.835 1373.89 916.234 1373.09 915.4 1372.52C914.587 1371.95 913.6 1371.66 912.441 1371.66C910.956 1371.66 909.623 1372.07 908.443 1372.88C907.264 1373.7 906.45 1374.78 906.002 1376.12C905.575 1377.46 905.362 1379.94 905.362 1383.56V1398.24H896.787V1365.84H904.751V1370.6C907.579 1366.93 911.139 1365.1 915.431 1365.1C917.323 1365.1 919.052 1365.45 920.618 1366.14C922.185 1366.81 923.364 1367.68 924.158 1368.74C924.971 1369.79 925.531 1370.99 925.836 1372.34C926.161 1373.68 926.324 1375.6 926.324 1378.1V1398.24Z" fill="white"/>
<path d="M930.508 1400.38L940.303 1401.57C940.466 1402.71 940.842 1403.49 941.432 1403.92C942.246 1404.53 943.527 1404.83 945.277 1404.83C947.514 1404.83 949.192 1404.5 950.311 1403.83C951.064 1403.38 951.634 1402.66 952.02 1401.66C952.284 1400.95 952.417 1399.63 952.417 1397.72V1392.99C949.854 1396.49 946.619 1398.24 942.713 1398.24C938.36 1398.24 934.912 1396.4 932.369 1392.72C930.376 1389.81 929.379 1386.19 929.379 1381.86C929.379 1376.42 930.681 1372.27 933.285 1369.41C935.909 1366.54 939.164 1365.1 943.049 1365.1C947.057 1365.1 950.362 1366.86 952.966 1370.38V1365.84H960.991V1394.92C960.991 1398.74 960.676 1401.6 960.045 1403.49C959.414 1405.38 958.53 1406.87 957.39 1407.94C956.251 1409.02 954.726 1409.87 952.813 1410.48C950.922 1411.09 948.521 1411.39 945.612 1411.39C940.12 1411.39 936.224 1410.45 933.926 1408.56C931.627 1406.68 930.478 1404.3 930.478 1401.41C930.478 1401.13 930.488 1400.78 930.508 1400.38ZM938.167 1381.37C938.167 1384.81 938.828 1387.33 940.15 1388.93C941.493 1390.52 943.141 1391.32 945.094 1391.32C947.189 1391.32 948.959 1390.5 950.403 1388.87C951.847 1387.23 952.569 1384.8 952.569 1381.58C952.569 1378.22 951.878 1375.73 950.494 1374.11C949.111 1372.48 947.362 1371.66 945.246 1371.66C943.192 1371.66 941.493 1372.47 940.15 1374.08C938.828 1375.66 938.167 1378.09 938.167 1381.37Z" fill="white"/>
<path d="M977.17 1383.69L985.958 1382.83C986.487 1385.78 987.555 1387.95 989.162 1389.33C990.789 1390.71 992.976 1391.41 995.722 1391.41C998.631 1391.41 1000.82 1390.8 1002.28 1389.58C1003.77 1388.33 1004.51 1386.89 1004.51 1385.24C1004.51 1384.19 1004.19 1383.29 1003.56 1382.56C1002.95 1381.81 1001.88 1381.15 1000.33 1380.6C999.272 1380.24 996.862 1379.59 993.098 1378.65C988.257 1377.45 984.86 1375.98 982.907 1374.23C980.161 1371.77 978.788 1368.77 978.788 1365.23C978.788 1362.95 979.428 1360.82 980.71 1358.85C982.012 1356.86 983.873 1355.34 986.294 1354.3C988.735 1353.26 991.674 1352.75 995.112 1352.75C1000.73 1352.75 1004.95 1353.98 1007.78 1356.44C1010.62 1358.9 1012.12 1362.18 1012.26 1366.29L1003.23 1366.69C1002.84 1364.39 1002.01 1362.74 1000.73 1361.75C999.465 1360.73 997.563 1360.22 995.021 1360.22C992.396 1360.22 990.342 1360.76 988.857 1361.84C987.901 1362.53 987.423 1363.46 987.423 1364.62C987.423 1365.67 987.87 1366.58 988.765 1367.33C989.905 1368.29 992.671 1369.28 997.065 1370.32C1001.46 1371.36 1004.7 1372.44 1006.8 1373.56C1008.91 1374.65 1010.56 1376.17 1011.74 1378.1C1012.94 1380.01 1013.54 1382.38 1013.54 1385.21C1013.54 1387.78 1012.83 1390.18 1011.41 1392.41C1009.98 1394.65 1007.97 1396.32 1005.36 1397.42C1002.76 1398.5 999.516 1399.03 995.631 1399.03C989.976 1399.03 985.633 1397.73 982.602 1395.13C979.571 1392.51 977.76 1388.69 977.17 1383.69Z" fill="white"/>
<path d="M1015.35 1381.58C1015.35 1378.73 1016.05 1375.98 1017.45 1373.31C1018.86 1370.65 1020.84 1368.61 1023.4 1367.21C1025.99 1365.81 1028.86 1365.1 1032.04 1365.1C1036.94 1365.1 1040.96 1366.7 1044.09 1369.89C1047.22 1373.07 1048.79 1377.09 1048.79 1381.95C1048.79 1386.85 1047.2 1390.92 1044.03 1394.15C1040.88 1397.37 1036.9 1398.97 1032.1 1398.97C1029.13 1398.97 1026.29 1398.3 1023.58 1396.96C1020.9 1395.62 1018.86 1393.65 1017.45 1391.07C1016.05 1388.47 1015.35 1385.3 1015.35 1381.58ZM1024.13 1382.04C1024.13 1385.25 1024.9 1387.71 1026.42 1389.42C1027.95 1391.13 1029.83 1391.99 1032.07 1391.99C1034.31 1391.99 1036.18 1391.13 1037.68 1389.42C1039.21 1387.71 1039.97 1385.23 1039.97 1381.98C1039.97 1378.8 1039.21 1376.36 1037.68 1374.65C1036.18 1372.95 1034.31 1372.09 1032.07 1372.09C1029.83 1372.09 1027.95 1372.95 1026.42 1374.65C1024.9 1376.36 1024.13 1378.82 1024.13 1382.04Z" fill="white"/>
<path d="M1051.78 1398.24V1353.51H1060.36V1398.24H1051.78Z" fill="white"/>
<path d="M1086.75 1398.24V1393.39C1085.57 1395.12 1084.02 1396.48 1082.09 1397.48C1080.17 1398.48 1078.15 1398.97 1076.01 1398.97C1073.84 1398.97 1071.88 1398.5 1070.16 1397.54C1068.43 1396.58 1067.18 1395.24 1066.4 1393.51C1065.63 1391.78 1065.24 1389.39 1065.24 1386.34V1365.84H1073.82V1380.73C1073.82 1385.28 1073.97 1388.08 1074.27 1389.12C1074.6 1390.14 1075.18 1390.95 1076.01 1391.56C1076.85 1392.15 1077.91 1392.44 1079.19 1392.44C1080.65 1392.44 1081.96 1392.05 1083.12 1391.25C1084.28 1390.44 1085.08 1389.44 1085.5 1388.26C1085.93 1387.06 1086.14 1384.14 1086.14 1379.51V1365.84H1094.72V1398.24H1086.75Z" fill="white"/>
<path d="M1114.74 1365.84V1372.67H1108.88V1385.73C1108.88 1388.38 1108.93 1389.92 1109.03 1390.37C1109.16 1390.8 1109.41 1391.15 1109.8 1391.44C1110.2 1391.72 1110.69 1391.86 1111.26 1391.86C1112.05 1391.86 1113.2 1391.59 1114.71 1391.04L1115.44 1397.69C1113.45 1398.55 1111.19 1398.97 1108.67 1398.97C1107.12 1398.97 1105.73 1398.72 1104.49 1398.21C1103.25 1397.68 1102.33 1397.01 1101.74 1396.2C1101.17 1395.36 1100.77 1394.24 1100.55 1392.84C1100.37 1391.84 1100.28 1389.83 1100.28 1386.8V1372.67H1096.34V1365.84H1100.28V1359.4L1108.88 1354.39V1365.84H1114.74Z" fill="white"/>
<path d="M1116.94 1361.44V1353.51H1125.51V1361.44H1116.94ZM1116.94 1398.24V1365.84H1125.51V1398.24H1116.94Z" fill="white"/>
<path d="M1128.6 1381.58C1128.6 1378.73 1129.3 1375.98 1130.7 1373.31C1132.11 1370.65 1134.09 1368.61 1136.65 1367.21C1139.24 1365.81 1142.12 1365.1 1145.29 1365.1C1150.19 1365.1 1154.21 1366.7 1157.34 1369.89C1160.48 1373.07 1162.04 1377.09 1162.04 1381.95C1162.04 1386.85 1160.46 1390.92 1157.28 1394.15C1154.13 1397.37 1150.15 1398.97 1145.35 1398.97C1142.38 1398.97 1139.54 1398.3 1136.84 1396.96C1134.15 1395.62 1132.11 1393.65 1130.7 1391.07C1129.3 1388.47 1128.6 1385.3 1128.6 1381.58ZM1137.39 1382.04C1137.39 1385.25 1138.15 1387.71 1139.68 1389.42C1141.2 1391.13 1143.08 1391.99 1145.32 1391.99C1147.56 1391.99 1149.43 1391.13 1150.93 1389.42C1152.46 1387.71 1153.22 1385.23 1153.22 1381.98C1153.22 1378.8 1152.46 1376.36 1150.93 1374.65C1149.43 1372.95 1147.56 1372.09 1145.32 1372.09C1143.08 1372.09 1141.2 1372.95 1139.68 1374.65C1138.15 1376.36 1137.39 1378.82 1137.39 1382.04Z" fill="white"/>
<path d="M1194.51 1398.24H1185.94V1381.7C1185.94 1378.2 1185.75 1375.95 1185.39 1374.93C1185.02 1373.89 1184.42 1373.09 1183.59 1372.52C1182.77 1371.95 1181.79 1371.66 1180.63 1371.66C1179.14 1371.66 1177.81 1372.07 1176.63 1372.88C1175.45 1373.7 1174.64 1374.78 1174.19 1376.12C1173.76 1377.46 1173.55 1379.94 1173.55 1383.56V1398.24H1164.97V1365.84H1172.94V1370.6C1175.77 1366.93 1179.33 1365.1 1183.62 1365.1C1185.51 1365.1 1187.24 1365.45 1188.81 1366.14C1190.37 1366.81 1191.55 1367.68 1192.35 1368.74C1193.16 1369.79 1193.72 1370.99 1194.02 1372.34C1194.35 1373.68 1194.51 1375.6 1194.51 1378.1V1398.24Z" fill="white"/>
<path d="M1196.47 1389L1205.07 1387.68C1205.44 1389.35 1206.18 1390.62 1207.3 1391.5C1208.42 1392.35 1209.99 1392.78 1212 1392.78C1214.22 1392.78 1215.88 1392.37 1217 1391.56C1217.76 1390.99 1218.13 1390.23 1218.13 1389.27C1218.13 1388.62 1217.93 1388.08 1217.52 1387.65C1217.1 1387.25 1216.14 1386.87 1214.65 1386.52C1207.74 1385 1203.35 1383.61 1201.5 1382.34C1198.94 1380.59 1197.66 1378.16 1197.66 1375.05C1197.66 1372.24 1198.77 1369.88 1200.98 1367.97C1203.2 1366.06 1206.64 1365.1 1211.3 1365.1C1215.73 1365.1 1219.03 1365.83 1221.18 1367.27C1223.34 1368.71 1224.83 1370.85 1225.64 1373.68L1217.55 1375.17C1217.21 1373.91 1216.55 1372.95 1215.57 1372.27C1214.61 1371.6 1213.24 1371.27 1211.45 1371.27C1209.19 1371.27 1207.57 1371.58 1206.6 1372.21C1205.95 1372.66 1205.62 1373.24 1205.62 1373.95C1205.62 1374.56 1205.91 1375.08 1206.48 1375.51C1207.25 1376.08 1209.91 1376.88 1214.47 1377.92C1219.05 1378.96 1222.24 1380.23 1224.05 1381.73C1225.84 1383.26 1226.74 1385.39 1226.74 1388.11C1226.74 1391.08 1225.5 1393.63 1223.01 1395.77C1220.53 1397.91 1216.86 1398.97 1212 1398.97C1207.59 1398.97 1204.09 1398.08 1201.5 1396.29C1198.94 1394.5 1197.26 1392.07 1196.47 1389Z" fill="white"/>
<path d="M108.828 1353.51H125.335C129.058 1353.51 131.896 1353.79 133.849 1354.36C136.473 1355.14 138.721 1356.51 140.592 1358.48C142.463 1360.46 143.887 1362.88 144.864 1365.74C145.84 1368.59 146.328 1372.11 146.328 1376.3C146.328 1379.98 145.871 1383.16 144.955 1385.82C143.837 1389.08 142.24 1391.71 140.165 1393.73C138.598 1395.25 136.483 1396.44 133.818 1397.3C131.824 1397.93 129.16 1398.24 125.824 1398.24H108.828V1353.51ZM117.86 1361.08V1390.7H124.603C127.125 1390.7 128.946 1390.56 130.065 1390.28C131.53 1389.91 132.74 1389.29 133.696 1388.42C134.672 1387.54 135.466 1386.11 136.076 1384.11C136.686 1382.1 136.991 1379.36 136.991 1375.91C136.991 1372.45 136.686 1369.79 136.076 1367.94C135.466 1366.09 134.611 1364.65 133.513 1363.61C132.414 1362.57 131.021 1361.87 129.333 1361.5C128.071 1361.22 125.6 1361.08 121.918 1361.08H117.86Z" stroke="#001AA7" stroke-width="0.5" mask="url(#path-4-outside-1_51_6)"/>
<path d="M168.973 1387.93L177.517 1389.36C176.418 1392.49 174.679 1394.89 172.299 1396.53C169.939 1398.16 166.979 1398.97 163.42 1398.97C157.785 1398.97 153.615 1397.13 150.909 1393.45C148.773 1390.5 147.705 1386.78 147.705 1382.28C147.705 1376.91 149.109 1372.71 151.916 1369.68C154.723 1366.63 158.273 1365.1 162.565 1365.1C167.386 1365.1 171.19 1366.7 173.977 1369.89C176.764 1373.07 178.097 1377.94 177.974 1384.51H156.493C156.554 1387.05 157.246 1389.04 158.568 1390.46C159.89 1391.86 161.538 1392.57 163.511 1392.57C164.854 1392.57 165.983 1392.2 166.898 1391.47C167.814 1390.74 168.505 1389.56 168.973 1387.93ZM169.461 1379.26C169.4 1376.78 168.759 1374.9 167.539 1373.62C166.318 1372.32 164.833 1371.66 163.084 1371.66C161.212 1371.66 159.666 1372.35 158.446 1373.71C157.225 1375.07 156.625 1376.92 156.646 1379.26H169.461Z" stroke="#001AA7" stroke-width="0.5" mask="url(#path-4-outside-1_51_6)"/>
<path d="M178.222 1389L186.827 1387.68C187.193 1389.35 187.936 1390.62 189.054 1391.5C190.173 1392.35 191.74 1392.78 193.753 1392.78C195.971 1392.78 197.639 1392.37 198.758 1391.56C199.51 1390.99 199.887 1390.23 199.887 1389.27C199.887 1388.62 199.683 1388.08 199.276 1387.65C198.849 1387.25 197.893 1386.87 196.408 1386.52C189.492 1385 185.108 1383.61 183.257 1382.34C180.694 1380.59 179.412 1378.16 179.412 1375.05C179.412 1372.24 180.521 1369.88 182.738 1367.97C184.955 1366.06 188.393 1365.1 193.052 1365.1C197.486 1365.1 200.782 1365.83 202.938 1367.27C205.094 1368.71 206.579 1370.85 207.393 1373.68L199.307 1375.17C198.961 1373.91 198.3 1372.95 197.324 1372.27C196.367 1371.6 194.994 1371.27 193.204 1371.27C190.946 1371.27 189.329 1371.58 188.353 1372.21C187.702 1372.66 187.376 1373.24 187.376 1373.95C187.376 1374.56 187.661 1375.08 188.231 1375.51C189.004 1376.08 191.668 1376.88 196.225 1377.92C200.802 1378.96 203.996 1380.23 205.806 1381.73C207.596 1383.26 208.491 1385.39 208.491 1388.11C208.491 1391.08 207.251 1393.63 204.769 1395.77C202.287 1397.91 198.615 1398.97 193.753 1398.97C189.339 1398.97 185.84 1398.08 183.257 1396.29C180.694 1394.5 179.016 1392.07 178.222 1389Z" stroke="#001AA7" stroke-width="0.5" mask="url(#path-4-outside-1_51_6)"/>
<path d="M212.279 1361.44V1353.51H220.853V1361.44H212.279ZM212.279 1398.24V1365.84H220.853V1398.24H212.279Z" stroke="#001AA7" stroke-width="0.5" mask="url(#path-4-outside-1_51_6)"/>
<path d="M225.128 1400.38L234.923 1401.57C235.086 1402.71 235.462 1403.49 236.052 1403.92C236.866 1404.53 238.147 1404.83 239.897 1404.83C242.135 1404.83 243.813 1404.5 244.932 1403.83C245.684 1403.38 246.254 1402.66 246.64 1401.66C246.905 1400.95 247.037 1399.63 247.037 1397.72V1392.99C244.474 1396.49 241.24 1398.24 237.334 1398.24C232.981 1398.24 229.533 1396.4 226.99 1392.72C224.996 1389.81 223.999 1386.19 223.999 1381.86C223.999 1376.42 225.301 1372.27 227.905 1369.41C230.529 1366.54 233.784 1365.1 237.669 1365.1C241.677 1365.1 244.982 1366.86 247.586 1370.38V1365.84H255.611V1394.92C255.611 1398.74 255.296 1401.6 254.665 1403.49C254.035 1405.38 253.15 1406.87 252.011 1407.94C250.872 1409.02 249.346 1409.87 247.434 1410.48C245.542 1411.09 243.142 1411.39 240.233 1411.39C234.74 1411.39 230.845 1410.45 228.546 1408.56C226.247 1406.68 225.098 1404.3 225.098 1401.41C225.098 1401.13 225.108 1400.78 225.128 1400.38ZM232.787 1381.37C232.787 1384.81 233.448 1387.33 234.771 1388.93C236.113 1390.52 237.761 1391.32 239.714 1391.32C241.809 1391.32 243.579 1390.5 245.023 1388.87C246.467 1387.23 247.19 1384.8 247.19 1381.58C247.19 1378.22 246.498 1375.73 245.115 1374.11C243.731 1372.48 241.982 1371.66 239.866 1371.66C237.812 1371.66 236.113 1372.47 234.771 1374.08C233.448 1375.66 232.787 1378.09 232.787 1381.37Z" stroke="#001AA7" stroke-width="0.5" mask="url(#path-4-outside-1_51_6)"/>
<path d="M289.851 1398.24H281.277V1381.7C281.277 1378.2 281.094 1375.95 280.727 1374.93C280.361 1373.89 279.761 1373.09 278.927 1372.52C278.113 1371.95 277.127 1371.66 275.967 1371.66C274.482 1371.66 273.15 1372.07 271.97 1372.88C270.79 1373.7 269.977 1374.78 269.529 1376.12C269.102 1377.46 268.888 1379.94 268.888 1383.56V1398.24H260.314V1365.84H268.278V1370.6C271.106 1366.93 274.665 1365.1 278.958 1365.1C280.849 1365.1 282.579 1365.45 284.145 1366.14C285.711 1366.81 286.891 1367.68 287.684 1368.74C288.498 1369.79 289.058 1370.99 289.363 1372.34C289.688 1373.68 289.851 1375.6 289.851 1378.1V1398.24Z" stroke="#001AA7" stroke-width="0.5" mask="url(#path-4-outside-1_51_6)"/>
<path d="M294.828 1361.44V1353.51H303.402V1361.44H294.828ZM294.828 1398.24V1365.84H303.402V1398.24H294.828Z" stroke="#001AA7" stroke-width="0.5" mask="url(#path-4-outside-1_51_6)"/>
<path d="M337.947 1398.24H329.373V1381.7C329.373 1378.2 329.19 1375.95 328.824 1374.93C328.458 1373.89 327.857 1373.09 327.023 1372.52C326.21 1371.95 325.223 1371.66 324.064 1371.66C322.579 1371.66 321.246 1372.07 320.066 1372.88C318.887 1373.7 318.073 1374.78 317.625 1376.12C317.198 1377.46 316.985 1379.94 316.985 1383.56V1398.24H308.41V1365.84H316.374V1370.6C319.202 1366.93 322.762 1365.1 327.054 1365.1C328.946 1365.1 330.675 1365.45 332.241 1366.14C333.808 1366.81 334.987 1367.68 335.781 1368.74C336.594 1369.79 337.154 1370.99 337.459 1372.34C337.784 1373.68 337.947 1375.6 337.947 1378.1V1398.24Z" stroke="#001AA7" stroke-width="0.5" mask="url(#path-4-outside-1_51_6)"/>
<path d="M342.131 1400.38L351.926 1401.57C352.089 1402.71 352.465 1403.49 353.055 1403.92C353.869 1404.53 355.15 1404.83 356.9 1404.83C359.137 1404.83 360.815 1404.5 361.934 1403.83C362.687 1403.38 363.257 1402.66 363.643 1401.66C363.907 1400.95 364.04 1399.63 364.04 1397.72V1392.99C361.477 1396.49 358.242 1398.24 354.336 1398.24C349.983 1398.24 346.535 1396.4 343.992 1392.72C341.999 1389.81 341.002 1386.19 341.002 1381.86C341.002 1376.42 342.304 1372.27 344.908 1369.41C347.532 1366.54 350.787 1365.1 354.672 1365.1C358.68 1365.1 361.985 1366.86 364.589 1370.38V1365.84H372.614V1394.92C372.614 1398.74 372.299 1401.6 371.668 1403.49C371.037 1405.38 370.153 1406.87 369.013 1407.94C367.874 1409.02 366.349 1409.87 364.436 1410.48C362.545 1411.09 360.144 1411.39 357.235 1411.39C351.743 1411.39 347.847 1410.45 345.549 1408.56C343.25 1406.68 342.101 1404.3 342.101 1401.41C342.101 1401.13 342.111 1400.78 342.131 1400.38ZM349.79 1381.37C349.79 1384.81 350.451 1387.33 351.773 1388.93C353.116 1390.52 354.764 1391.32 356.716 1391.32C358.812 1391.32 360.582 1390.5 362.026 1388.87C363.47 1387.23 364.192 1384.8 364.192 1381.58C364.192 1378.22 363.501 1375.73 362.117 1374.11C360.734 1372.48 358.985 1371.66 356.869 1371.66C354.814 1371.66 353.116 1372.47 351.773 1374.08C350.451 1375.66 349.79 1378.09 349.79 1381.37Z" stroke="#001AA7" stroke-width="0.5" mask="url(#path-4-outside-1_51_6)"/>
<path d="M391.082 1398.24V1353.51H424.25V1361.08H400.114V1370.99H422.572V1378.53H400.114V1390.7H425.104V1398.24H391.082Z" stroke="#001AA7" stroke-width="0.5" mask="url(#path-4-outside-1_51_6)"/>
<path d="M424.833 1398.24L436.52 1381.55L425.321 1365.84H435.787L441.524 1374.75L447.566 1365.84H457.635L446.65 1381.18L458.642 1398.24H448.115L441.524 1388.2L434.872 1398.24H424.833Z" stroke="#001AA7" stroke-width="0.5" mask="url(#path-4-outside-1_51_6)"/>
<path d="M459.744 1365.84H467.739V1370.6C468.776 1368.97 470.18 1367.65 471.949 1366.63C473.719 1365.61 475.682 1365.1 477.838 1365.1C481.602 1365.1 484.795 1366.58 487.42 1369.53C490.044 1372.48 491.356 1376.59 491.356 1381.86C491.356 1387.27 490.034 1391.48 487.389 1394.49C484.745 1397.48 481.541 1398.97 477.777 1398.97C475.987 1398.97 474.36 1398.62 472.895 1397.91C471.451 1397.19 469.925 1395.97 468.318 1394.24V1410.57H459.744V1365.84ZM468.227 1381.49C468.227 1385.13 468.949 1387.83 470.393 1389.58C471.838 1391.3 473.597 1392.17 475.672 1392.17C477.666 1392.17 479.323 1391.38 480.646 1389.79C481.968 1388.18 482.629 1385.56 482.629 1381.92C482.629 1378.52 481.948 1376 480.585 1374.35C479.222 1372.7 477.533 1371.88 475.519 1371.88C473.424 1371.88 471.685 1372.69 470.302 1374.32C468.918 1375.93 468.227 1378.32 468.227 1381.49Z" stroke="#001AA7" stroke-width="0.5" mask="url(#path-4-outside-1_51_6)"/>
<path d="M513.207 1387.93L521.751 1389.36C520.652 1392.49 518.913 1394.89 516.533 1396.53C514.173 1398.16 511.213 1398.97 507.654 1398.97C502.019 1398.97 497.849 1397.13 495.143 1393.45C493.007 1390.5 491.939 1386.78 491.939 1382.28C491.939 1376.91 493.343 1372.71 496.15 1369.68C498.957 1366.63 502.507 1365.1 506.799 1365.1C511.62 1365.1 515.424 1366.7 518.211 1369.89C520.998 1373.07 522.33 1377.94 522.208 1384.51H500.727C500.788 1387.05 501.48 1389.04 502.802 1390.46C504.124 1391.86 505.772 1392.57 507.745 1392.57C509.088 1392.57 510.217 1392.2 511.132 1391.47C512.048 1390.74 512.739 1389.56 513.207 1387.93ZM513.695 1379.26C513.634 1376.78 512.993 1374.9 511.773 1373.62C510.552 1372.32 509.067 1371.66 507.318 1371.66C505.446 1371.66 503.9 1372.35 502.68 1373.71C501.459 1375.07 500.859 1376.92 500.88 1379.26H513.695Z" stroke="#001AA7" stroke-width="0.5" mask="url(#path-4-outside-1_51_6)"/>
<path d="M533.685 1398.24H525.111V1365.84H533.075V1370.44C534.438 1368.27 535.658 1366.83 536.736 1366.14C537.835 1365.45 539.076 1365.1 540.459 1365.1C542.412 1365.1 544.294 1365.64 546.104 1366.72L543.449 1374.2C542.005 1373.26 540.662 1372.79 539.422 1372.79C538.221 1372.79 537.204 1373.13 536.37 1373.8C535.536 1374.45 534.875 1375.64 534.387 1377.37C533.919 1379.1 533.685 1382.72 533.685 1388.23V1398.24Z" stroke="#001AA7" stroke-width="0.5" mask="url(#path-4-outside-1_51_6)"/>
<path d="M546.077 1361.44V1353.51H554.651V1361.44H546.077ZM546.077 1398.24V1365.84H554.651V1398.24H546.077Z" stroke="#001AA7" stroke-width="0.5" mask="url(#path-4-outside-1_51_6)"/>
<path d="M578.486 1387.93L587.03 1389.36C585.931 1392.49 584.192 1394.89 581.812 1396.53C579.452 1398.16 576.492 1398.97 572.933 1398.97C567.298 1398.97 563.128 1397.13 560.422 1393.45C558.286 1390.5 557.218 1386.78 557.218 1382.28C557.218 1376.91 558.622 1372.71 561.429 1369.68C564.236 1366.63 567.786 1365.1 572.078 1365.1C576.899 1365.1 580.703 1366.7 583.49 1369.89C586.277 1373.07 587.609 1377.94 587.487 1384.51H566.006C566.067 1387.05 566.759 1389.04 568.081 1390.46C569.403 1391.86 571.051 1392.57 573.024 1392.57C574.367 1392.57 575.496 1392.2 576.411 1391.47C577.326 1390.74 578.018 1389.56 578.486 1387.93ZM578.974 1379.26C578.913 1376.78 578.272 1374.9 577.052 1373.62C575.831 1372.32 574.346 1371.66 572.597 1371.66C570.725 1371.66 569.179 1372.35 567.959 1373.71C566.738 1375.07 566.138 1376.92 566.159 1379.26H578.974Z" stroke="#001AA7" stroke-width="0.5" mask="url(#path-4-outside-1_51_6)"/>
<path d="M620.232 1398.24H611.658V1381.7C611.658 1378.2 611.474 1375.95 611.108 1374.93C610.742 1373.89 610.142 1373.09 609.308 1372.52C608.494 1371.95 607.508 1371.66 606.348 1371.66C604.863 1371.66 603.531 1372.07 602.351 1372.88C601.171 1373.7 600.357 1374.78 599.91 1376.12C599.483 1377.46 599.269 1379.94 599.269 1383.56V1398.24H590.695V1365.84H598.659V1370.6C601.486 1366.93 605.046 1365.1 609.339 1365.1C611.23 1365.1 612.959 1365.45 614.526 1366.14C616.092 1366.81 617.272 1367.68 618.065 1368.74C618.879 1369.79 619.438 1370.99 619.744 1372.34C620.069 1373.68 620.232 1375.6 620.232 1378.1V1398.24Z" stroke="#001AA7" stroke-width="0.5" mask="url(#path-4-outside-1_51_6)"/>
<path d="M653.464 1375.42L645.012 1376.94C644.727 1375.25 644.077 1373.98 643.059 1373.13C642.063 1372.27 640.761 1371.85 639.154 1371.85C637.018 1371.85 635.309 1372.59 634.028 1374.08C632.766 1375.54 632.136 1378 632.136 1381.46C632.136 1385.3 632.776 1388.02 634.058 1389.61C635.36 1391.19 637.099 1391.99 639.276 1391.99C640.903 1391.99 642.236 1391.53 643.273 1390.61C644.31 1389.68 645.043 1388.08 645.47 1385.82L653.892 1387.26C653.017 1391.12 651.339 1394.04 648.857 1396.01C646.375 1397.99 643.049 1398.97 638.879 1398.97C634.139 1398.97 630.356 1397.48 627.528 1394.49C624.721 1391.5 623.317 1387.36 623.317 1382.07C623.317 1376.72 624.731 1372.56 627.559 1369.59C630.386 1366.6 634.211 1365.1 639.032 1365.1C642.978 1365.1 646.111 1365.96 648.43 1367.67C650.769 1369.36 652.447 1371.94 653.464 1375.42Z" stroke="#001AA7" stroke-width="0.5" mask="url(#path-4-outside-1_51_6)"/>
<path d="M675.011 1387.93L683.554 1389.36C682.456 1392.49 680.716 1394.89 678.336 1396.53C675.977 1398.16 673.017 1398.97 669.457 1398.97C663.822 1398.97 659.652 1397.13 656.947 1393.45C654.811 1390.5 653.743 1386.78 653.743 1382.28C653.743 1376.91 655.146 1372.71 657.954 1369.68C660.761 1366.63 664.311 1365.1 668.603 1365.1C673.424 1365.1 677.228 1366.7 680.015 1369.89C682.802 1373.07 684.134 1377.94 684.012 1384.51H662.531C662.592 1387.05 663.283 1389.04 664.605 1390.46C665.928 1391.86 667.575 1392.57 669.549 1392.57C670.891 1392.57 672.02 1392.2 672.936 1391.47C673.851 1390.74 674.543 1389.56 675.011 1387.93ZM675.499 1379.26C675.438 1376.78 674.797 1374.9 673.576 1373.62C672.356 1372.32 670.871 1371.66 669.121 1371.66C667.25 1371.66 665.704 1372.35 664.483 1373.71C663.263 1375.07 662.663 1376.92 662.683 1379.26H675.499Z" stroke="#001AA7" stroke-width="0.5" mask="url(#path-4-outside-1_51_6)"/>
<path d="M684.26 1389L692.864 1387.68C693.231 1389.35 693.973 1390.62 695.092 1391.5C696.211 1392.35 697.777 1392.78 699.791 1392.78C702.008 1392.78 703.676 1392.37 704.795 1391.56C705.548 1390.99 705.924 1390.23 705.924 1389.27C705.924 1388.62 705.721 1388.08 705.314 1387.65C704.887 1387.25 703.931 1386.87 702.446 1386.52C695.529 1385 691.146 1383.61 689.294 1382.34C686.731 1380.59 685.45 1378.16 685.45 1375.05C685.45 1372.24 686.558 1369.88 688.776 1367.97C690.993 1366.06 694.431 1365.1 699.089 1365.1C703.524 1365.1 706.819 1365.83 708.976 1367.27C711.132 1368.71 712.617 1370.85 713.43 1373.68L705.344 1375.17C704.999 1373.91 704.337 1372.95 703.361 1372.27C702.405 1371.6 701.032 1371.27 699.242 1371.27C696.984 1371.27 695.367 1371.58 694.39 1372.21C693.739 1372.66 693.414 1373.24 693.414 1373.95C693.414 1374.56 693.699 1375.08 694.268 1375.51C695.041 1376.08 697.706 1376.88 702.263 1377.92C706.84 1378.96 710.033 1380.23 711.844 1381.73C713.634 1383.26 714.529 1385.39 714.529 1388.11C714.529 1391.08 713.288 1393.63 710.806 1395.77C708.325 1397.91 704.653 1398.97 699.791 1398.97C695.377 1398.97 691.878 1398.08 689.294 1396.29C686.731 1394.5 685.053 1392.07 684.26 1389Z" stroke="#001AA7" stroke-width="0.5" mask="url(#path-4-outside-1_51_6)"/>
<path d="M718.103 1389.67H726.677V1395.8C726.677 1398.28 726.463 1400.24 726.036 1401.66C725.609 1403.1 724.795 1404.4 723.595 1405.53C722.415 1406.67 720.91 1407.57 719.079 1408.22L717.401 1404.68C719.13 1404.11 720.361 1403.33 721.093 1402.33C721.825 1401.33 722.212 1399.97 722.252 1398.24H718.103V1389.67Z" stroke="#001AA7" stroke-width="0.5" mask="url(#path-4-outside-1_51_6)"/>
<path d="M745.694 1353.51H763.575C767.114 1353.51 769.749 1353.66 771.478 1353.97C773.227 1354.25 774.783 1354.86 776.146 1355.8C777.53 1356.73 778.679 1357.98 779.594 1359.55C780.51 1361.1 780.967 1362.84 780.967 1364.77C780.967 1366.86 780.398 1368.79 779.259 1370.54C778.14 1372.28 776.614 1373.6 774.682 1374.47C777.407 1375.27 779.503 1376.62 780.967 1378.53C782.432 1380.44 783.164 1382.69 783.164 1385.27C783.164 1387.31 782.686 1389.29 781.73 1391.22C780.794 1393.14 779.503 1394.67 777.855 1395.83C776.228 1396.97 774.214 1397.67 771.813 1397.94C770.308 1398.1 766.677 1398.2 760.92 1398.24H745.694V1353.51ZM754.726 1360.95V1371.3H760.645C764.165 1371.3 766.351 1371.25 767.206 1371.15C768.752 1370.96 769.962 1370.43 770.837 1369.56C771.732 1368.66 772.18 1367.49 772.18 1366.05C772.18 1364.67 771.793 1363.55 771.02 1362.69C770.267 1361.82 769.138 1361.29 767.633 1361.11C766.738 1361.01 764.165 1360.95 759.913 1360.95H754.726ZM754.726 1378.74V1390.7H763.087C766.341 1390.7 768.406 1390.61 769.281 1390.43C770.623 1390.19 771.712 1389.6 772.546 1388.66C773.4 1387.7 773.827 1386.43 773.827 1384.85C773.827 1383.5 773.502 1382.36 772.851 1381.43C772.2 1380.49 771.254 1379.81 770.013 1379.38C768.793 1378.96 766.128 1378.74 762.019 1378.74H754.726Z" stroke="#001AA7" stroke-width="0.5" mask="url(#path-4-outside-1_51_6)"/>
<path d="M808.341 1398.24V1393.39C807.162 1395.12 805.605 1396.48 803.673 1397.48C801.761 1398.48 799.737 1398.97 797.601 1398.97C795.424 1398.97 793.471 1398.5 791.742 1397.54C790.013 1396.58 788.762 1395.24 787.989 1393.51C787.216 1391.78 786.83 1389.39 786.83 1386.34V1365.84H795.404V1380.73C795.404 1385.28 795.556 1388.08 795.862 1389.12C796.187 1390.14 796.767 1390.95 797.601 1391.56C798.435 1392.15 799.493 1392.44 800.774 1392.44C802.239 1392.44 803.551 1392.05 804.71 1391.25C805.87 1390.44 806.663 1389.44 807.09 1388.26C807.518 1387.06 807.731 1384.14 807.731 1379.51V1365.84H816.305V1398.24H808.341Z" stroke="#001AA7" stroke-width="0.5" mask="url(#path-4-outside-1_51_6)"/>
<path d="M821.466 1361.44V1353.51H830.04V1361.44H821.466ZM821.466 1398.24V1365.84H830.04V1398.24H821.466Z" stroke="#001AA7" stroke-width="0.5" mask="url(#path-4-outside-1_51_6)"/>
<path d="M835.109 1398.24V1353.51H843.683V1398.24H835.109Z" stroke="#001AA7" stroke-width="0.5" mask="url(#path-4-outside-1_51_6)"/>
<path d="M878.472 1398.24H870.508V1393.48C869.186 1395.33 867.619 1396.72 865.809 1397.63C864.019 1398.53 862.208 1398.97 860.378 1398.97C856.655 1398.97 853.461 1397.48 850.796 1394.49C848.152 1391.48 846.83 1387.29 846.83 1381.92C846.83 1376.42 848.121 1372.25 850.705 1369.41C853.288 1366.54 856.553 1365.1 860.5 1365.1C864.121 1365.1 867.253 1366.61 869.898 1369.62V1353.51H878.472V1398.24ZM855.587 1381.34C855.587 1384.8 856.065 1387.3 857.021 1388.84C858.404 1391.08 860.337 1392.2 862.819 1392.2C864.792 1392.2 866.47 1391.37 867.853 1389.7C869.237 1388.01 869.928 1385.5 869.928 1382.16C869.928 1378.44 869.257 1375.76 867.914 1374.14C866.572 1372.49 864.853 1371.66 862.758 1371.66C860.723 1371.66 859.015 1372.48 857.631 1374.11C856.269 1375.71 855.587 1378.12 855.587 1381.34Z" stroke="#001AA7" stroke-width="0.5" mask="url(#path-4-outside-1_51_6)"/>
<path d="M883.205 1361.44V1353.51H891.779V1361.44H883.205ZM883.205 1398.24V1365.84H891.779V1398.24H883.205Z" stroke="#001AA7" stroke-width="0.5" mask="url(#path-4-outside-1_51_6)"/>
<path d="M926.324 1398.24H917.75V1381.7C917.75 1378.2 917.567 1375.95 917.201 1374.93C916.835 1373.89 916.234 1373.09 915.4 1372.52C914.587 1371.95 913.6 1371.66 912.441 1371.66C910.956 1371.66 909.623 1372.07 908.443 1372.88C907.264 1373.7 906.45 1374.78 906.002 1376.12C905.575 1377.46 905.362 1379.94 905.362 1383.56V1398.24H896.787V1365.84H904.751V1370.6C907.579 1366.93 911.139 1365.1 915.431 1365.1C917.323 1365.1 919.052 1365.45 920.618 1366.14C922.185 1366.81 923.364 1367.68 924.158 1368.74C924.971 1369.79 925.531 1370.99 925.836 1372.34C926.161 1373.68 926.324 1375.6 926.324 1378.1V1398.24Z" stroke="#001AA7" stroke-width="0.5" mask="url(#path-4-outside-1_51_6)"/>
<path d="M930.508 1400.38L940.303 1401.57C940.466 1402.71 940.842 1403.49 941.432 1403.92C942.246 1404.53 943.527 1404.83 945.277 1404.83C947.514 1404.83 949.192 1404.5 950.311 1403.83C951.064 1403.38 951.634 1402.66 952.02 1401.66C952.284 1400.95 952.417 1399.63 952.417 1397.72V1392.99C949.854 1396.49 946.619 1398.24 942.713 1398.24C938.36 1398.24 934.912 1396.4 932.369 1392.72C930.376 1389.81 929.379 1386.19 929.379 1381.86C929.379 1376.42 930.681 1372.27 933.285 1369.41C935.909 1366.54 939.164 1365.1 943.049 1365.1C947.057 1365.1 950.362 1366.86 952.966 1370.38V1365.84H960.991V1394.92C960.991 1398.74 960.676 1401.6 960.045 1403.49C959.414 1405.38 958.53 1406.87 957.39 1407.94C956.251 1409.02 954.726 1409.87 952.813 1410.48C950.922 1411.09 948.521 1411.39 945.612 1411.39C940.12 1411.39 936.224 1410.45 933.926 1408.56C931.627 1406.68 930.478 1404.3 930.478 1401.41C930.478 1401.13 930.488 1400.78 930.508 1400.38ZM938.167 1381.37C938.167 1384.81 938.828 1387.33 940.15 1388.93C941.493 1390.52 943.141 1391.32 945.094 1391.32C947.189 1391.32 948.959 1390.5 950.403 1388.87C951.847 1387.23 952.569 1384.8 952.569 1381.58C952.569 1378.22 951.878 1375.73 950.494 1374.11C949.111 1372.48 947.362 1371.66 945.246 1371.66C943.192 1371.66 941.493 1372.47 940.15 1374.08C938.828 1375.66 938.167 1378.09 938.167 1381.37Z" stroke="#001AA7" stroke-width="0.5" mask="url(#path-4-outside-1_51_6)"/>
<path d="M977.17 1383.69L985.958 1382.83C986.487 1385.78 987.555 1387.95 989.162 1389.33C990.789 1390.71 992.976 1391.41 995.722 1391.41C998.631 1391.41 1000.82 1390.8 1002.28 1389.58C1003.77 1388.33 1004.51 1386.89 1004.51 1385.24C1004.51 1384.19 1004.19 1383.29 1003.56 1382.56C1002.95 1381.81 1001.88 1381.15 1000.33 1380.6C999.272 1380.24 996.862 1379.59 993.098 1378.65C988.257 1377.45 984.86 1375.98 982.907 1374.23C980.161 1371.77 978.788 1368.77 978.788 1365.23C978.788 1362.95 979.428 1360.82 980.71 1358.85C982.012 1356.86 983.873 1355.34 986.294 1354.3C988.735 1353.26 991.674 1352.75 995.112 1352.75C1000.73 1352.75 1004.95 1353.98 1007.78 1356.44C1010.62 1358.9 1012.12 1362.18 1012.26 1366.29L1003.23 1366.69C1002.84 1364.39 1002.01 1362.74 1000.73 1361.75C999.465 1360.73 997.563 1360.22 995.021 1360.22C992.396 1360.22 990.342 1360.76 988.857 1361.84C987.901 1362.53 987.423 1363.46 987.423 1364.62C987.423 1365.67 987.87 1366.58 988.765 1367.33C989.905 1368.29 992.671 1369.28 997.065 1370.32C1001.46 1371.36 1004.7 1372.44 1006.8 1373.56C1008.91 1374.65 1010.56 1376.17 1011.74 1378.1C1012.94 1380.01 1013.54 1382.38 1013.54 1385.21C1013.54 1387.78 1012.83 1390.18 1011.41 1392.41C1009.98 1394.65 1007.97 1396.32 1005.36 1397.42C1002.76 1398.5 999.516 1399.03 995.631 1399.03C989.976 1399.03 985.633 1397.73 982.602 1395.13C979.571 1392.51 977.76 1388.69 977.17 1383.69Z" stroke="#001AA7" stroke-width="0.5" mask="url(#path-4-outside-1_51_6)"/>
<path d="M1015.35 1381.58C1015.35 1378.73 1016.05 1375.98 1017.45 1373.31C1018.86 1370.65 1020.84 1368.61 1023.4 1367.21C1025.99 1365.81 1028.86 1365.1 1032.04 1365.1C1036.94 1365.1 1040.96 1366.7 1044.09 1369.89C1047.22 1373.07 1048.79 1377.09 1048.79 1381.95C1048.79 1386.85 1047.2 1390.92 1044.03 1394.15C1040.88 1397.37 1036.9 1398.97 1032.1 1398.97C1029.13 1398.97 1026.29 1398.3 1023.58 1396.96C1020.9 1395.62 1018.86 1393.65 1017.45 1391.07C1016.05 1388.47 1015.35 1385.3 1015.35 1381.58ZM1024.13 1382.04C1024.13 1385.25 1024.9 1387.71 1026.42 1389.42C1027.95 1391.13 1029.83 1391.99 1032.07 1391.99C1034.31 1391.99 1036.18 1391.13 1037.68 1389.42C1039.21 1387.71 1039.97 1385.23 1039.97 1381.98C1039.97 1378.8 1039.21 1376.36 1037.68 1374.65C1036.18 1372.95 1034.31 1372.09 1032.07 1372.09C1029.83 1372.09 1027.95 1372.95 1026.42 1374.65C1024.9 1376.36 1024.13 1378.82 1024.13 1382.04Z" stroke="#001AA7" stroke-width="0.5" mask="url(#path-4-outside-1_51_6)"/>
<path d="M1051.78 1398.24V1353.51H1060.36V1398.24H1051.78Z" stroke="#001AA7" stroke-width="0.5" mask="url(#path-4-outside-1_51_6)"/>
<path d="M1086.75 1398.24V1393.39C1085.57 1395.12 1084.02 1396.48 1082.09 1397.48C1080.17 1398.48 1078.15 1398.97 1076.01 1398.97C1073.84 1398.97 1071.88 1398.5 1070.16 1397.54C1068.43 1396.58 1067.18 1395.24 1066.4 1393.51C1065.63 1391.78 1065.24 1389.39 1065.24 1386.34V1365.84H1073.82V1380.73C1073.82 1385.28 1073.97 1388.08 1074.27 1389.12C1074.6 1390.14 1075.18 1390.95 1076.01 1391.56C1076.85 1392.15 1077.91 1392.44 1079.19 1392.44C1080.65 1392.44 1081.96 1392.05 1083.12 1391.25C1084.28 1390.44 1085.08 1389.44 1085.5 1388.26C1085.93 1387.06 1086.14 1384.14 1086.14 1379.51V1365.84H1094.72V1398.24H1086.75Z" stroke="#001AA7" stroke-width="0.5" mask="url(#path-4-outside-1_51_6)"/>
<path d="M1114.74 1365.84V1372.67H1108.88V1385.73C1108.88 1388.38 1108.93 1389.92 1109.03 1390.37C1109.16 1390.8 1109.41 1391.15 1109.8 1391.44C1110.2 1391.72 1110.69 1391.86 1111.26 1391.86C1112.05 1391.86 1113.2 1391.59 1114.71 1391.04L1115.44 1397.69C1113.45 1398.55 1111.19 1398.97 1108.67 1398.97C1107.12 1398.97 1105.73 1398.72 1104.49 1398.21C1103.25 1397.68 1102.33 1397.01 1101.74 1396.2C1101.17 1395.36 1100.77 1394.24 1100.55 1392.84C1100.37 1391.84 1100.28 1389.83 1100.28 1386.8V1372.67H1096.34V1365.84H1100.28V1359.4L1108.88 1354.39V1365.84H1114.74Z" stroke="#001AA7" stroke-width="0.5" mask="url(#path-4-outside-1_51_6)"/>
<path d="M1116.94 1361.44V1353.51H1125.51V1361.44H1116.94ZM1116.94 1398.24V1365.84H1125.51V1398.24H1116.94Z" stroke="#001AA7" stroke-width="0.5" mask="url(#path-4-outside-1_51_6)"/>
<path d="M1128.6 1381.58C1128.6 1378.73 1129.3 1375.98 1130.7 1373.31C1132.11 1370.65 1134.09 1368.61 1136.65 1367.21C1139.24 1365.81 1142.12 1365.1 1145.29 1365.1C1150.19 1365.1 1154.21 1366.7 1157.34 1369.89C1160.48 1373.07 1162.04 1377.09 1162.04 1381.95C1162.04 1386.85 1160.46 1390.92 1157.28 1394.15C1154.13 1397.37 1150.15 1398.97 1145.35 1398.97C1142.38 1398.97 1139.54 1398.3 1136.84 1396.96C1134.15 1395.62 1132.11 1393.65 1130.7 1391.07C1129.3 1388.47 1128.6 1385.3 1128.6 1381.58ZM1137.39 1382.04C1137.39 1385.25 1138.15 1387.71 1139.68 1389.42C1141.2 1391.13 1143.08 1391.99 1145.32 1391.99C1147.56 1391.99 1149.43 1391.13 1150.93 1389.42C1152.46 1387.71 1153.22 1385.23 1153.22 1381.98C1153.22 1378.8 1152.46 1376.36 1150.93 1374.65C1149.43 1372.95 1147.56 1372.09 1145.32 1372.09C1143.08 1372.09 1141.2 1372.95 1139.68 1374.65C1138.15 1376.36 1137.39 1378.82 1137.39 1382.04Z" stroke="#001AA7" stroke-width="0.5" mask="url(#path-4-outside-1_51_6)"/>
<path d="M1194.51 1398.24H1185.94V1381.7C1185.94 1378.2 1185.75 1375.95 1185.39 1374.93C1185.02 1373.89 1184.42 1373.09 1183.59 1372.52C1182.77 1371.95 1181.79 1371.66 1180.63 1371.66C1179.14 1371.66 1177.81 1372.07 1176.63 1372.88C1175.45 1373.7 1174.64 1374.78 1174.19 1376.12C1173.76 1377.46 1173.55 1379.94 1173.55 1383.56V1398.24H1164.97V1365.84H1172.94V1370.6C1175.77 1366.93 1179.33 1365.1 1183.62 1365.1C1185.51 1365.1 1187.24 1365.45 1188.81 1366.14C1190.37 1366.81 1191.55 1367.68 1192.35 1368.74C1193.16 1369.79 1193.72 1370.99 1194.02 1372.34C1194.35 1373.68 1194.51 1375.6 1194.51 1378.1V1398.24Z" stroke="#001AA7" stroke-width="0.5" mask="url(#path-4-outside-1_51_6)"/>
<path d="M1196.47 1389L1205.07 1387.68C1205.44 1389.35 1206.18 1390.62 1207.3 1391.5C1208.42 1392.35 1209.99 1392.78 1212 1392.78C1214.22 1392.78 1215.88 1392.37 1217 1391.56C1217.76 1390.99 1218.13 1390.23 1218.13 1389.27C1218.13 1388.62 1217.93 1388.08 1217.52 1387.65C1217.1 1387.25 1216.14 1386.87 1214.65 1386.52C1207.74 1385 1203.35 1383.61 1201.5 1382.34C1198.94 1380.59 1197.66 1378.16 1197.66 1375.05C1197.66 1372.24 1198.77 1369.88 1200.98 1367.97C1203.2 1366.06 1206.64 1365.1 1211.3 1365.1C1215.73 1365.1 1219.03 1365.83 1221.18 1367.27C1223.34 1368.71 1224.83 1370.85 1225.64 1373.68L1217.55 1375.17C1217.21 1373.91 1216.55 1372.95 1215.57 1372.27C1214.61 1371.6 1213.24 1371.27 1211.45 1371.27C1209.19 1371.27 1207.57 1371.58 1206.6 1372.21C1205.95 1372.66 1205.62 1373.24 1205.62 1373.95C1205.62 1374.56 1205.91 1375.08 1206.48 1375.51C1207.25 1376.08 1209.91 1376.88 1214.47 1377.92C1219.05 1378.96 1222.24 1380.23 1224.05 1381.73C1225.84 1383.26 1226.74 1385.39 1226.74 1388.11C1226.74 1391.08 1225.5 1393.63 1223.01 1395.77C1220.53 1397.91 1216.86 1398.97 1212 1398.97C1207.59 1398.97 1204.09 1398.08 1201.5 1396.29C1198.94 1394.5 1197.26 1392.07 1196.47 1389Z" stroke="#001AA7" stroke-width="0.5" mask="url(#path-4-outside-1_51_6)"/>
</svg>
